<svg id="Réteg_1" data-name="Réteg 1" xmlns="http://www.w3.org/2000/svg" viewBox="0 0 275.73 199.95"><title>70+</title><g id="Timeline-icon-_-70_" data-name="Timeline-icon- -70 "><g id="Group-575"><path id="Fill-1" d="M78.24,18.62a32.68,32.68,0,0,0-7.63-3.24,28.18,28.18,0,0,0-4.31-.06c-2.07.35-6.36,3.15-7.3,3.95a3.53,3.53,0,0,0-.93,4.05c.44.66,10.4.54,10.4.54s10.6.18,10.85-.57.6-3.69-1.08-4.67" transform="translate(0 0)" style="fill:#b9d0f9"/><path id="Fill-3" d="M67.67,7.28c3.77-.29,3.07,4.94,3.07,4.94l-.13,3.16s-.8,2.26-2.5,1.95a2.05,2.05,0,0,1-1.85-1.69l-.05-1.86" transform="translate(0 0)" style="fill:#4097ff"/><polygon id="Fill-5" points="67.89 13.65 66.25 15.14 66.22 13.78 67.89 13.65" style="fill:#3e25a7"/><path id="Fill-7" d="M71.09,12.67s.7-5.24-3.07-4.94-3.11,4.84-2.26,6,2.62.35,2.62.35Z" transform="translate(0 0)" style="fill:#4097ff"/><path id="Fill-9" d="M69.78,10.89a.45.45,0,0,0,.53.37h0a.47.47,0,0,0,.37-.54.46.46,0,1,0-.91.17h0" transform="translate(0 0)" style="fill:#4097ff"/><path id="Fill-11" d="M70.15,6.54c-3.13-1.07-4.38.84-6.08,1.12s-3.25-1.39-3.78-1.49.91,4.45,3.12,4.94,3,.41,4.17-.55c0,0,0-.66.25-.89s1-.05,1.71.35c1.24.7.82,3.22.82,3.22h.34s3.79-5.23-.55-6.7" transform="translate(0 0)" style="fill:#3e25a7"/><path id="Fill-13" d="M219,164.65c2.08-1,7.29.73,7.29.73s.82.84,3.22.51c1.9-.27,5.75-.81,8.84,1.39,1.87,1.33-3.51,6.61-4,7.38s-13.17.68-13.45-.19-4-8.86-1.89-9.82" transform="translate(0 0)" style="fill:#b9d0f9"/><path id="Fill-15" d="M228.52,163.42s1.83,4.52,3.33,3.41c2.16-1.58.91-12.66-3.77-12.8-5.85-.17-8.18,12-4.34,12.62,2.6.44,4.52-4.94,4.52-4.94Z" transform="translate(0 0)" style="fill:#3e25a7"/><path id="Fill-17" d="M224.57,162.58c-1-1.31-1.78-6.65,2.65-7s3.61,5.8,3.61,5.8l-1,4.47a46.59,46.59,0,0,0-3.05,5.43c-.38.95-.43-5.9-.43-5.9l0-2.26" transform="translate(0 0)" style="fill:#4097ff"/><polygon id="Fill-19" points="227.54 162.88 226.28 164.41 226.28 163.59 227.54 162.88" style="fill:#3e25a7"/><path id="Fill-21" d="M230.83,161.38s.82-6.15-3.61-5.8-3.49,5.58-2.65,7c1.19,2,3.07.41,3.07.41Z" transform="translate(0 0)" style="fill:#4097ff"/><path id="Fill-23" d="M223.91,158.43s4.35-2.43,5.62.55.49,4.58,1.19,4.9,1.3-4.14,1.3-4.14l-1.79-4.4-2.76-.46-2.28.69-.92,1-.61,1.33Z" transform="translate(0 0)" style="fill:#3e25a7"/><path id="Fill-25" d="M229.53,160.51a.54.54,0,1,0,.42-.63h0a.52.52,0,0,0-.42.62h0" transform="translate(0 0)" style="fill:#4097ff"/><path id="Fill-27" d="M38.26,42.07c2.23-1,7.81.78,7.81.78s.88.9,3.46.54c2-.28,6.15-.86,9.47,1.5,2,1.42-3.76,7.08-4.3,7.9s-14.11.73-14.41-.2-4.26-9.5-2-10.52" transform="translate(0 0)" style="fill:#b9d0f9"/><path id="Fill-29" d="M50,40.61s1.8,1.87,3.41.68C55.71,39.6,53,30.84,48,30.69c-6.26-.18-9.11,9.9-5,10.6,2.78.48,3.92-4.13,3.92-4.13Z" transform="translate(0 0)" style="fill:#3e25a7"/><path id="Fill-31" d="M44.21,39.85c-1.07-1.4-1.9-7.13,2.84-7.5s3.87,6.21,3.87,6.21l-1.11,4.79a5.29,5.29,0,0,1-2.57,1.32c-1.1,0-1.17-1.82-1.17-1.82V40.43" transform="translate(0 0)" style="fill:#4097ff"/><polygon id="Fill-33" points="47.41 40.17 46.05 41.81 46.03 40.93 47.41 40.17" style="fill:#3e25a7"/><path id="Fill-35" d="M50.92,38.56s.87-6.58-3.87-6.21-3.74,6-2.84,7.5c1.27,2.17,3.29.44,3.29.44Z" transform="translate(0 0)" style="fill:#4097ff"/><path id="Fill-37" d="M43.5,35.4s4.66-2.61,6,.59.52,4.9,1.27,5.25,2-4.63,2-4.63l-2.49-4.52-3-.49-2.43.73-1,1-.65,1.43Z" transform="translate(0 0)" style="fill:#3e25a7"/><path id="Fill-39" d="M49.52,37.63A.58.58,0,1,0,50,37a.59.59,0,0,0-.46.68" transform="translate(0 0)" style="fill:#4097ff"/><path id="Fill-41" d="M75.32,42.2c2.23-1,10.53.2,10.53.2s1.1.14,2.6.39c2.61.44,6.41,1.22,7.61,2.23,1.87,1.58,2,6.82,1.48,7.64s-13.08.67-13.08.67-13.34.22-13.64-.71,2.27-9.4,4.5-10.42" transform="translate(0 0)" style="fill:#b9d0f9"/><path id="Fill-43" d="M81.26,40c-1.07-1.4-1.89-7.13,2.85-7.5S88,38.7,88,38.7l-.16,4L85,43.92,82.33,43l-.06-2.35" transform="translate(0 0)" style="fill:#4097ff"/><polygon id="Fill-45" points="84.38 40.49 82.31 42.36 82.28 40.65 84.38 40.49" style="fill:#3e25a7"/><path id="Fill-47" d="M88,38.7s.88-6.59-3.86-6.22-3.92,6.1-2.85,7.5,3.3.44,3.3.44Z" transform="translate(0 0)" style="fill:#4097ff"/><path id="Fill-49" d="M87.91,41s3.44-.72,2.61-2.76.89-2.43.13-3.93-1.44-1.11-2.35-2.06-.36-2.41-2.57-2.69-3,1.38-3.92,1.74S79,31.5,78.52,33s.56,2.34.44,3.43,2.49,2.17,3.13.26,5.19-2.67,5.24,1.59.58,2.76.58,2.76" transform="translate(0 0)" style="fill:#3e25a7"/><path id="Fill-51" d="M86.77,37a.57.57,0,1,0,.46-.67.56.56,0,0,0-.46.66h0" transform="translate(0 0)" style="fill:#4097ff"/><path id="Fill-53" d="M87.84,42l.61.76s-.12,1.72-3.55,1.53S82,42,82,42h.34s.15,1.33,2.58,1.46,3-1.35,3-1.35" transform="translate(0 0)" style="fill:#b9d0f9"/><path id="Fill-55" d="M168.36,68.48c2.51-1.15,11.84.23,11.84.23s1.24.15,2.92.43c2.94.5,7.21,1.38,8.55,2.51,2.11,1.78,2.28,7.66,1.67,8.59s-14.7.75-14.7.75-15,.25-15.34-.8,2.55-10.56,5.06-11.71" transform="translate(0 0)" style="fill:#b9d0f9"/><path id="Fill-57" d="M175.05,66c-1.21-1.58-2.14-8,3.19-8.43s4.35,7,4.35,7L182.4,69l-3.11,1.41-3-1-.06-2.64" transform="translate(0 0)" style="fill:#4097ff"/><polygon id="Fill-59" points="178.54 66.56 176.22 68.66 176.19 66.74 178.54 66.56" style="fill:#3e25a7"/><path id="Fill-61" d="M182.59,64.54s1-7.4-4.35-7-4.4,6.85-3.19,8.43,3.7.49,3.7.49Z" transform="translate(0 0)" style="fill:#4097ff"/><path id="Fill-63" d="M182.52,67.07s3.86-.81,2.93-3.1,1-2.73.14-4.42S184,58.31,183,57.24s-.4-2.71-2.9-3-3.42,1.56-4.4,2-3.16.16-3.7,1.76.62,2.62.48,3.85,2.81,2.45,3.52.3,5.84-3,5.9,1.78.65,3.1.65,3.1" transform="translate(0 0)" style="fill:#3e25a7"/><path id="Fill-65" d="M181.23,62.66a.65.65,0,1,0,.52-.76.65.65,0,0,0-.52.76h0" transform="translate(0 0)" style="fill:#4097ff"/><path id="Fill-67" d="M182.43,68.28l.69.86s-.14,1.94-4,1.72-3.32-2.65-3.32-2.65h.39s.17,1.5,2.9,1.65,3.32-1.53,3.32-1.53" transform="translate(0 0)" style="fill:#b9d0f9"/><path id="Fill-69" d="M130.35,42.2c-2.23-1-10.53.2-10.53.2s-1.11.14-2.6.39c-2.61.44-6.41,1.22-7.61,2.23-1.88,1.58-2,6.82-1.48,7.64s13.08.67,13.08.67,13.33.22,13.64-.71-2.27-9.4-4.5-10.42" transform="translate(0 0)" style="fill:#b9d0f9"/><path id="Fill-71" d="M124.4,40c1.07-1.4,1.9-7.13-2.84-7.5s-3.87,6.22-3.87,6.22l.17,4L120.63,44l2.71-.92V40.71" transform="translate(0 0)" style="fill:#4097ff"/><polygon id="Fill-73" points="121.3 40.49 123.36 42.36 123.39 40.65 121.3 40.49" style="fill:#3e25a7"/><path id="Fill-75" d="M117.69,38.7s-.88-6.59,3.87-6.22,3.91,6.1,2.84,7.5-3.29.44-3.29.44Z" transform="translate(0 0)" style="fill:#4097ff"/><path id="Fill-77" d="M117.77,40.64s-.57,2.1-2,1.09-1.83-9.84,1.59-10.86,8.86-.73,9.39,2.65-1.3,4.88-1.55,3.82c-.65-2.77-5.34-1.78-6.06-1.39s-1.38,4.69-1.38,4.69" transform="translate(0 0)" style="fill:#3e25a7"/><path id="Fill-79" d="M118.9,37.76a.56.56,0,0,1-.66.46h0a.58.58,0,0,1-.37-.73.57.57,0,0,1,.59-.4.56.56,0,0,1,.46.66h0" transform="translate(0 0)" style="fill:#4097ff"/><path id="Fill-81" d="M117.83,42l-.61.76s.12,1.72,3.55,1.53S123.71,42,123.71,42h-.35s-.15,1.33-2.58,1.46-3-1.46-3-1.46" transform="translate(0 0)" style="fill:#b9d0f9"/><path id="Fill-83" d="M112.86,13.54c-1.36-2-4.91-.67-7.39-.59a64,64,0,0,0-6.78.36c-2.61.44-7-.55-8.19.46-1.88,1.58-1.45,8.59-.9,9.41s13.08.67,13.08.67,13.34.23,13.64-.71-.07-4.46-3.46-9.6" transform="translate(0 0)" style="fill:#b9d0f9"/><path id="Fill-85" d="M105.87,10.5c1.07-1.4,1.9-7.12-2.84-7.5s-3.87,6.22-3.87,6.22l.17,4,2.77,1.25,2.71-.92,0-2.35" transform="translate(0 0)" style="fill:#4097ff"/><polygon id="Fill-87" points="102.78 11.01 104.83 12.88 104.86 11.17 102.78 11.01" style="fill:#3e25a7"/><path id="Fill-89" d="M99.16,9.22S98.28,2.63,103,3s3.91,6.1,2.84,7.5-3.29.44-3.29.44Z" transform="translate(0 0)" style="fill:#4097ff"/><path id="Fill-91" d="M104.86,6.33a9.38,9.38,0,0,0,3.57.8c1.45-.07,3.8-5,1.29-6S98-.41,98.41,6s1,5,1,5h.38s-.05-3.55.8-4.52,3.65-.39,4.26-.16" transform="translate(0 0)" style="fill:#3e25a7"/><path id="Fill-93" d="M100.56,7.92a.58.58,0,1,1-.46-.68.59.59,0,0,1,.46.68" transform="translate(0 0)" style="fill:#4097ff"/><path id="Fill-95" d="M99.3,12.55l-.61.76s.12,1.72,3.55,1.53S105.47,13,105.47,13l-.64-.51s-.15,1.33-2.58,1.46-3-1.35-3-1.35" transform="translate(0 0)" style="fill:#b9d0f9"/><path id="Fill-97" d="M182,164.84c1.36-2.05,4.91-.66,7.39-.59a65,65,0,0,1,6.78.37c2.61.44,7-.55,8.19.46,1.88,1.58,1.45,8.59.9,9.41s-13.08.67-13.08.67-13.34.22-13.64-.71.07-4.46,3.46-9.61" transform="translate(0 0)" style="fill:#b9d0f9"/><path id="Fill-99" d="M189,161.81c-1.07-1.4-1.9-7.13,2.84-7.5s3.87,6.22,3.87,6.22l-.17,4-2.77,1.26-2.71-.92v-2.35" transform="translate(0 0)" style="fill:#4097ff"/><polygon id="Fill-101" points="192.13 162.32 190.06 164.19 190.01 162.48 192.13 162.32" style="fill:#3e25a7"/><path id="Fill-103" d="M195.72,160.53s.87-6.59-3.87-6.22-3.91,6.1-2.84,7.5,3.29.44,3.29.44Z" transform="translate(0 0)" style="fill:#4097ff"/><path id="Fill-105" d="M190,157.64a9.18,9.18,0,0,1-3.57.79c-1.45-.06-3.8-5-1.29-6s11.71-1.5,11.3,4.89-1,5-1,5h-.38s0-3.55-.79-4.52-3.66-.39-4.27-.16" transform="translate(0 0)" style="fill:#3e25a7"/><path id="Fill-107" d="M194.32,159.23a.58.58,0,1,0,1.14-.22.56.56,0,0,0-.66-.46h0a.58.58,0,0,0-.46.68h0" transform="translate(0 0)" style="fill:#4097ff"/><path id="Fill-109" d="M195.58,163.86l.61.76s-.12,1.72-3.55,1.53-3.23-1.9-3.23-1.9l.63-.5s.15,1.33,2.59,1.46,3-1.35,3-1.35" transform="translate(0 0)" style="fill:#b9d0f9"/><path id="Fill-111" d="M106.86,167.82a45.53,45.53,0,0,1,10.68-4.54,38.76,38.76,0,0,1,6-.08c2.91.49,8.91,4.4,10.24,5.53a5,5,0,0,1,1.29,5.68c-.6.92-14.57.75-14.57.75s-14.85.25-15.19-.8-.86-5.16,1.51-6.54" transform="translate(0 0)" style="fill:#b9d0f9"/><path id="Fill-113" d="M121.66,151.94c-5.28-.42-4.3,6.92-4.3,6.92l.18,4.42s1.13,3.16,3.51,2.74a2.92,2.92,0,0,0,2.6-2.37l.06-2.61" transform="translate(0 0)" style="fill:#4097ff"/><polygon id="Fill-115" points="121.38 160.86 123.67 162.94 123.72 161.04 121.38 160.86" style="fill:#3e25a7"/><path id="Fill-117" d="M116.87,159.48s-1-7.34,4.31-6.93,4.36,6.8,3.16,8.36-3.66.49-3.66.49Z" transform="translate(0 0)" style="fill:#4097ff"/><path id="Fill-119" d="M118.7,157a.64.64,0,0,1-1.26-.24h0a.63.63,0,0,1,.73-.51h0a.64.64,0,0,1,.51.75h0" transform="translate(0 0)" style="fill:#4097ff"/><path id="Fill-121" d="M118.19,150.89c4.38-1.5,6.13,1.18,8.52,1.58s4.55-1.95,5.3-2.1c1-.18-1.28,6.24-4.38,6.93s-4.21.58-5.84-.77c0,0,0-.93-.34-1.25s-1.42-.07-2.41.49c-1.74,1-1.15,4.51-1.15,4.51h-.46s-5.32-7.32.76-9.39" transform="translate(0 0)" style="fill:#3e25a7"/><path id="Fill-123" d="M54.63,133.92c2.45-1.13,8.56.86,8.56.86s1,1,3.78.59c2.24-.31,6.75-1,10.38,1.64,2.19,1.56-4.12,7.75-4.71,8.65s-15.45.81-15.79-.22-4.66-10.4-2.22-11.52" transform="translate(0 0)" style="fill:#b9d0f9"/><path id="Fill-125" d="M65.78,132.47s2.15,5.3,3.92,4c2.53-1.86,1.06-14.86-4.43-15-6.86-.2-9.6,14-5.1,14.8,3,.52,5.31-5.79,5.31-5.79Z" transform="translate(0 0)" style="fill:#3e25a7"/><path id="Fill-127" d="M61.15,131.49c-1.18-1.54-2.09-7.81,3.11-8.22s4.23,6.81,4.23,6.81l-1.21,5.25a56.72,56.72,0,0,0-3.59,6.36c-.44,1.13-.5-6.91-.5-6.91l-.06-2.66" transform="translate(0 0)" style="fill:#4097ff"/><polygon id="Fill-129" points="64.64 131.84 63.16 133.64 63.15 132.68 64.64 131.84" style="fill:#3e25a7"/><path id="Fill-131" d="M68.49,130.08s1-7.22-4.23-6.81-4.09,6.55-3.12,8.22c1.4,2.38,3.61.48,3.61.48Z" transform="translate(0 0)" style="fill:#4097ff"/><path id="Fill-133" d="M60.38,126.62s5.1-2.86,6.59.64.58,5.37,1.4,5.75,1.52-4.85,1.52-4.85L67.79,123l-3.24-.54-2.67.81-1.08,1.13L60.09,126Z" transform="translate(0 0)" style="fill:#3e25a7"/><path id="Fill-135" d="M67,129.06a.63.63,0,0,0,1.24-.24.63.63,0,1,0-1.24.24h0" transform="translate(0 0)" style="fill:#4097ff"/><path id="Fill-137" d="M169,162.6c-2.48-1.14-8.7.88-8.7.88s-1,1-3.86.6c-2.27-.32-6.86-1-10.55,1.66-2.24,1.59,4.18,7.9,4.79,8.82s15.72.81,16.06-.23,4.75-10.59,2.26-11.73" transform="translate(0 0)" style="fill:#b9d0f9"/><path id="Fill-139" d="M157.66,161.13s-2.2,5.39-4,4.08c-2.58-1.89-1.09-15.13,4.51-15.29,7-.21,9.77,14.29,5.18,15.07-3.1.52-5.39-5.9-5.39-5.9Z" transform="translate(0 0)" style="fill:#3e25a7"/><path id="Fill-141" d="M162.37,160.13c1.2-1.56,2.12-7.95-3.17-8.36s-4.3,6.93-4.3,6.93l1.23,5.33a58.82,58.82,0,0,1,3.65,6.48c.45,1.15.52-7,.52-7v-2.7" transform="translate(0 0)" style="fill:#4097ff"/><polygon id="Fill-143" points="158.82 160.49 160.32 162.32 160.34 161.34 158.82 160.49" style="fill:#3e25a7"/><path id="Fill-145" d="M154.89,158.7s-1-7.35,4.31-6.93,4.17,6.66,3.17,8.36c-1.42,2.42-3.67.49-3.67.49Z" transform="translate(0 0)" style="fill:#4097ff"/><path id="Fill-147" d="M163.16,155.17s-5.2-2.91-6.72.65-.58,5.47-1.42,5.85-1.55-4.93-1.55-4.93l2.14-5.26,3.3-.55,2.72.82,1.1,1.15.72,1.59Z" transform="translate(0 0)" style="fill:#3e25a7"/><path id="Fill-149" d="M156.45,157.66a.65.65,0,1,1-.51-.76.65.65,0,0,1,.51.76" transform="translate(0 0)" style="fill:#4097ff"/><path id="Fill-151" d="M190.46,131.29c-3-1.36-10.38,1-10.38,1s-1.17,1.19-4.59.72c-2.7-.37-8.17-1.15-12.57,2-2.66,1.89,5,9.4,5.71,10.49s18.73,1,19.13-.27,5.66-12.61,2.7-14" transform="translate(0 0)" style="fill:#b9d0f9"/><path id="Fill-153" d="M174.87,129.35s-2.38,2.48-4.52.91c-3.07-2.25.55-13.89,7.21-14.08,8.32-.24,12.09,13.16,6.63,14.08-3.7.63-5.21-5.49-5.21-5.49Z" transform="translate(0 0)" style="fill:#3e25a7"/><path id="Fill-155" d="M182.56,128.34c1.42-1.86,2.52-9.46-3.78-10s-5.13,8.25-5.13,8.25l1.47,6.36s1.94,1.76,3.41,1.76,1.55-2.43,1.55-2.43l.07-3.21" transform="translate(0 0)" style="fill:#4097ff"/><polygon id="Fill-157" points="178.32 128.78 180.12 130.95 180.15 129.79 178.32 128.78" style="fill:#3e25a7"/><path id="Fill-159" d="M173.65,126.64s-1.17-8.75,5.13-8.25,5,7.94,3.78,10c-1.7,2.89-4.38.59-4.38.59Z" transform="translate(0 0)" style="fill:#4097ff"/><path id="Fill-161" d="M183.49,122.44s-6.19-3.47-8,.78-.69,6.51-1.69,7-2.62-6.14-2.62-6.14l3.32-6,3.93-.65,3.24,1L183,119.8l.86,1.9Z" transform="translate(0 0)" style="fill:#3e25a7"/><path id="Fill-163" d="M175.5,125.4a.77.77,0,1,1-.61-.9h0a.77.77,0,0,1,.61.9" transform="translate(0 0)" style="fill:#4097ff"/><path id="Fill-165" d="M153.3,130.09c-3.24-1.49-15.29.29-15.29.29s-1.6.2-3.77.56c-3.79.64-9.31,1.78-11,3.24-2.73,2.3-2.95,9.9-2.16,11.09s19,1,19,1,19.36.32,19.81-1-3.3-13.64-6.54-15.12" transform="translate(0 0)" style="fill:#b9d0f9"/><path id="Fill-167" d="M144.67,126.87c1.55-2,2.76-10.35-4.13-10.89s-5.61,9-5.61,9l.24,5.76,4,1.82,3.93-1.33.08-3.41" transform="translate(0 0)" style="fill:#4097ff"/><polygon id="Fill-169" points="140.16 127.61 143.16 130.32 143.22 127.84 140.16 127.61" style="fill:#3e25a7"/><path id="Fill-171" d="M134.93,125s-1.28-9.56,5.61-9,5.68,8.85,4.13,10.89-4.78.63-4.78.63Z" transform="translate(0 0)" style="fill:#4097ff"/><path id="Fill-173" d="M135,128.27s-5-1.05-3.78-4-1.3-3.53-.19-5.71,2.08-1.61,3.41-3,.51-3.5,3.73-3.91,4.42,2,5.69,2.53,4,.29,4.77,2.42-.81,3.39-.63,5-3.62,3.16-4.54.38-7.54-3.87-7.62,2.31-.84,4-.84,4" transform="translate(0 0)" style="fill:#3e25a7"/><path id="Fill-175" d="M136.68,122.57a.83.83,0,0,1-1,.68h0a.85.85,0,0,1-.67-1h0a.84.84,0,1,1,1.66.25s0,0,0,.06" transform="translate(0 0)" style="fill:#4097ff"/><path id="Fill-177" d="M135.13,129.83l-.89,1.12s.18,2.49,5.15,2.22,4.28-3.43,4.28-3.43l-.51-.06s-.22,1.93-3.74,2.12-4.29-2-4.29-2" transform="translate(0 0)" style="fill:#b9d0f9"/><path id="Fill-179" d="M58.46,165.75c-1.89-.86-8.91.17-8.91.17s-.93.12-2.19.33c-2.21.37-5.42,1-6.43,1.89-1.59,1.34-1.72,5.76-1.26,6.46s11.06.56,11.06.56,11.27.19,11.53-.6-1.92-7.94-3.8-8.81" transform="translate(0 0)" style="fill:#b9d0f9"/><path id="Fill-181" d="M53.43,163.88c.91-1.18,1.61-6-2.4-6.34s-3.27,5.25-3.27,5.25l.14,3.36,2.34,1.06,2.29-.78v-2" transform="translate(0 0)" style="fill:#4097ff"/><polygon id="Fill-183" points="50.8 164.31 52.55 165.89 52.59 164.44 50.8 164.31" style="fill:#3e25a7"/><path id="Fill-185" d="M47.76,162.79S47,157.22,51,157.54s3.31,5.16,2.4,6.34-2.78.37-2.78.37Z" transform="translate(0 0)" style="fill:#4097ff"/><path id="Fill-187" d="M47.81,164.7s-2.9-.62-2.2-2.33-.76-2.06-.11-3.33,1.21-.94,2-1.74.3-2,2.18-2.27,2.57,1.17,3.31,1.47,2.34.17,2.78,1.4-.47,2-.37,2.9-2.11,1.84-2.64.22a2.35,2.35,0,0,0-4.44,1.35c0,3.6-.49,2.33-.49,2.33" transform="translate(0 0)" style="fill:#3e25a7"/><path id="Fill-189" d="M48.78,161.38a.51.51,0,0,1-.6.41.52.52,0,0,1-.4-.6h0a.49.49,0,0,1,.57-.38.47.47,0,0,1,.39.55v0" transform="translate(0 0)" style="fill:#4097ff"/><path id="Fill-191" d="M47.88,165.61l-.52.64s.1,1.46,3,1.3,2.49-2,2.49-2h-.3s-.12,1.12-2.18,1.23-2.49-1.14-2.49-1.14" transform="translate(0 0)" style="fill:#b9d0f9"/><path id="Fill-193" d="M229.07,43.92c-1.89-.86-8.91.17-8.91.17s-.93.12-2.19.33c-2.21.37-5.42,1-6.43,1.89-1.59,1.34-1.72,5.76-1.26,6.46s11.06.56,11.06.56,11.28.19,11.53-.6-1.91-7.94-3.8-8.81" transform="translate(0 0)" style="fill:#b9d0f9"/><path id="Fill-195" d="M224,42.05c.91-1.19,1.61-6-2.4-6.34S218.37,41,218.37,41l.14,3.36,2.34,1.06,2.29-.78.05-2" transform="translate(0 0)" style="fill:#4097ff"/><polygon id="Fill-197" points="221.41 42.48 223.16 44.06 223.19 42.62 221.41 42.48" style="fill:#3e25a7"/><path id="Fill-199" d="M218.37,41s-.74-5.57,3.27-5.25,3.31,5.16,2.4,6.34-2.78.37-2.78.37Z" transform="translate(0 0)" style="fill:#4097ff"/><path id="Fill-201" d="M218.42,42.87s-2.9-.61-2.2-2.33-.76-2.06-.11-3.33,1.21-.94,2-1.74.3-2,2.18-2.28,2.57,1.18,3.31,1.48,2.34.16,2.78,1.4-.47,2-.37,2.9-2.11,1.84-2.64.22a2.35,2.35,0,0,0-4.44,1.35c0,3.6-.49,2.33-.49,2.33" transform="translate(0 0)" style="fill:#3e25a7"/><path id="Fill-203" d="M219.39,39.55a.51.51,0,0,1-.59.41.52.52,0,0,1-.41-.6A.51.51,0,0,1,219,39a.52.52,0,0,1,.4.6h0" transform="translate(0 0)" style="fill:#4097ff"/><path id="Fill-205" d="M218.49,43.78l-.52.64s.1,1.46,3,1.3,2.49-2,2.49-2h-.3s-.16,1.09-2.16,1.2-2.49-1.14-2.49-1.14" transform="translate(0 0)" style="fill:#b9d0f9"/><path id="Fill-207" d="M88.61,132.56c2.74-1.26,13,.25,13,.25s1.36.17,3.19.48c3.21.54,7.89,1.5,9.36,2.74,2.31,1.95,2.49,8.39,1.82,9.4s-16.08.82-16.08.82-16.4.28-16.78-.88,2.79-11.55,5.54-12.81" transform="translate(0 0)" style="fill:#b9d0f9"/><path id="Fill-209" d="M95.92,129.84c-1.32-1.72-2.33-8.77,3.5-9.22s4.75,7.64,4.75,7.64l-.2,4.88-3.41,1.54-3.33-1.13-.07-2.89" transform="translate(0 0)" style="fill:#4097ff"/><polygon id="Fill-211" points="99.75 130.46 97.22 132.77 97.17 130.66 99.75 130.46" style="fill:#3e25a7"/><path id="Fill-213" d="M104.17,128.26s1.08-8.1-4.75-7.64-4.82,7.5-3.5,9.22,4,.54,4,.54Z" transform="translate(0 0)" style="fill:#4097ff"/><path id="Fill-215" d="M104.07,130.64s.7,2.59,2.45,1.34,2.25-12.09-2-13.34-10.89-.9-11.54,3.25,1.6,6,1.9,4.7c.79-3.4,6.57-2.19,7.44-1.7s1.7,5.75,1.7,5.75" transform="translate(0 0)" style="fill:#3e25a7"/><path id="Fill-217" d="M102.69,127.11a.71.71,0,1,0,1.39-.27.71.71,0,0,0-.83-.56h0a.69.69,0,0,0-.56.81v0" transform="translate(0 0)" style="fill:#4097ff"/><path id="Fill-219" d="M104,132.35l.75.94s-.14,2.12-4.36,1.88-3.62-2.9-3.62-2.9l.43-.05s.18,1.63,3.17,1.8,3.63-1.67,3.63-1.67" transform="translate(0 0)" style="fill:#b9d0f9"/><path id="Fill-221" d="M93.79,164.84c-1.36-2.05-4.91-.66-7.39-.59a65,65,0,0,0-6.78.37c-2.61.44-7-.55-8.19.46-1.88,1.58-1.45,8.59-.9,9.41s13.08.67,13.08.67,13.34.22,13.64-.71-.07-4.46-3.46-9.61" transform="translate(0 0)" style="fill:#b9d0f9"/><path id="Fill-223" d="M86.8,161.81c1.07-1.4,1.9-7.13-2.84-7.5s-3.87,6.22-3.87,6.22l.17,4L83,165.79l2.71-.92.05-2.35" transform="translate(0 0)" style="fill:#4097ff"/><polygon id="Fill-225" points="83.69 162.32 85.75 164.19 85.8 162.48 83.69 162.32" style="fill:#3e25a7"/><path id="Fill-227" d="M80.09,160.53s-.87-6.59,3.87-6.22,3.91,6.1,2.84,7.5-3.29.44-3.29.44Z" transform="translate(0 0)" style="fill:#4097ff"/><path id="Fill-229" d="M85.79,157.64a9.18,9.18,0,0,0,3.57.79c1.45-.06,3.8-5,1.29-6s-11.71-1.5-11.3,4.89,1,5,1,5h.38s0-3.55.8-4.52,3.65-.39,4.26-.16" transform="translate(0 0)" style="fill:#3e25a7"/><path id="Fill-231" d="M81.49,159.23a.58.58,0,0,1-1.14-.22.56.56,0,0,1,.66-.46h0a.58.58,0,0,1,.46.68h0" transform="translate(0 0)" style="fill:#4097ff"/><path id="Fill-233" d="M80.23,163.86l-.61.76s.12,1.72,3.55,1.53,3.23-1.9,3.23-1.9l-.63-.5s-.15,1.33-2.59,1.46-3-1.35-3-1.35" transform="translate(0 0)" style="fill:#b9d0f9"/><path id="Fill-235" d="M195.9,43c-1.35-2-4.91-.66-7.38-.59a65.21,65.21,0,0,0-6.78.37c-2.62.44-7-.55-8.2.46-1.87,1.58-1.44,8.59-.9,9.41s13.08.67,13.08.67,13.34.22,13.64-.71-.07-4.46-3.46-9.61" transform="translate(0 0)" style="fill:#b9d0f9"/><path id="Fill-237" d="M188.92,40c1.07-1.4,1.9-7.13-2.85-7.5s-3.86,6.22-3.86,6.22l.16,4L185.15,44l2.7-.92.06-2.35" transform="translate(0 0)" style="fill:#4097ff"/><polygon id="Fill-239" points="185.81 40.49 187.88 42.36 187.91 40.65 185.81 40.49" style="fill:#3e25a7"/><path id="Fill-241" d="M182.21,38.7s-.88-6.59,3.86-6.22,3.92,6.1,2.85,7.5-3.3.44-3.3.44Z" transform="translate(0 0)" style="fill:#4097ff"/><path id="Fill-243" d="M187.91,35.81a9.18,9.18,0,0,0,3.57.79c1.45-.06,3.79-5,1.29-6s-11.71-1.5-11.31,4.89,1,5,1,5h.38s-.06-3.55.79-4.52,3.65-.39,4.27-.16" transform="translate(0 0)" style="fill:#3e25a7"/><path id="Fill-245" d="M183.6,37.39a.57.57,0,1,1-.46-.67.56.56,0,0,1,.46.66h0" transform="translate(0 0)" style="fill:#4097ff"/><path id="Fill-247" d="M182.35,42l-.61.76s.12,1.72,3.54,1.53,3.24-1.9,3.24-1.9l-.64-.5s-.15,1.33-2.58,1.46-3-1.35-3-1.35" transform="translate(0 0)" style="fill:#b9d0f9"/><path id="Fill-249" d="M115.19,72.52a52.27,52.27,0,0,0-12.34-5.25,45.45,45.45,0,0,0-7-.09c-3.36.56-10.3,5.08-11.83,6.38a5.76,5.76,0,0,0-1.49,6.57c.7,1.05,16.83.86,16.83.86s17.16.29,17.55-.92,1-6-1.75-7.55" transform="translate(0 0)" style="fill:#b9d0f9"/><path id="Fill-251" d="M98.09,54.16c6.11-.47,5,8,5,8l-.21,5.11s-1.3,3.65-4,3.16a3.35,3.35,0,0,1-3-2.73l-.07-3" transform="translate(0 0)" style="fill:#4097ff"/><polygon id="Fill-253" points="98.44 64.47 95.78 66.88 95.73 64.68 98.44 64.47" style="fill:#3e25a7"/><path id="Fill-255" d="M103.63,62.88s1.13-8.48-5-8-5,7.85-3.66,9.65,4.24.56,4.24.56Z" transform="translate(0 0)" style="fill:#4097ff"/><path id="Fill-257" d="M101.51,60a.75.75,0,0,0,.87.59.74.74,0,0,0,.59-.86h0a.74.74,0,0,0-.84-.6h0a.75.75,0,0,0-.59.87" transform="translate(0 0)" style="fill:#4097ff"/><path id="Fill-259" d="M102.1,53C97,51.27,95,54.36,92.26,54.82S87,52.57,86.14,52.4c-1.1-.22,1.48,7.2,5,8s4.88.67,6.76-.89c0,0,0-1.07.39-1.45s1.64-.07,2.78.58c2,1.13,1.33,5.2,1.33,5.2h.6s6.13-8.45-.89-10.84" transform="translate(0 0)" style="fill:#3e25a7"/><path id="Fill-261" d="M145.1,42.07c2.23-1,7.81.78,7.81.78s.88.9,3.45.54c2-.28,6.16-.86,9.47,1.5,2,1.42-3.75,7.08-4.3,7.9s-14.1.73-14.41-.2-4.26-9.5-2-10.52" transform="translate(0 0)" style="fill:#b9d0f9"/><path id="Fill-263" d="M155.27,40.75s2,4.84,3.58,3.65c2.31-1.69,1-13.57-4-13.71-6.26-.18-8.76,12.82-4.64,13.52,2.78.47,4.84-5.29,4.84-5.29Z" transform="translate(0 0)" style="fill:#3e25a7"/><path id="Fill-265" d="M151,39.85c-1.07-1.4-1.9-7.13,2.85-7.5s3.86,6.21,3.86,6.21l-1.11,4.79a49.42,49.42,0,0,0-3.27,5.81c-.41,1-.46-6.31-.46-6.31V40.43" transform="translate(0 0)" style="fill:#4097ff"/><polygon id="Fill-267" points="154.24 40.17 152.88 41.81 152.88 40.93 154.24 40.17" style="fill:#3e25a7"/><path id="Fill-269" d="M157.75,38.56s.88-6.58-3.86-6.21-3.74,6-2.85,7.5c1.28,2.17,3.3.44,3.3.44Z" transform="translate(0 0)" style="fill:#4097ff"/><path id="Fill-271" d="M150.34,35.4s4.66-2.61,6,.59.53,4.9,1.28,5.25S159,36.81,159,36.81l-1.92-4.72-3-.49-2.44.73-1,1L150,34.76Z" transform="translate(0 0)" style="fill:#3e25a7"/><path id="Fill-273" d="M156.36,37.63a.58.58,0,1,0,1.16-.08l0-.14a.55.55,0,0,0-.65-.45h0a.57.57,0,0,0-.47.64v0" transform="translate(0 0)" style="fill:#4097ff"/><path id="Fill-275" d="M49.94,67.88c2.6-1.19,9.1.92,9.1.92s1,1,4,.62c2.37-.33,7.16-1,11,1.74,2.33,1.66-4.37,8.25-5,9.2s-16.42.86-16.77-.23-5-11.06-2.37-12.25" transform="translate(0 0)" style="fill:#b9d0f9"/><path id="Fill-277" d="M61.79,66.34S64.08,72,66,70.6c2.69-2,1.13-15.79-4.71-16C54,54.43,51,69.56,55.84,70.37c3.24.55,5.63-6.16,5.63-6.16Z" transform="translate(0 0)" style="fill:#3e25a7"/><path id="Fill-279" d="M56.87,65.3c-1.25-1.63-2.21-8.3,3.31-8.73s4.5,7.23,4.5,7.23l-1.29,5.58a58.27,58.27,0,0,0-3.81,6.76C59.1,77.34,59,68.8,59,68.8V66" transform="translate(0 0)" style="fill:#4097ff"/><polygon id="Fill-281" points="60.59 65.68 59.02 67.59 58.99 66.56 60.59 65.68" style="fill:#3e25a7"/><path id="Fill-283" d="M64.68,63.8s1-7.66-4.5-7.23-4.35,7-3.31,8.73c1.48,2.53,3.83.51,3.83.51Z" transform="translate(0 0)" style="fill:#4097ff"/><path id="Fill-285" d="M56.05,60.13s5.42-3,7,.68.61,5.71,1.49,6.11,1.61-5.16,1.61-5.16l-2.23-5.49-3.45-.57-2.83.85-1.15,1.2-.76,1.67Z" transform="translate(0 0)" style="fill:#3e25a7"/><path id="Fill-287" d="M63.05,62.72a.68.68,0,0,0,.79.53.67.67,0,0,0,.54-.78h0a.67.67,0,0,0-.84-.46.68.68,0,0,0-.49.71" transform="translate(0 0)" style="fill:#4097ff"/><path id="Fill-289" d="M128,12.59c2.23-1,7.81.78,7.81.78s.88.9,3.46.54c2-.28,6.15-.86,9.47,1.5,2,1.42-3.76,7.08-4.3,7.9s-14.11.74-14.41-.2-4.26-9.5-2-10.52" transform="translate(0 0)" style="fill:#b9d0f9"/><path id="Fill-291" d="M139.72,11.13s1.8,1.87,3.41.68c2.31-1.69-.41-10.45-5.43-10.6-6.26-.18-9.11,9.91-5,10.6,2.78.48,3.92-4.13,3.92-4.13Z" transform="translate(0 0)" style="fill:#3e25a7"/><path id="Fill-293" d="M133.94,10.37c-1.07-1.4-1.9-7.13,2.84-7.5s3.87,6.22,3.87,6.22l-1.11,4.79A5.27,5.27,0,0,1,137,15.2c-1.1,0-1.17-1.83-1.17-1.83L135.75,11" transform="translate(0 0)" style="fill:#4097ff"/><polygon id="Fill-295" points="137.13 10.7 135.78 12.34 135.76 11.46 137.13 10.7" style="fill:#3e25a7"/><path id="Fill-297" d="M140.65,9.09s.87-6.59-3.87-6.22-3.73,6-2.84,7.5c1.27,2.17,3.29.44,3.29.44Z" transform="translate(0 0)" style="fill:#4097ff"/><path id="Fill-299" d="M133.23,5.93s4.66-2.61,6,.58.52,4.91,1.27,5.25,2-4.63,2-4.63L140,2.61l-3-.49-2.44.73-1,1L133,5.32Z" transform="translate(0 0)" style="fill:#3e25a7"/><path id="Fill-301" d="M139.25,8.15a.58.58,0,1,0,1.14-.2.57.57,0,0,0-.67-.47h0a.58.58,0,0,0-.46.67" transform="translate(0 0)" style="fill:#4097ff"/><path id="Fill-303" d="M165.05,12.72c2.23-1,10.53.2,10.53.2s1.1.14,2.6.39c2.61.44,6.41,1.22,7.61,2.23,1.87,1.58,2,6.82,1.48,7.64s-13.08.67-13.08.67-13.34.23-13.64-.71,2.27-9.4,4.5-10.42" transform="translate(0 0)" style="fill:#b9d0f9"/><path id="Fill-305" d="M171,10.5c-1.07-1.4-1.9-7.12,2.84-7.5s3.86,6.22,3.86,6.22l-.16,4-2.77,1.25-2.71-.92L172,11.17" transform="translate(0 0)" style="fill:#4097ff"/><polygon id="Fill-307" points="174.1 11.01 172.04 12.88 172 11.17 174.1 11.01" style="fill:#3e25a7"/><path id="Fill-309" d="M177.7,9.22s.88-6.59-3.86-6.22-3.92,6.1-2.84,7.5,3.29.44,3.29.44Z" transform="translate(0 0)" style="fill:#4097ff"/><path id="Fill-311" d="M177.64,11.47s3.44-.72,2.61-2.76.89-2.43.13-3.93S178.94,3.67,178,2.72,177.68.31,175.46,0s-3.05,1.39-3.92,1.74-2.77.2-3.29,1.67.56,2.33.44,3.42,2.49,2.18,3.13.27,5.19-2.68,5.24,1.58.58,2.76.58,2.76" transform="translate(0 0)" style="fill:#3e25a7"/><path id="Fill-313" d="M176.5,7.55a.58.58,0,0,0,1.16-.08l0-.14a.58.58,0,1,0-1.16.08l0,.14" transform="translate(0 0)" style="fill:#4097ff"/><path id="Fill-315" d="M177.57,12.55l.61.76s-.12,1.72-3.55,1.53-2.94-2.36-2.94-2.36H172s.15,1.33,2.58,1.46,3-1.35,3-1.35" transform="translate(0 0)" style="fill:#b9d0f9"/><path id="Fill-317" d="M215.93,14.78c-1.82-.84-8.59.17-8.59.17s-.9.11-2.12.31c-2.13.36-5.23,1-6.2,1.82-1.53,1.29-1.66,5.56-1.21,6.23s10.66.55,10.66.55,10.88.18,11.12-.59-1.84-7.65-3.66-8.49" transform="translate(0 0)" style="fill:#b9d0f9"/><path id="Fill-319" d="M211.08,13c.87-1.14,1.55-5.81-2.32-6.11S205.61,12,205.61,12l.13,3.23,2.26,1,2.21-.75V13.53" transform="translate(0 0)" style="fill:#4097ff"/><polygon id="Fill-321" points="208.54 13.39 210.22 14.91 210.25 13.52 208.54 13.39" style="fill:#3e25a7"/><path id="Fill-323" d="M205.61,11.92s-.72-5.37,3.15-5.06,3.19,5,2.32,6.11-2.69.36-2.69.36Z" transform="translate(0 0)" style="fill:#4097ff"/><path id="Fill-325" d="M205.67,13.51s-.46,1.71-1.62.89-1.5-8,1.29-8.85S212.56,5,213,7.7s-1.06,4-1.27,3.12c-.52-2.26-4.35-1.45-4.93-1.13s-1.13,3.82-1.13,3.82" transform="translate(0 0)" style="fill:#3e25a7"/><path id="Fill-327" d="M206.59,11.16a.46.46,0,0,1-.54.38h0a.47.47,0,1,1,.18-.93.47.47,0,0,1,.37.55" transform="translate(0 0)" style="fill:#4097ff"/><path id="Fill-329" d="M205.72,14.64l-.5.62s.1,1.41,2.89,1.25,2.4-1.93,2.4-1.93h-.28s-.12,1.09-2.1,1.19-2.41-1.1-2.41-1.1" transform="translate(0 0)" style="fill:#b9d0f9"/><path id="Fill-331" d="M89.48,194.29a35.16,35.16,0,0,0-8.21-3.49,29.94,29.94,0,0,0-4.64-.06c-2.24.38-6.85,3.38-7.87,4.25a3.8,3.8,0,0,0-1,4.37c.46.7,11.19.57,11.19.57s11.42.19,11.68-.61.66-4-1.16-5" transform="translate(0 0)" style="fill:#b9d0f9"/><path id="Fill-333" d="M78.1,182.08c4.06-.32,3.31,5.32,3.31,5.32l-.14,3.4s-.87,2.43-2.7,2.11a2.23,2.23,0,0,1-2-1.82v-2" transform="translate(0 0)" style="fill:#4097ff"/><polygon id="Fill-335" points="78.33 188.94 76.56 190.54 76.53 189.08 78.33 188.94" style="fill:#3e25a7"/><path id="Fill-337" d="M81.78,187.88s.76-5.64-3.3-5.32S75.12,187.78,76,189s2.82.37,2.82.37Z" transform="translate(0 0)" style="fill:#4097ff"/><path id="Fill-339" d="M80.38,186a.48.48,0,0,0,.55.4h0a.49.49,0,0,0,.39-.57h0a.5.5,0,0,0-.58-.39.48.48,0,0,0-.4.55v0" transform="translate(0 0)" style="fill:#4097ff"/><path id="Fill-341" d="M80.77,181.28c-3.37-1.15-4.71.9-6.55,1.21s-3.49-1.49-4.07-1.61c-.73-.14,1,4.79,3.36,5.33s3.24.44,4.5-.59a1.89,1.89,0,0,1,.26-1c.26-.28,1.09-.05,1.85.38,1.33.76.88,3.46.88,3.46h.36s4.08-5.62-.59-7.21" transform="translate(0 0)" style="fill:#3e25a7"/><path id="Fill-343" d="M119.4,191.1c-1.16-1.76-4.2-.57-6.32-.51a56.4,56.4,0,0,0-5.81.32c-2.23.37-6-.47-7,.39-1.61,1.35-1.24,7.35-.77,8s11.19.58,11.19.58,11.42.19,11.68-.61-.06-3.82-3-8.22" transform="translate(0 0)" style="fill:#b9d0f9"/><path id="Fill-345" d="M113.42,188.5c.92-1.2,1.62-6.1-2.43-6.42s-3.31,5.32-3.31,5.32l.14,3.4,2.37,1.07,2.32-.78,0-2" transform="translate(0 0)" style="fill:#4097ff"/><polygon id="Fill-347" points="110.77 188.94 112.53 190.54 112.56 189.08 110.77 188.94" style="fill:#3e25a7"/><path id="Fill-349" d="M107.68,187.4s-.75-5.64,3.31-5.32,3.35,5.22,2.43,6.42-2.82.38-2.82.38Z" transform="translate(0 0)" style="fill:#4097ff"/><path id="Fill-351" d="M112.56,184.93a8,8,0,0,0,3,.68c1.24-.06,3.25-4.28,1.1-5.17s-10-1.28-9.67,4.18.86,4.32.86,4.32h.32s0-3,.68-3.87,3.13-.33,3.66-.14" transform="translate(0 0)" style="fill:#3e25a7"/><path id="Fill-353" d="M108.87,186.29a.48.48,0,0,1-.58.38.49.49,0,0,1-.38-.58.49.49,0,0,1,.57-.38.5.5,0,0,1,.39.58" transform="translate(0 0)" style="fill:#4097ff"/><path id="Fill-355" d="M107.8,190.25l-.53.66s.1,1.47,3,1.31,2.77-1.63,2.77-1.63l-.55-.43s-.13,1.14-2.21,1.25-2.52-1.16-2.52-1.16" transform="translate(0 0)" style="fill:#b9d0f9"/><path id="Fill-357" d="M132.35,190.29c1.91-.88,6.69.67,6.69.67s.75.77,3,.46c1.74-.24,5.27-.74,8.1,1.28,1.72,1.22-3.21,6.06-3.68,6.77s-12.07.62-12.33-.18-3.65-8.13-1.74-9" transform="translate(0 0)" style="fill:#b9d0f9"/><path id="Fill-359" d="M142.4,189s1.53,1.6,2.91.59c2-1.45-.35-9-4.65-9.08-5.36-.16-7.79,8.48-4.27,9.08,2.39.4,3.36-3.55,3.36-3.55Z" transform="translate(0 0)" style="fill:#3e25a7"/><path id="Fill-361" d="M137.44,188.39c-.91-1.2-1.62-6.1,2.44-6.42s3.31,5.32,3.31,5.32l-.95,4.1a4.43,4.43,0,0,1-2.2,1.13c-.94,0-1-1.56-1-1.56v-2.07" transform="translate(0 0)" style="fill:#4097ff"/><polygon id="Fill-363" points="140.18 188.67 139.03 190.07 139 189.32 140.18 188.67" style="fill:#3e25a7"/><path id="Fill-365" d="M143.19,187.29s.75-5.64-3.31-5.32-3.2,5.12-2.44,6.42c1.09,1.86,2.82.37,2.82.37Z" transform="translate(0 0)" style="fill:#4097ff"/><path id="Fill-367" d="M136.84,184.59s4-2.24,5.16.49.45,4.2,1.09,4.5,1.69-4,1.69-4l-2.14-3.87-2.54-.42L138,182l-.85.88-.55,1.22Z" transform="translate(0 0)" style="fill:#3e25a7"/><path id="Fill-369" d="M142,186.49a.48.48,0,0,0,.55.4h0a.5.5,0,0,0,.4-.58.51.51,0,0,0-.58-.39.5.5,0,0,0-.4.58" transform="translate(0 0)" style="fill:#4097ff"/><g id="Group-373"><path id="Fill-371" d="M164.07,190.4c1.92-.88,9,.17,9,.17s.94.12,2.22.34c2.24.37,5.49,1,6.52,1.91,1.6,1.35,1.73,5.83,1.27,6.54s-11.2.57-11.2.57-11.42.19-11.68-.61,1.94-8,3.85-8.92" transform="translate(0 0)" style="fill:#b9d0f9"/></g><path id="Fill-374" d="M169.17,188.5c-.92-1.2-1.63-6.1,2.43-6.42s3.31,5.32,3.31,5.32l-.14,3.4-2.38,1.07-2.32-.78v-2" transform="translate(0 0)" style="fill:#4097ff"/><polygon id="Fill-376" points="171.82 188.94 170.06 190.54 170.03 189.08 171.82 188.94" style="fill:#3e25a7"/><path id="Fill-378" d="M174.91,187.4s.75-5.64-3.31-5.32-3.35,5.22-2.43,6.42,2.81.38,2.81.38Z" transform="translate(0 0)" style="fill:#4097ff"/><path id="Fill-380" d="M174.86,189.33s2.94-.62,2.22-2.36.77-2.08.12-3.37-1.23-.95-2-1.76-.31-2.06-2.21-2.3-2.6,1.18-3.35,1.49-2.37.17-2.81,1.42.47,2,.37,2.93,2.14,1.87,2.68.23a2.38,2.38,0,0,1,4.49,1.36c0,3.65.5,2.36.5,2.36" transform="translate(0 0)" style="fill:#3e25a7"/><path id="Fill-382" d="M173.87,186a.49.49,0,0,0,.57.39h0a.48.48,0,0,0,.38-.58.49.49,0,0,0-.58-.38.49.49,0,0,0-.38.57" transform="translate(0 0)" style="fill:#4097ff"/><path id="Fill-384" d="M174.79,190.25l.52.66s-.1,1.47-3,1.31-2.52-2-2.52-2h.29s.13,1.14,2.21,1.25,2.53-1.16,2.53-1.16" transform="translate(0 0)" style="fill:#b9d0f9"/><g id="Group-388"><path id="Fill-386" d="M211.18,190.4c-1.91-.88-9,.17-9,.17s-1,.12-2.23.34c-2.23.37-5.49,1-6.51,1.91-1.61,1.35-1.74,5.83-1.27,6.54s11.2.57,11.2.57,11.41.19,11.67-.61-1.94-8-3.85-8.92" transform="translate(0 0)" style="fill:#b9d0f9"/></g><path id="Fill-389" d="M206.09,188.5c.92-1.2,1.63-6.1-2.43-6.42s-3.31,5.32-3.31,5.32l.14,3.4,2.37,1.07,2.32-.78v-2" transform="translate(0 0)" style="fill:#4097ff"/><polygon id="Fill-391" points="203.44 188.94 205.19 190.54 205.24 189.08 203.44 188.94" style="fill:#3e25a7"/><path id="Fill-393" d="M200.35,187.4s-.75-5.64,3.31-5.32,3.35,5.22,2.43,6.42-2.82.38-2.82.38Z" transform="translate(0 0)" style="fill:#4097ff"/><path id="Fill-395" d="M200.42,189.06s-.49,1.81-1.71.94-1.57-8.42,1.36-9.29,7.58-.63,8,2.26-1.12,4.18-1.33,3.27c-.55-2.37-4.57-1.52-5.18-1.19s-1.18,4-1.18,4" transform="translate(0 0)" style="fill:#3e25a7"/><path id="Fill-397" d="M201.38,186.61a.5.5,0,0,1-.58.39.48.48,0,0,1-.38-.58A.49.49,0,0,1,201,186a.49.49,0,0,1,.38.57" transform="translate(0 0)" style="fill:#4097ff"/><path id="Fill-399" d="M200.47,190.25l-.53.66s.11,1.47,3,1.31,2.52-2,2.52-2h-.3s-.13,1.14-2.21,1.25-2.52-1.16-2.52-1.16" transform="translate(0 0)" style="fill:#b9d0f9"/><path id="Fill-401" d="M151.24,66c-3.09-1.42-14.59.28-14.59.28s-1.52.19-3.59.53c-3.62.61-8.88,1.7-10.54,3.09-2.6,2.19-2.81,9.44-2,10.58s18.11.93,18.11.93,18.47.31,18.89-1-3.14-13-6.23-14.42" transform="translate(0 0)" style="fill:#b9d0f9"/><path id="Fill-403" d="M143,62.89c1.48-1.93,2.63-9.86-3.94-10.38s-5.36,8.61-5.36,8.61l.23,5.49,3.84,1.74,3.75-1.28.08-3.25" transform="translate(0 0)" style="fill:#4097ff"/><polygon id="Fill-405" points="138.71 63.6 141.56 66.19 141.62 63.82 138.71 63.6" style="fill:#3e25a7"/><path id="Fill-407" d="M133.71,61.12s-1.21-9.13,5.36-8.61S144.49,61,143,62.89s-4.57.61-4.57.61Z" transform="translate(0 0)" style="fill:#4097ff"/><path id="Fill-409" d="M133.83,63.8s-.79,2.92-2.76,1.51-2.54-13.62,2.19-15,12.27-1,13,3.66-1.8,6.76-2.14,5.3c-.9-3.84-7.4-2.46-8.38-1.92s-1.91,6.48-1.91,6.48" transform="translate(0 0)" style="fill:#3e25a7"/><path id="Fill-411" d="M135.39,59.83a.81.81,0,1,1-.65-.94h0a.8.8,0,0,1,.64.93h0" transform="translate(0 0)" style="fill:#4097ff"/><path id="Fill-413" d="M133.91,65.72l-.85,1.06s.17,2.39,4.91,2.12,4.08-3.27,4.08-3.27h-.48s-.21,1.84-3.57,2-4.09-1.88-4.09-1.88" transform="translate(0 0)" style="fill:#b9d0f9"/><path id="Fill-415" d="M236.14,75.43A34.08,34.08,0,0,1,244.25,72a29.31,29.31,0,0,1,4.59-.06c2.21.37,6.76,3.34,7.78,4.19a3.79,3.79,0,0,1,1,4.32c-.46.7-11.07.57-11.07.57s-11.28.19-11.54-.61-.65-3.92,1.15-5" transform="translate(0 0)" style="fill:#b9d0f9"/><path id="Fill-417" d="M247.38,63.36c-4-.32-3.27,5.26-3.27,5.26l.14,3.36s.85,2.4,2.67,2.08a2.21,2.21,0,0,0,2-1.8v-2" transform="translate(0 0)" style="fill:#4097ff"/><polygon id="Fill-419" points="247.16 70.14 248.91 71.72 248.94 70.27 247.16 70.14" style="fill:#3e25a7"/><path id="Fill-421" d="M243.74,69.09S243,63.51,247,63.83s3.31,5.16,2.41,6.34-2.79.38-2.79.38Z" transform="translate(0 0)" style="fill:#4097ff"/><path id="Fill-423" d="M245.13,67.2a.47.47,0,0,1-.55.39h0a.49.49,0,0,1,.18-1,.49.49,0,0,1,.39.57h0" transform="translate(0 0)" style="fill:#4097ff"/><path id="Fill-425" d="M244.75,62.56c3.32-1.13,4.65.9,6.47,1.2s3.45-1.47,4-1.59-1,4.74-3.32,5.26-3.21.44-4.45-.58c0,0,0-.71-.25-.95s-1.08-.05-1.83.37c-1.32.75-.87,3.43-.87,3.43h-.36s-4-5.56.59-7.14" transform="translate(0 0)" style="fill:#3e25a7"/><path id="Fill-427" d="M200.11,139.05a44.44,44.44,0,0,1,10.5-4.47,37.86,37.86,0,0,1,5.93-.07c2.86.48,8.76,4.32,10.06,5.43a4.86,4.86,0,0,1,1.27,5.58c-.59.9-14.31.74-14.31.74s-14.6.24-14.94-.79-.83-5.07,1.49-6.42" transform="translate(0 0)" style="fill:#b9d0f9"/><path id="Fill-429" d="M214.66,123.43c-5.2-.4-4.23,6.81-4.23,6.81l.18,4.34s1.1,3.11,3.45,2.69a2.85,2.85,0,0,0,2.55-2.32l.06-2.57" transform="translate(0 0)" style="fill:#4097ff"/><polygon id="Fill-431" points="214.38 132.2 216.63 134.25 216.68 132.38 214.38 132.2" style="fill:#3e25a7"/><path id="Fill-433" d="M210,130.85s-1-7.22,4.23-6.81,4.28,6.68,3.11,8.21-3.6.48-3.6.48Z" transform="translate(0 0)" style="fill:#4097ff"/><path id="Fill-435" d="M211.75,128.41a.64.64,0,1,1-.45-.67.64.64,0,0,1,.45.67" transform="translate(0 0)" style="fill:#4097ff"/><path id="Fill-437" d="M211.25,122.41c4.3-1.47,6,1.16,8.37,1.54s4.46-1.9,5.21-2c.93-.18-1.26,6.12-4.3,6.81s-4.15.56-5.75-.76c0,0,0-.92-.33-1.23s-1.4-.07-2.37.48c-1.71,1-1.13,4.43-1.13,4.43h-.46s-5.22-7.19.76-9.22" transform="translate(0 0)" style="fill:#3e25a7"/><path id="Fill-439" d="M257.84,135.91c-2-.94-7.18.72-7.18.72s-.81.82-3.18.5c-1.87-.26-5.65-.8-8.7,1.37-1.84,1.31,3.45,6.51,4,7.26s13,.68,13.24-.18,3.92-8.73,1.87-9.67" transform="translate(0 0)" style="fill:#b9d0f9"/><path id="Fill-441" d="M248.48,134.7s-1.8,4.44-3.28,3.36c-2.13-1.56-.9-12.47,3.72-12.61,5.75-.16,8.05,11.78,4.27,12.43-2.56.43-4.45-4.87-4.45-4.87Z" transform="translate(0 0)" style="fill:#3e25a7"/><path id="Fill-443" d="M252.37,133.87c1-1.29,1.75-6.55-2.61-6.89s-3.55,5.71-3.55,5.71l1,4.4a45.87,45.87,0,0,1,3,5.34c.38.95.43-5.8.43-5.8V134.4" transform="translate(0 0)" style="fill:#4097ff"/><polygon id="Fill-445" points="249.44 134.17 250.69 135.68 250.71 134.87 249.44 134.17" style="fill:#3e25a7"/><path id="Fill-447" d="M246.21,132.69s-.81-6,3.55-5.71,3.43,5.49,2.61,6.89c-1.17,2-3,.4-3,.4Z" transform="translate(0 0)" style="fill:#4097ff"/><path id="Fill-449" d="M253,129.79s-4.28-2.4-5.54.53-.48,4.51-1.17,4.83-1.27-4.07-1.27-4.07l1.76-4.34,2.72-.45,2.24.68.9.94.6,1.32Z" transform="translate(0 0)" style="fill:#3e25a7"/><path id="Fill-451" d="M247.49,131.83a.53.53,0,0,1-.63.42.53.53,0,0,1-.42-.62.53.53,0,0,1,.63-.42.53.53,0,0,1,.42.62" transform="translate(0 0)" style="fill:#4097ff"/><path id="Fill-453" d="M275.06,101.88c-2.06-.95-7.22.72-7.22.72s-.82.83-3.2.5c-1.88-.26-5.69-.8-8.75,1.38-1.85,1.32,3.47,6.55,4,7.31s13,.68,13.32-.19,3.94-8.78,1.88-9.72" transform="translate(0 0)" style="fill:#b9d0f9"/><path id="Fill-455" d="M264.21,100.53s-1.65,1.73-3.14.63c-2.14-1.56.37-9.67,5-9.8,5.78-.17,8.41,9.16,4.6,9.8-2.57.44-3.62-3.82-3.62-3.82Z" transform="translate(0 0)" style="fill:#3e25a7"/><path id="Fill-457" d="M269.56,99.83c1-1.3,1.76-6.59-2.63-6.94s-3.57,5.75-3.57,5.75l1,4.43a4.88,4.88,0,0,0,2.36,1.22c1,0,1.09-1.69,1.09-1.69l.05-2.24" transform="translate(0 0)" style="fill:#4097ff"/><polygon id="Fill-459" points="266.62 100.13 267.87 101.64 267.88 100.83 266.62 100.13" style="fill:#3e25a7"/><path id="Fill-461" d="M263.36,98.64s-.81-6.09,3.57-5.75,3.46,5.53,2.63,6.94c-1.18,2-3,.4-3,.4Z" transform="translate(0 0)" style="fill:#4097ff"/><path id="Fill-463" d="M270.21,95.72s-4.31-2.42-5.57.54-.48,4.53-1.18,4.85-1.82-4.28-1.82-4.28L264,92.66l2.74-.46,2.25.68.91,1,.6,1.32Z" transform="translate(0 0)" style="fill:#3e25a7"/><path id="Fill-465" d="M264.65,97.78a.52.52,0,0,1-.62.42h0a.52.52,0,0,1-.42-.6v0a.52.52,0,0,1,.61-.43h0a.55.55,0,0,1,.43.63" transform="translate(0 0)" style="fill:#4097ff"/><path id="Fill-467" d="M238.66,98.84c-2.69-1.24-12.72.25-12.72.25s-1.33.16-3.13.46c-3.15.53-7.75,1.48-9.19,2.7-2.26,1.91-2.45,8.23-1.79,9.22s15.79.81,15.79.81,16.11.27,16.48-.86-2.74-11.34-5.44-12.58" transform="translate(0 0)" style="fill:#b9d0f9"/><path id="Fill-469" d="M231.48,96.16c1.29-1.69,2.29-8.6-3.43-9s-4.67,7.5-4.67,7.5l.2,4.79,3.35,1.52,3.27-1.11.06-2.84" transform="translate(0 0)" style="fill:#4097ff"/><polygon id="Fill-471" points="227.74 96.78 230.22 99.04 230.26 96.97 227.74 96.78" style="fill:#3e25a7"/><path id="Fill-473" d="M223.38,94.61s-1.06-8,4.67-7.5,4.72,7.36,3.43,9-4,.53-4,.53Z" transform="translate(0 0)" style="fill:#4097ff"/><path id="Fill-475" d="M223.45,97.33s-4.14-.87-3.14-3.33-1.08-2.93-.16-4.75,1.74-1.33,2.84-2.48.43-2.92,3.1-3.25,3.68,1.67,4.73,2.1,3.35.24,4,2-.67,2.82-.52,4.13-3,2.63-3.78.33-6.27-3.23-6.34,1.91-.7,3.33-.7,3.33" transform="translate(0 0)" style="fill:#3e25a7"/><path id="Fill-477" d="M224.84,92.59a.7.7,0,0,1-.82.56h0a.7.7,0,1,1,.82-.56" transform="translate(0 0)" style="fill:#4097ff"/><path id="Fill-479" d="M223.55,98.63l-.74.93s.14,2.07,4.28,1.84,3.56-2.85,3.56-2.85h-.42s-.18,1.61-3.12,1.77-3.56-1.64-3.56-1.64" transform="translate(0 0)" style="fill:#b9d0f9"/><path id="Fill-481" d="M202.29,70.58c1.37-2.07,5-.67,7.46-.6a67.24,67.24,0,0,1,6.85.37c2.64.44,7.07-.56,8.28.46,1.89,1.6,1.45,8.68.91,9.51s-13.22.67-13.22.67-13.47.23-13.77-.72.07-4.5,3.49-9.69" transform="translate(0 0)" style="fill:#b9d0f9"/><path id="Fill-483" d="M209.35,67.51c-1.08-1.41-1.92-7.2,2.87-7.57s3.9,6.28,3.9,6.28l-.16,4-2.8,1.27-2.74-.93V68.19" transform="translate(0 0)" style="fill:#4097ff"/><polygon id="Fill-485" points="212.5 68.03 210.41 69.92 210.38 68.19 212.5 68.03" style="fill:#3e25a7"/><path id="Fill-487" d="M216.12,66.22s.89-6.66-3.9-6.28-3.95,6.16-2.87,7.57,3.32.45,3.32.45Z" transform="translate(0 0)" style="fill:#4097ff"/><path id="Fill-489" d="M210.37,63.3a9.52,9.52,0,0,1-3.6.8c-1.47-.07-3.84-5-1.31-6.11s11.83-1.5,11.42,4.94-1,5.1-1,5.1h-.38s.05-3.59-.8-4.57-3.69-.39-4.31-.16" transform="translate(0 0)" style="fill:#3e25a7"/><path id="Fill-491" d="M214.72,64.9a.56.56,0,0,0,.66.46h0a.56.56,0,0,0,.46-.66v0a.58.58,0,0,0-1.14.22" transform="translate(0 0)" style="fill:#4097ff"/><path id="Fill-493" d="M216,69.58l.62.77s-.12,1.74-3.58,1.54S209.75,70,209.75,70l.65-.51s.15,1.34,2.6,1.48,3-1.37,3-1.37" transform="translate(0 0)" style="fill:#b9d0f9"/><path id="Fill-495" d="M20.89,140.19a38.06,38.06,0,0,1,8.84-3.76,32.09,32.09,0,0,1,5-.06c2.4.4,7.37,3.64,8.47,4.57a4.11,4.11,0,0,1,1.07,4.7c-.5.76-12,.62-12,.62s-12.3.21-12.58-.66-.7-4.27,1.25-5.41" transform="translate(0 0)" style="fill:#b9d0f9"/><path id="Fill-497" d="M33.14,127.05c-4.37-.35-3.56,5.72-3.56,5.72l.15,3.66s.93,2.62,2.91,2.27a2.4,2.4,0,0,0,2.14-2v-2.16" transform="translate(0 0)" style="fill:#4097ff"/><polygon id="Fill-499" points="32.91 134.43 34.8 136.15 34.84 134.58 32.91 134.43" style="fill:#3e25a7"/><path id="Fill-501" d="M29.18,133.29s-.81-6.07,3.56-5.73,3.61,5.62,2.62,6.91-3,.4-3,.4Z" transform="translate(0 0)" style="fill:#4097ff"/><path id="Fill-503" d="M30.69,131.23a.53.53,0,0,1-.49.57.53.53,0,0,1-.57-.49.71.71,0,0,1,.06-.28.53.53,0,0,1,.49-.57.53.53,0,0,1,.57.49.71.71,0,0,1-.06.28" transform="translate(0 0)" style="fill:#4097ff"/><path id="Fill-505" d="M30.27,126.18c3.63-1.23,5.07,1,7,1.3s3.76-1.6,4.38-1.72c.79-.16-1.06,5.15-3.62,5.72s-3.49.48-4.84-.63c0,0,0-.77-.28-1s-1.17,0-2,.41c-1.44.81-1,3.73-1,3.73h-.38s-4.4-6.06.63-7.77" transform="translate(0 0)" style="fill:#3e25a7"/><path id="Fill-507" d="M66.83,98.84c-2.69-1.24-12.71.25-12.71.25s-1.34.16-3.14.46c-3.15.53-7.74,1.48-9.19,2.7-2.26,1.91-2.45,8.23-1.79,9.22s15.8.81,15.8.81,16.1.27,16.47-.86-2.74-11.34-5.44-12.58" transform="translate(0 0)" style="fill:#b9d0f9"/><path id="Fill-509" d="M59.65,96.16c1.3-1.69,2.3-8.6-3.43-9s-4.67,7.5-4.67,7.5l.2,4.79L55.1,101l3.27-1.11L58.44,97" transform="translate(0 0)" style="fill:#4097ff"/><polygon id="Fill-511" points="55.91 96.78 58.4 99.04 58.45 96.97 55.91 96.78" style="fill:#3e25a7"/><path id="Fill-513" d="M51.55,94.61s-1.06-8,4.67-7.5,4.73,7.36,3.43,9-4,.53-4,.53Z" transform="translate(0 0)" style="fill:#4097ff"/><path id="Fill-515" d="M51.63,97.33s-4.15-.87-3.15-3.33-1.08-2.93-.15-4.75,1.73-1.33,2.83-2.48.43-2.92,3.1-3.25,3.68,1.67,4.74,2.1,3.34.24,4,2-.67,2.82-.52,4.13-3,2.63-3.78.33S52.43,88.85,52.37,94s-.7,3.33-.7,3.33" transform="translate(0 0)" style="fill:#3e25a7"/><path id="Fill-517" d="M53,92.59a.7.7,0,1,1-1.37-.27.7.7,0,0,1,.82-.55h0a.7.7,0,0,1,.55.82" transform="translate(0 0)" style="fill:#4097ff"/><path id="Fill-519" d="M51.72,98.63l-.74.93s.15,2.07,4.28,1.84,3.56-2.85,3.56-2.85H58.4s-.18,1.61-3.12,1.77-3.56-1.64-3.56-1.64" transform="translate(0 0)" style="fill:#b9d0f9"/><path id="Fill-521" d="M4.35,101.58c2.15-1,10.13.2,10.13.2s1.06.13,2.5.37c2.51.42,6.17,1.18,7.31,2.15,1.81,1.52,2,6.55,1.43,7.34s-12.58.65-12.58.65S.32,112.5,0,111.6s2.18-9,4.33-10" transform="translate(0 0)" style="fill:#b9d0f9"/><path id="Fill-523" d="M10.07,99.45c-1-1.35-1.83-6.85,2.74-7.21s3.71,6,3.71,6L16.36,102l-2.66,1.21-2.61-.89L11,100.1" transform="translate(0 0)" style="fill:#4097ff"/><polygon id="Fill-525" points="13.06 99.94 11.09 101.74 11.04 100.09 13.06 99.94" style="fill:#3e25a7"/><path id="Fill-527" d="M16.52,98.22s.85-6.34-3.71-6S9,98.08,10.07,99.43s3.17.42,3.17.42Z" transform="translate(0 0)" style="fill:#4097ff"/><path id="Fill-529" d="M16.44,100.08s.55,2,1.92,1,1.76-9.46-1.52-10.44-8.53-.7-9,2.54,1.25,4.7,1.48,3.68c.63-2.66,5.14-1.71,5.83-1.33s1.32,4.5,1.32,4.5" transform="translate(0 0)" style="fill:#3e25a7"/><path id="Fill-531" d="M15.36,97.32a.56.56,0,0,0,.65.45.56.56,0,1,0-.2-1.1h0a.56.56,0,0,0-.44.65" transform="translate(0 0)" style="fill:#4097ff"/><path id="Fill-533" d="M16.39,101.42l.59.73s-.12,1.66-3.41,1.47-2.83-2.27-2.83-2.27h.33s.14,1.28,2.48,1.41,2.84-1.3,2.84-1.3" transform="translate(0 0)" style="fill:#b9d0f9"/><path id="Fill-535" d="M16.36,71.55c1.23-1.88,4.49-.61,6.75-.54q3.12,0,6.22.33c2.39.41,6.41-.5,7.5.42,1.72,1.45,1.32,7.87.82,8.62s-12,.62-12,.62-12.22.2-12.5-.66.07-4.08,3.18-8.79" transform="translate(0 0)" style="fill:#b9d0f9"/><path id="Fill-537" d="M22.75,68.77c-1-1.28-1.74-6.52,2.61-6.87s3.53,5.7,3.53,5.7l-.15,3.63L26.2,72.38l-2.48-.84V69.39" transform="translate(0 0)" style="fill:#4097ff"/><polygon id="Fill-539" points="25.61 69.24 23.71 70.95 23.68 69.39 25.61 69.24" style="fill:#3e25a7"/><path id="Fill-541" d="M28.89,67.6s.81-6-3.54-5.69-3.58,5.58-2.6,6.86,3,.4,3,.4Z" transform="translate(0 0)" style="fill:#4097ff"/><path id="Fill-543" d="M23.67,65a8.55,8.55,0,0,1-3.26.73c-1.33-.06-3.48-4.58-1.18-5.54S30,58.78,29.58,64.62s-.92,4.62-.92,4.62h-.35s0-3.25-.73-4.14-3.34-.36-3.91-.15" transform="translate(0 0)" style="fill:#3e25a7"/><path id="Fill-545" d="M27.62,66.4a.52.52,0,0,0,.6.42h0a.53.53,0,0,0,.42-.62.54.54,0,0,0-.62-.42.53.53,0,0,0-.42.62" transform="translate(0 0)" style="fill:#4097ff"/><path id="Fill-547" d="M28.77,70.64l.56.7s-.11,1.58-3.25,1.41-3-1.74-3-1.74l.58-.46s.14,1.21,2.36,1.34,2.71-1.25,2.71-1.25" transform="translate(0 0)" style="fill:#b9d0f9"/><path id="Fill-549" d="M130.76,101.13a69.36,69.36,0,0,0-16.23-6.9s-6.64-.54-9.17-.12c-4.41.74-13.53,6.69-15.55,8.39-3.17,2.68-2.88,7.25-2,8.64S110,112.27,110,112.27s22.56.38,23.07-1.21,1.3-7.84-2.29-9.93" transform="translate(0 0)" style="fill:#b9d0f9"/><path id="Fill-551" d="M108.28,77c8-.63,6.53,10.52,6.53,10.52l-.28,6.71s-1.7,4.8-5.33,4.16a4.42,4.42,0,0,1-3.94-3.6l-.09-4" transform="translate(0 0)" style="fill:#4097ff"/><polygon id="Fill-553" points="108.72 90.55 105.25 93.72 105.17 90.82 108.72 90.55" style="fill:#3e25a7"/><path id="Fill-555" d="M115.55,88.46S117,77.31,109,77.94s-6.62,10.32-4.81,12.69,5.57.74,5.57.74Z" transform="translate(0 0)" style="fill:#4097ff"/><path id="Fill-557" d="M112.77,84.69a1,1,0,1,0,.81-1.16h0a1,1,0,0,0-.78,1.15" transform="translate(0 0)" style="fill:#4097ff"/><path id="Fill-559" d="M113.54,75.41c-6.65-2.26-9.3,1.79-12.94,2.4s-6.9-3-8-3.18c-1.45-.28,1.94,9.47,6.65,10.52s6.4.87,8.87-1.17c0,0,0-1.41.52-1.91s2.15-.09,3.66.76c2.64,1.49,1.74,6.84,1.74,6.84h.71s8.06-11.11-1.17-14.26" transform="translate(0 0)" style="fill:#3e25a7"/><path id="Fill-561" d="M186.34,95.62c-2.18-3.31-7.92-1.07-11.92-1a105.41,105.41,0,0,0-10.95.59c-4.21.71-11.29-.89-13.22.74-3,2.55-2.33,13.86-1.45,15.19s21.11,1.08,21.11,1.08,21.53.36,22-1.15-.11-7.19-5.59-15.5" transform="translate(0 0)" style="fill:#b9d0f9"/><path id="Fill-563" d="M175.07,90.72c1.73-2.26,3.06-11.5-4.59-12.1s-6.24,10-6.24,10L164.5,95,169,97l4.37-1.48.09-3.79" transform="translate(0 0)" style="fill:#4097ff"/><polygon id="Fill-565" points="170.06 91.55 173.38 94.57 173.44 91.81 170.06 91.55" style="fill:#3e25a7"/><path id="Fill-567" d="M164.24,88.65s-1.42-10.63,6.24-10,6.31,9.84,4.59,12.11-5.32.7-5.32.7Z" transform="translate(0 0)" style="fill:#4097ff"/><path id="Fill-569" d="M173.44,84a15,15,0,0,0,5.75,1.28c2.35-.11,6.13-8.06,2.09-9.75S162.38,73.1,163,83.4s1.63,8.15,1.63,8.15h.61s-.09-5.73,1.28-7.3,5.89-.63,6.89-.26" transform="translate(0 0)" style="fill:#3e25a7"/><path id="Fill-571" d="M166.49,86.55a.94.94,0,1,1-.76-1.09h0a.92.92,0,0,1,.75,1.08h0" transform="translate(0 0)" style="fill:#4097ff"/><path id="Fill-573" d="M164.46,94l-1,1.24s.2,2.78,5.73,2.47,5.22-3.06,5.22-3.06l-1-.82s-.24,2.15-4.16,2.36S164.48,94,164.48,94" transform="translate(0 0)" style="fill:#b9d0f9"/></g></g></svg>