<svg id="Réteg_1" data-name="Réteg 1" xmlns="http://www.w3.org/2000/svg" viewBox="0 0 539.72 425"><title>billing</title><g id="Main-page"><g id="ICF_Mainpage_Large" data-name="ICF Mainpage Large"><g id="Technology"><g id="Billing"><polygon id="Fill-1" points="0 362.73 473 362.73 473 31.73 0 31.73 0 362.73" style="fill:#3e25a7"/><polygon id="Fill-2" points="8 355.73 467 355.73 467 52.73 8 52.73 8 355.73" style="fill:#dfedf8"/><polygon id="Fill-3" points="6 355.73 57 355.73 57 52.73 6 52.73 6 355.73" style="fill:#ecf5fc"/><g id="Group-100"><path id="Fill-4" d="M23.45,97.17l7.86-7.86-7.86-7.86a11.12,11.12,0,0,0,0,15.72" transform="translate(0 0)" style="fill:#3e25a7"/><path id="Fill-6" d="M25,95.59A8.89,8.89,0,1,0,25,83h0a8.88,8.88,0,0,0,0,12.56h0" transform="translate(0 0)" style="fill:#4097ff"/><path id="Fill-8" d="M31.31,100.42a11.1,11.1,0,0,0,11.12-11.1H31.31Z" transform="translate(0 0)" style="fill:#3e25a7"/><path id="Fill-10" d="M31.31,78.2V89.31H42.43A11.1,11.1,0,0,0,31.32,78.2h0" transform="translate(0 0)" style="fill:#3e25a7"/><path id="Fill-12" d="M31.31,80.42a8.89,8.89,0,1,0,8.89,8.89,8.89,8.89,0,0,0-8.89-8.89" transform="translate(0 0)" style="fill:#4097ff"/><path id="Fill-14" d="M31.31,117.1a7.41,7.41,0,1,0,7.41,7.41h0a7.41,7.41,0,0,0-7.41-7.41h0" transform="translate(0 0)" style="fill:#dfedf8"/><path id="Fill-16" d="M31.31,138.83a7.41,7.41,0,1,0,7.41,7.41,7.41,7.41,0,0,0-7.41-7.41h0" transform="translate(0 0)" style="fill:#dfedf8"/><path id="Fill-18" d="M31.31,160.57A7.41,7.41,0,1,0,38.72,168h0a7.4,7.4,0,0,0-7.4-7.4h0" transform="translate(0 0)" style="fill:#dfedf8"/><path id="Fill-20" d="M31.31,182.3a7.41,7.41,0,1,0,7.41,7.43,7.41,7.41,0,0,0-7.41-7.43h0" transform="translate(0 0)" style="fill:#dfedf8"/><path id="Fill-22" d="M31.31,204a7.41,7.41,0,1,0,7.41,7.41A7.41,7.41,0,0,0,31.31,204h0" transform="translate(0 0)" style="fill:#dfedf8"/><path id="Fill-24" d="M31.31,321.83a7.41,7.41,0,1,0,7.41,7.41h0a7.4,7.4,0,0,0-7.4-7.4h0" transform="translate(0 0)" style="fill:#dfedf8"/><polygon id="Fill-26" points="28.7 85.31 35.08 89.17 28.7 93.02 28.7 85.31" style="fill:#3e25a7"/><path id="Fill-28" d="M11.45,42a2.23,2.23,0,1,1-2.23-2.24A2.23,2.23,0,0,1,11.45,42h0" transform="translate(0 0)" style="fill:#ecf5fc"/><path id="Fill-30" d="M19.09,42a2.22,2.22,0,1,1-2.22-2.24A2.22,2.22,0,0,1,19.09,42v0" transform="translate(0 0)" style="fill:#ecf5fc"/><path id="Fill-32" d="M26.45,42a2.23,2.23,0,1,1-2.23-2.24A2.23,2.23,0,0,1,26.45,42h0" transform="translate(0 0)" style="fill:#ecf5fc"/><g id="Group-36"><path id="Fill-34" d="M58.5,0h0A18.22,18.22,0,0,0,40.27,18.21h0V31.35H76.72V18.22A18.22,18.22,0,0,0,58.5,0h0" transform="translate(0 0)" style="fill:#b9d0f9"/></g><g id="Group-39"><path id="Fill-37" d="M298.09,0H76.72V356.64a19,19,0,0,0,19,18.95H317V18.94A19,19,0,0,0,298,0" transform="translate(0 0)" style="fill:#ecf5fc"/></g><g id="Group-42"><path id="Fill-40" d="M76.72,18.21V0H58.5A18.21,18.21,0,0,1,76.72,18.2h0" transform="translate(0 0)" style="fill:#ecf5fc"/></g><g id="Group-45"><path id="Fill-43" d="M366.12,217.63H129.83a18.21,18.21,0,0,1,18.22,18.2h0V406a18.94,18.94,0,0,0,18.88,19H385.07V236.57a18.94,18.94,0,0,0-18.94-18.94h0" transform="translate(0 0)" style="fill:#ecf5fc"/></g><path id="Fill-46" d="M129.82,217.63h0a18.22,18.22,0,0,0-18.22,18.22h0V357.37a18.22,18.22,0,0,1-18.22,18.22h54.67V235.85a18.22,18.22,0,0,0-18.22-18.22h0" transform="translate(0 0)" style="fill:#b9d0f9"/><path id="Fill-48" d="M184.5,388.51v18.22h0A18.24,18.24,0,0,1,166.27,425H402.7A18.94,18.94,0,0,0,421.65,406V388.51Z" transform="translate(0 0)" style="fill:#b9d0f9"/><path id="Fill-50" d="M175.46,91.81a33.27,33.27,0,1,0,0-47.05l0,.05a33.29,33.29,0,0,0,0,47" transform="translate(0 0)" style="fill:#4097ff"/><path id="Fill-52" d="M199,35a33.26,33.26,0,1,0,33.27,33.26A33.26,33.26,0,0,0,199,35h0" transform="translate(0 0)" style="fill:#b9d0f9"/><path id="Fill-56" d="M199,93.23V68.29H174a25,25,0,0,0,25,24.94" transform="translate(0 0)" style="fill:#3e25a7"/><path id="Fill-58" d="M216.63,49.64,199,67.28l17.64,17.64a25,25,0,0,0,0-35.28" transform="translate(0 0)" style="fill:#3e25a7"/><path id="Fill-60" d="M182.35,68.29A16.64,16.64,0,1,0,199,51.66h0a16.64,16.64,0,0,0-16.64,16.63" transform="translate(0 0)" style="fill:#b9d0f9"/><path id="Fill-62" d="M280.88,140.49H256.57a4.23,4.23,0,1,1,0-8.46h24.31a4.23,4.23,0,1,1,0,8.46" transform="translate(0 0)" style="fill:#b9d0f9"/><path id="Fill-64" d="M238.63,140.49H114.38a4.23,4.23,0,1,1,0-8.46H238.63a4.23,4.23,0,1,1,0,8.46" transform="translate(0 0)" style="fill:#b9d0f9"/><path id="Fill-66" d="M280.88,158.8H114.38a4.23,4.23,0,1,1,0-8.46h166.5a4.23,4.23,0,1,1,0,8.46" transform="translate(0 0)" style="fill:#b9d0f9"/><path id="Fill-68" d="M143.82,177.11H114.38a4.23,4.23,0,1,1-.41-8.45h29.85a4.23,4.23,0,1,1,.41,8.45h-.41" transform="translate(0 0)" style="fill:#b9d0f9"/><path id="Fill-70" d="M280.88,177.11H160.26a4.23,4.23,0,0,1-.41-8.45h121a4.23,4.23,0,0,1,.41,8.45h-.41" transform="translate(0 0)" style="fill:#b9d0f9"/><path id="Fill-72" d="M190.42,195.43h-76a4.23,4.23,0,0,1,0-8.46h76a4.23,4.23,0,1,1,0,8.46" transform="translate(0 0)" style="fill:#b9d0f9"/><path id="Fill-74" d="M280.88,195.43h-76a4.23,4.23,0,1,1,0-8.46h76a4.23,4.23,0,1,1,0,8.46" transform="translate(0 0)" style="fill:#b9d0f9"/><path id="Fill-76" d="M357.24,256.86H332.93a4.23,4.23,0,1,1-.41-8.45h24.72a4.23,4.23,0,0,1,.41,8.45h-.41" transform="translate(0 0)" style="fill:#b9d0f9"/><path id="Fill-78" d="M315,256.86H190.74a4.23,4.23,0,0,1-.41-8.45H315a4.23,4.23,0,0,1,.41,8.45H315" transform="translate(0 0)" style="fill:#b9d0f9"/><path id="Fill-80" d="M357.24,275.18H190.74a4.23,4.23,0,0,1,0-8.46h166.5a4.23,4.23,0,0,1,0,8.46" transform="translate(0 0)" style="fill:#b9d0f9"/><path id="Fill-82" d="M220.18,293.49H190.74a4.23,4.23,0,1,1,0-8.46h29.45a4.23,4.23,0,0,1,0,8.46" transform="translate(0 0)" style="fill:#b9d0f9"/><path id="Fill-84" d="M357.24,293.49H236.62a4.23,4.23,0,1,1,0-8.46H357.24a4.23,4.23,0,1,1,0,8.46h0" transform="translate(0 0)" style="fill:#b9d0f9"/><path id="Fill-86" d="M266.78,311.8h-76a4.23,4.23,0,1,1,0-8.46h76a4.23,4.23,0,1,1,0,8.46h0" transform="translate(0 0)" style="fill:#b9d0f9"/><path id="Fill-88" d="M357.24,311.8h-76a4.23,4.23,0,1,1,0-8.46h76a4.23,4.23,0,1,1,0,8.46h0" transform="translate(0 0)" style="fill:#b9d0f9"/><path id="Fill-90" d="M357.24,330.11H332.93a4.23,4.23,0,0,1,0-8.46h24.31a4.23,4.23,0,1,1,0,8.46h0" transform="translate(0 0)" style="fill:#b9d0f9"/><path id="Fill-92" d="M315,330.11H190.74a4.23,4.23,0,0,1,0-8.46H315a4.23,4.23,0,1,1,0,8.46h0" transform="translate(0 0)" style="fill:#b9d0f9"/><path id="Fill-94" d="M357.24,348.42H190.74a4.23,4.23,0,0,1-.41-8.45,2.81,2.81,0,0,1,.41,0h166.5a4.23,4.23,0,0,1,.41,8.45h-.41" transform="translate(0 0)" style="fill:#b9d0f9"/><path id="Fill-96" d="M220.18,366.73H190.74a4.23,4.23,0,0,1-4.23-4.23h0a4.23,4.23,0,0,1,4.23-4.23h29.44a4.23,4.23,0,0,1,4.23,4.23h0a4.23,4.23,0,0,1-4.23,4.23h0" transform="translate(0 0)" style="fill:#b9d0f9"/><path id="Fill-98" d="M357.24,366.73H236.62a4.23,4.23,0,0,1-4.23-4.23h0a4.23,4.23,0,0,1,4.23-4.23H357.24a4.23,4.23,0,0,1,4.23,4.23h0a4.23,4.23,0,0,1-4.23,4.23h0" transform="translate(0 0)" style="fill:#b9d0f9"/></g><g id="Group-131"><g id="Group-103"><path id="Fill-101" d="M528.62,304.47H362.24a11.07,11.07,0,0,1-11.09-11.05V189.09A11.08,11.08,0,0,1,362.23,178H528.62a11.1,11.1,0,0,1,11.1,11.08V293.4a11.08,11.08,0,0,1-11.09,11.07h0" transform="translate(0 0)" style="fill:#3e25a7"/></g><g id="Group-106"><path id="Fill-104" d="M518.68,213.08H370.79a4.2,4.2,0,0,1-4.22-4.2h0v-9.4a4.22,4.22,0,0,1,4.22-4.22H518.68a4.22,4.22,0,0,1,4.22,4.22v9.4a4.2,4.2,0,0,1-4.21,4.21h0" transform="translate(0 0)" style="fill:#b9d0f9"/></g><g id="Group-109"><path id="Fill-107" d="M386.31,234.66H370.88a4.22,4.22,0,1,1,0-8.44h15.43a4.22,4.22,0,0,1,0,8.44" transform="translate(0 0)" style="fill:#4097ff"/></g><g id="Group-112"><path id="Fill-110" d="M415.16,234.66H399.73a4.22,4.22,0,0,1,0-8.44h15.43a4.22,4.22,0,0,1,0,8.44" transform="translate(0 0)" style="fill:#4097ff"/></g><g id="Group-115"><path id="Fill-113" d="M444,234.66H428.58a4.22,4.22,0,1,1,0-8.44H444a4.22,4.22,0,1,1,0,8.44h0" transform="translate(0 0)" style="fill:#4097ff"/></g><g id="Group-118"><path id="Fill-116" d="M472.86,234.66H457.43a4.22,4.22,0,0,1,0-8.44h15.43a4.22,4.22,0,0,1,0,8.44" transform="translate(0 0)" style="fill:#4097ff"/></g><g id="Group-121"><path id="Fill-119" d="M519.1,288.73H503.66a4.22,4.22,0,0,1-.41-8.43H519.1a4.22,4.22,0,0,1,.41,8.43h-.41" transform="translate(0 0)" style="fill:#4097ff"/></g><g id="Group-124"><path id="Fill-122" d="M386.67,282.33a12,12,0,1,1-12.06-11.94h.06a12,12,0,0,1,12,11.94" transform="translate(0 0)" style="fill:#4097ff"/></g><g id="Group-127"><path id="Fill-125" d="M401.33,282.33a12,12,0,1,1-12.06-11.94h.06a12,12,0,0,1,12,11.88v.06" transform="translate(0 0)" style="fill:#4097ff"/></g><g id="Group-130"><path id="Fill-128" d="M377.41,282.33a11.92,11.92,0,0,0,4.59,9.4,11.93,11.93,0,0,0,0-18.87,11.92,11.92,0,0,0-4.63,9.43" transform="translate(0 0)" style="fill:#3e25a7"/></g></g></g></g></g></g></svg>