<svg id="Réteg_1" data-name="Réteg 1" xmlns="http://www.w3.org/2000/svg" viewBox="0 0 150 220"><title>building</title><g id="Timeline-icon-_-building" data-name="Timeline-icon- -building"><g id="Group-60"><polygon id="Fill-1" points="64.55 0 41.52 23.03 41.52 160 87.58 160 87.58 23.03 64.55 0" style="fill:#dfedf8"/><polygon id="Fill-2" points="92.78 210 37.22 210 37.22 38.79 65 10 92.78 38.79 92.78 210" style="fill:#dfedf8"/><polygon id="Fill-3" points="100 210 30 210 30 64.55 65 30 100 64.55 100 210" style="fill:#dfedf8"/><polygon id="Fill-4" points="84.7 150 44.39 150 44.39 30.15 64.55 10 84.7 30.15 84.7 150" style="fill:#3e25a7"/><polygon id="Fill-5" points="79.55 180 49.55 180 49.55 30 64.55 15 79.55 30 79.55 180" style="fill:#dfedf8"/><polygon id="Fill-6" points="90 200 40 200 40 45.91 65 20 90 45.91 90 200" style="fill:#3e25a7"/><polygon id="Fill-7" points="79.55 190 49.55 190 49.55 40 64.55 25 79.55 40 79.55 190" style="fill:#dfedf8"/><polygon id="Fill-8" points="30 74.55 30 220 100 220 100 74.55 65 40 30 74.55" style="fill:#ecf5fc"/><polygon id="Fill-9" points="50 64.76 50 220 80 220 80 64.76 65 50 50 64.76" style="fill:#3e25a7"/><polygon id="Fill-10" points="90 220 100 220 100 74.55 90 64.68 90 220" style="fill:#dfedf8"/><polygon id="Fill-11" points="30 74.55 30 220 40 220 40 64.67 30 74.55" style="fill:#dfedf8"/><polygon id="Fill-12" points="80 92 100 92 100 90 80 90 80 92" style="fill:#3e25a7"/><polygon id="Fill-13" points="80 102 90 102 90 100 80 100 80 102" style="fill:#3e25a7"/><polygon id="Fill-14" points="90 102 100 102 100 100 90 100 90 102" style="fill:#ecf5fc"/><polygon id="Fill-15" points="90 112 100 112 100 110 90 110 90 112" style="fill:#3e25a7"/><polygon id="Fill-16" points="80 122 100 122 100 120 80 120 80 122" style="fill:#3e25a7"/><polygon id="Fill-17" points="80 132 100 132 100 130 80 130 80 132" style="fill:#3e25a7"/><polygon id="Fill-18" points="80 142 100 142 100 140 80 140 80 142" style="fill:#3e25a7"/><polygon id="Fill-19" points="80 152 100 152 100 150 80 150 80 152" style="fill:#3e25a7"/><polygon id="Fill-20" points="80 162 100 162 100 160 80 160 80 162" style="fill:#3e25a7"/><polygon id="Fill-21" points="80 172 100 172 100 170 80 170 80 172" style="fill:#3e25a7"/><polygon id="Fill-22" points="80 182 100 182 100 180 80 180 80 182" style="fill:#3e25a7"/><polygon id="Fill-23" points="80 192 100 192 100 190 80 190 80 192" style="fill:#3e25a7"/><polygon id="Fill-24" points="80 202 100 202 100 200 80 200 80 202" style="fill:#3e25a7"/><polygon id="Fill-25" points="80 212 100 212 100 210 80 210 80 212" style="fill:#3e25a7"/><polygon id="Fill-26" points="30 92 50 92 50 90 30 90 30 92" style="fill:#ecf5fc"/><polygon id="Fill-27" points="30 102 50 102 50 100 30 100 30 102" style="fill:#4097ff"/><polygon id="Fill-28" points="30 112 50 112 50 110 30 110 30 112" style="fill:#ecf5fc"/><polygon id="Fill-29" points="30 122 50 122 50 120 30 120 30 122" style="fill:#ecf5fc"/><polygon id="Fill-30" points="30 132 40 132 40 130 30 130 30 132" style="fill:#4097ff"/><polygon id="Fill-31" points="30 142 50 142 50 140 30 140 30 142" style="fill:#ecf5fc"/><polygon id="Fill-32" points="30 152 50 152 50 150 30 150 30 152" style="fill:#ecf5fc"/><polygon id="Fill-33" points="40 162 50 162 50 160 40 160 40 162" style="fill:#4097ff"/><polygon id="Fill-34" points="30 162 40 162 40 160 30 160 30 162" style="fill:#ecf5fc"/><polygon id="Fill-35" points="30 172 50 172 50 170 30 170 30 172" style="fill:#ecf5fc"/><polygon id="Fill-36" points="30 182 50 182 50 180 30 180 30 182" style="fill:#ecf5fc"/><polygon id="Fill-37" points="30 192 50 192 50 190 30 190 30 192" style="fill:#ecf5fc"/><polygon id="Fill-38" points="30 202 50 202 50 200 30 200 30 202" style="fill:#ecf5fc"/><polygon id="Fill-39" points="30 212 40 212 40 210 30 210 30 212" style="fill:#4097ff"/><polygon id="Fill-40" points="50 64.76 50 220 60 220 60 54.92 50 64.76" style="fill:#4097ff"/><polygon id="Fill-41" points="120 86.67 150 86.67 150 80 120 80 120 86.67" style="fill:#c1272d"/><polygon id="Fill-42" points="120 93.33 150 93.33 150 86.67 120 86.67 120 93.33" style="fill:#fff"/><polygon id="Fill-43" points="120 100 150 100 150 93.33 120 93.33 120 100" style="fill:#009245"/><polygon id="Fill-44" points="117 160 120 160 120 80 117 80 117 160" style="fill:#3e25a7"/><polygon id="Fill-45" points="70 220 110 220 110 120 70 120 70 220" style="fill:#dfedf8"/><polygon id="Fill-46" points="110 220 120 220 120 120 110 120 110 220" style="fill:#3e25a7"/><polygon id="Fill-47" points="80 140 83 140 83 130 80 130 80 140" style="fill:#ecf5fc"/><polygon id="Fill-48" points="80 160 83 160 83 150 80 150 80 160" style="fill:#3e25a7"/><polygon id="Fill-49" points="87 160 90 160 90 150 87 150 87 160" style="fill:#ecf5fc"/><polygon id="Fill-50" points="110 160 113 160 113 150 110 150 110 160" style="fill:#dfedf8"/><polygon id="Fill-51" points="97 190 100 190 100 180 97 180 97 190" style="fill:#3e25a7"/><polygon id="Fill-52" points="90 200 93 200 93 190 90 190 90 200" style="fill:#ecf5fc"/><polygon id="Fill-53" points="107 200 110 200 110 190 107 190 107 200" style="fill:#3e25a7"/><polygon id="Fill-54" points="0 220 10 220 10 160 0 160 0 220" style="fill:#3e25a7"/><polygon id="Fill-55" points="10 220 30 220 30 160 10 160 10 220" style="fill:#ecf5fc"/><polygon id="Fill-56" points="7 180 10 180 10 170 7 170 7 180" style="fill:#ecf5fc"/><polygon id="Fill-57" points="10 200 13 200 13 190 10 190 10 200" style="fill:#3e25a7"/><polygon id="Fill-58" points="17 210 20 210 20 200 17 200 17 210" style="fill:#dfedf8"/><polygon id="Fill-59" points="17 180 20 180 20 170 17 170 17 180" style="fill:#dfedf8"/></g></g></svg>