<svg id="Réteg_1" data-name="Réteg 1" xmlns="http://www.w3.org/2000/svg" viewBox="0 0 216.94 200"><title>document</title><g id="Timeline-icon-_-document" data-name="Timeline-icon- -document"><g id="Group-67"><g id="Group-41"><path id="Fill-1" d="M8.57,0h0A8.57,8.57,0,0,0,0,8.57H0v6.19H17.15V8.57A8.59,8.59,0,0,0,8.57,0" style="fill:#3e25a7"/><path id="Fill-3" d="M121.29,0H17.15V167.85a8.91,8.91,0,0,0,8.9,8.92H130.21V8.92A8.92,8.92,0,0,0,121.29,0h0" style="fill:#ecf5fc"/><path id="Fill-5" d="M17.15,8.57V0H8.57a8.59,8.59,0,0,1,8.58,8.57" style="fill:#ecf5fc"/><path id="Fill-7" d="M153.3,102.43H42.13A8.57,8.57,0,0,1,50.7,111h0v80.08A8.92,8.92,0,0,0,59.62,200h102.6V111.34a8.91,8.91,0,0,0-8.91-8.91h0" style="fill:#ecf5fc"/><path id="Fill-9" d="M42.13,102.43h0A8.57,8.57,0,0,0,33.56,111h0v57.2A8.58,8.58,0,0,1,25,176.77H50.7V111a8.56,8.56,0,0,0-8.55-8.57h0" style="fill:#3e25a7"/><path id="Fill-11" d="M67.85,182.85v8.58h0A8.59,8.59,0,0,1,59.27,200H170.51a8.92,8.92,0,0,0,8.92-8.92v-8.23Z" style="fill:#3e25a7"/><path id="Fill-13" d="M113.2,66.12H101.76a2,2,0,1,1,0-4H113.2a2,2,0,0,1,0,4" style="fill:#b9d0f9"/><path id="Fill-15" d="M93.32,66.12H34.86a2,2,0,0,1,0-4H93.32a2,2,0,0,1,0,4" style="fill:#b9d0f9"/><path id="Fill-17" d="M113.2,74.74H34.86a2,2,0,0,1,0-4H113.2a2,2,0,0,1,0,4" style="fill:#b9d0f9"/><path id="Fill-19" d="M48.71,83.36H34.86a2,2,0,0,1,0-4H48.71a2,2,0,0,1,0,4" style="fill:#b9d0f9"/><path id="Fill-21" d="M113.2,83.36H56.45a2,2,0,0,1,0-4H113.2a2,2,0,0,1,0,4" style="fill:#b9d0f9"/><path id="Fill-23" d="M70.64,92H34.86a2,2,0,0,1,0-4H70.64a2,2,0,0,1,0,4" style="fill:#b9d0f9"/><path id="Fill-25" d="M113.2,92H77.43a2,2,0,0,1,0-4H113.2a2,2,0,0,1,0,4" style="fill:#b9d0f9"/><path id="Fill-27" d="M149.12,120.89H137.69a2,2,0,0,1,0-4h11.43a2,2,0,0,1,0,4" style="fill:#b9d0f9"/><path id="Fill-29" d="M129.25,120.89H70.79a2,2,0,0,1,0-4h58.46a2,2,0,0,1,0,4" style="fill:#b9d0f9"/><path id="Fill-31" d="M149.12,129.51H70.79a2,2,0,0,1,0-4h78.33a2,2,0,0,1,0,4" style="fill:#b9d0f9"/><path id="Fill-33" d="M84.64,138.13H70.79a2,2,0,0,1,0-4H84.64a2,2,0,0,1,0,4" style="fill:#b9d0f9"/><path id="Fill-35" d="M149.12,138.13H92.38a2,2,0,0,1,0-4h56.74a2,2,0,0,1,0,4" style="fill:#b9d0f9"/><path id="Fill-37" d="M106.56,146.75H70.79a2,2,0,0,1,0-4h35.77a2,2,0,0,1,0,4" style="fill:#b9d0f9"/><polygon id="Fill-39" points="58.53 26.35 54.03 48.13 56.46 48.13 60.95 26.35 58.53 26.35" style="fill:#4097ff"/></g><g id="Group-44"><polygon id="Fill-42" points="50.51 51.66 64.48 51.66 64.48 22.82 50.51 22.82 50.51 51.66" style="fill:#4097ff"/></g><path id="Fill-45" d="M70.84,26.08h2.54c5.13,0,7.28,1.5,7.28,6.2v1H78.18v-.6c0-3.5-1.29-4.28-5-4.28H71.51c-2,0-3.36.09-4.38,1s-1.08,2.48-1.08,4.73v6.2c0,2.25,0,3.75,1.08,4.73s2.46,1,4.38,1h1.67c3.81,0,5-.81,5-4.58v-1h2.48v1.44c0,5-1.94,6.47-7.28,6.47H70.84c-5.42,0-7.25-1.92-7.25-7.46v-7.4c0-5.54,1.83-7.46,7.25-7.46" style="fill:#4097ff"/><g id="Group-49"><polygon id="Fill-47" points="60.06 51.92 84.19 51.92 84.19 22.56 60.06 22.56 60.06 51.92" style="fill:#4097ff"/></g><polygon id="Fill-50" points="84.74 26.35 98.34 26.35 98.34 28.66 87.13 28.66 87.13 35.79 98.01 35.79 98.01 38 87.13 38 87.13 48.13 84.74 48.13 84.74 26.35" style="fill:#4097ff"/><g id="Group-54"><polygon id="Fill-52" points="81.21 51.66 101.86 51.66 101.86 22.82 81.21 22.82 81.21 51.66" style="fill:#4097ff"/></g><g id="Group-66"><path id="Fill-55" d="M137.31,165.56a2.55,2.55,0,0,1,2.45-.93A11.59,11.59,0,0,1,137,166.4a1.87,1.87,0,0,1,.34-.84M122.74,158a16.84,16.84,0,0,1,5.77-3.15,2.6,2.6,0,0,1,2.57.43c.69.75.45,1.91.16,2.79a21.16,21.16,0,0,1-3.7,6.1c-.12.16-.25.31-.38.46a101.75,101.75,0,0,1-14.31,8,27.49,27.49,0,0,1,9.89-14.6m27.44,4.62a44.84,44.84,0,0,1-4.63,5.3c-1.62,1.4-4.09,2.62-6.24,1.76a4.35,4.35,0,0,1-1.63-1.25,14.22,14.22,0,0,0,4.44-3.08,1.07,1.07,0,0,0,.16-1.28c-2.28-3.26-7.66-1-7.39,2.85v.22a12.64,12.64,0,0,1-3,.37q1.19-2.76,2.36-5.52a1.06,1.06,0,0,0-1.66-1.28l-.47.35c.12-.21.25-.41.36-.62,1.12-2.13,1.91-5.2-.28-7s-4.92-.65-7,.44a28.64,28.64,0,0,0-6.42,4.66,29.66,29.66,0,0,0-8.26,14.34,5.48,5.48,0,0,1-.72-1.12c-1.35-2.77-.25-6,.62-8.7.42-1.3-1.62-1.86-2-.57-.93,2.91-1.89,6.12-.9,9.14a6.46,6.46,0,0,0,5.55,4.73c2.94.21,5.75-1.64,8-3.25a38.84,38.84,0,0,0,6.44-5.71c.36-.41.72-.83,1.07-1.26.76-.51,1.51-1,2.25-1.57l-1.42,3.33a1.08,1.08,0,0,0,.43,1.47,1.11,1.11,0,0,0,.48.13,13.64,13.64,0,0,0,5.24-.38,6.14,6.14,0,0,0,3.12,2.56c2.31.86,5,.07,6.93-1.23,2.47-1.64,4.13-4.13,6-6.36.87-1-.62-2.54-1.5-1.5" style="fill:#3e25a7"/><polygon id="Fill-57" points="161.83 151.86 152.89 147.38 202.19 49.05 211.13 53.53 161.83 151.86" style="fill:#3e25a7"/><polygon id="Fill-59" points="148.4 167.5 152.89 147.38 161.83 151.86 148.4 167.5" style="fill:#4097ff"/><path id="Fill-61" d="M211.13,53.53l-8.94-4.48,2.25-4.47a5,5,0,1,1,9.12,4.1l-.19.38Z" style="fill:#4097ff"/><g id="Group-65"><polyline id="Fill-63" points="216.94 56.44 214.26 55.1 211.13 53.53 209.79 56.21 212.92 57.78 200.81 81.92 203.5 83.26 215.6 59.13" style="fill:#4097ff"/></g></g></g></g></svg>