<svg id="Réteg_1" data-name="Réteg 1" xmlns="http://www.w3.org/2000/svg" viewBox="0 0 214.81 200"><title>dutch</title><g id="Timeline-icon-_-Dutch" data-name="Timeline-icon- -Dutch"><g id="Group-67"><polygon id="Fill-1" points="45.22 44.44 27.94 73.25 62.51 73.25 45.22 44.44" style="fill:#3e25a7"/><polygon id="Fill-2" points="27.94 200 62.51 200 62.51 73.25 27.94 73.25 27.94 200" style="fill:#ecf5fc"/><g id="Group-66"><path id="Fill-3" d="M68.27,200H22.18v-.55a5.21,5.21,0,0,1,5.21-5.21H63.05a5.22,5.22,0,0,1,5.22,5.21Z" style="fill:#3e25a7"/><path id="Fill-5" d="M68.27,200H33.7v-.55a5.21,5.21,0,0,1,5.21-5.21H63.05a5.22,5.22,0,0,1,5.22,5.21Z" style="fill:#ecf5fc"/><polygon id="Fill-7" points="27.94 194.24 33.7 194.24 33.7 73.25 27.94 73.25 27.94 194.24" style="fill:#3e25a7"/><polygon id="Fill-9" points="57.03 77.04 48.89 68.89 73.33 44.44 81.48 52.59 57.03 77.04" style="fill:#b9d0f9"/><polygon id="Fill-10" points="44.81 89.26 42.78 87.22 79.44 50.56 81.48 52.59 44.81 89.26" style="fill:#3e25a7"/><polygon id="Fill-11" points="52.96 105.55 61.11 97.41 85.55 121.85 77.4 130 52.96 105.55" style="fill:#b9d0f9"/><polygon id="Fill-12" points="40.74 93.33 42.78 91.29 79.44 127.96 77.4 130 40.74 93.33" style="fill:#3e25a7"/><polygon id="Fill-13" points="32.59 77.04 24.44 85.18 0 60.74 8.15 52.59 32.59 77.04" style="fill:#b9d0f9"/><polygon id="Fill-14" points="44.81 89.26 42.78 91.29 6.11 54.63 8.15 52.59 44.81 89.26" style="fill:#3e25a7"/><polygon id="Fill-15" points="28.52 105.55 36.66 113.7 12.22 138.14 4.07 130 28.52 105.55" style="fill:#b9d0f9"/><polygon id="Fill-16" points="40.74 93.33 42.78 95.37 6.11 132.03 4.07 130 40.74 93.33" style="fill:#3e25a7"/><path id="Fill-17" d="M48.89,93.33a5.76,5.76,0,1,1,0-8.15,5.76,5.76,0,0,1,0,8.15h0" style="fill:#3e25a7"/><path id="Fill-18" d="M51,194.24H39.46V176.41a5.22,5.22,0,0,1,5.21-5.22h1.1A5.22,5.22,0,0,1,51,176.41Z" style="fill:#3e25a7"/><polygon id="Fill-19" points="133.33 14.81 200 14.81 200 0 133.33 0 133.33 14.81" style="fill:#b9d0f9"/><polygon id="Fill-20" points="148.15 22.22 214.81 22.22 214.81 14.81 148.15 14.81 148.15 22.22" style="fill:#3e25a7"/><polygon id="Fill-21" points="148.15 29.63 214.81 29.63 214.81 22.22 148.15 22.22 148.15 29.63" style="fill:#ecf5fc"/><polygon id="Fill-22" points="148.15 37.04 214.81 37.04 214.81 29.63 148.15 29.63 148.15 37.04" style="fill:#3e25a7"/><polygon id="Fill-23" points="148.15 44.44 214.81 44.44 214.81 37.04 148.15 37.04 148.15 44.44" style="fill:#ecf5fc"/><polygon id="Fill-24" points="148.15 51.85 214.81 51.85 214.81 44.44 148.15 44.44 148.15 51.85" style="fill:#3e25a7"/><polygon id="Fill-25" points="148.15 59.26 214.81 59.26 214.81 51.85 148.15 51.85 148.15 59.26" style="fill:#ecf5fc"/><polygon id="Fill-26" points="148.15 66.67 214.81 66.67 214.81 59.26 148.15 59.26 148.15 66.67" style="fill:#3e25a7"/><polygon id="Fill-27" points="148.15 74.07 214.81 74.07 214.81 66.67 148.15 66.67 148.15 74.07" style="fill:#ecf5fc"/><polygon id="Fill-28" points="148.15 81.48 214.81 81.48 214.81 74.07 148.15 74.07 148.15 81.48" style="fill:#3e25a7"/><polygon id="Fill-29" points="148.15 88.89 214.81 88.89 214.81 81.48 148.15 81.48 148.15 88.89" style="fill:#ecf5fc"/><polygon id="Fill-30" points="148.15 96.3 214.81 96.3 214.81 88.89 148.15 88.89 148.15 96.3" style="fill:#3e25a7"/><polygon id="Fill-31" points="148.15 103.7 214.81 103.7 214.81 96.3 148.15 96.3 148.15 103.7" style="fill:#ecf5fc"/><polygon id="Fill-32" points="148.15 111.11 214.81 111.11 214.81 103.7 148.15 103.7 148.15 111.11" style="fill:#3e25a7"/><polygon id="Fill-33" points="148.15 118.52 214.81 118.52 214.81 111.11 148.15 111.11 148.15 118.52" style="fill:#ecf5fc"/><polygon id="Fill-34" points="148.15 125.93 214.81 125.93 214.81 118.52 148.15 118.52 148.15 125.93" style="fill:#3e25a7"/><polygon id="Fill-35" points="148.15 133.33 214.81 133.33 214.81 125.93 148.15 125.93 148.15 133.33" style="fill:#ecf5fc"/><polygon id="Fill-36" points="148.15 140.74 214.81 140.74 214.81 133.33 148.15 133.33 148.15 140.74" style="fill:#3e25a7"/><polygon id="Fill-37" points="148.15 148.15 214.81 148.15 214.81 140.74 148.15 140.74 148.15 148.15" style="fill:#ecf5fc"/><polygon id="Fill-38" points="148.15 155.56 214.81 155.56 214.81 148.15 148.15 148.15 148.15 155.56" style="fill:#3e25a7"/><polygon id="Fill-39" points="148.15 162.96 214.81 162.96 214.81 155.56 148.15 155.56 148.15 162.96" style="fill:#ecf5fc"/><polygon id="Fill-40" points="148.15 170.37 214.81 170.37 214.81 162.96 148.15 162.96 148.15 170.37" style="fill:#3e25a7"/><polygon id="Fill-41" points="148.15 177.78 214.81 177.78 214.81 170.37 148.15 170.37 148.15 177.78" style="fill:#ecf5fc"/><polygon id="Fill-42" points="148.15 185.19 214.81 185.19 214.81 177.78 148.15 177.78 148.15 185.19" style="fill:#3e25a7"/><polygon id="Fill-43" points="148.15 192.59 214.81 192.59 214.81 185.19 148.15 185.19 148.15 192.59" style="fill:#ecf5fc"/><polygon id="Fill-44" points="148.15 200 214.81 200 214.81 192.59 148.15 192.59 148.15 200" style="fill:#3e25a7"/><polygon id="Fill-45" points="133.33 200 133.33 14.81 148.15 14.81 148.15 22.22 155.56 22.22 185.19 200 133.33 200" style="fill:#b9d0f9"/><path id="Fill-46" d="M130.43,71.18V64.73H91.79v6.45A12.88,12.88,0,0,1,78.91,84.06h0V200h64.41V84.06a12.89,12.89,0,0,1-12.89-12.88" style="fill:#ecf5fc"/><polygon id="Fill-47" points="104.67 90.5 117.55 90.5 117.55 77.62 104.67 77.62 104.67 90.5" style="fill:#3e25a7"/><polygon id="Fill-48" points="104.67 116.26 117.55 116.26 117.55 96.94 104.67 96.94 104.67 116.26" style="fill:#3e25a7"/><polygon id="Fill-49" points="123.99 116.26 136.88 116.26 136.88 96.94 123.99 96.94 123.99 116.26" style="fill:#3e25a7"/><polygon id="Fill-50" points="85.35 116.26 98.23 116.26 98.23 96.94 85.35 96.94 85.35 116.26" style="fill:#3e25a7"/><polygon id="Fill-51" points="104.67 180.68 117.55 180.68 117.55 161.35 104.67 161.35 104.67 180.68" style="fill:#3e25a7"/><polygon id="Fill-52" points="123.99 180.68 136.88 180.68 136.88 161.35 123.99 161.35 123.99 180.68" style="fill:#3e25a7"/><polygon id="Fill-53" points="85.35 180.68 98.23 180.68 98.23 161.35 85.35 161.35 85.35 180.68" style="fill:#3e25a7"/><polygon id="Fill-54" points="104.67 154.91 117.55 154.91 117.55 122.7 104.67 122.7 104.67 154.91" style="fill:#3e25a7"/><polygon id="Fill-55" points="123.99 154.91 136.88 154.91 136.88 122.7 123.99 122.7 123.99 154.91" style="fill:#3e25a7"/><polygon id="Fill-56" points="85.35 154.91 98.23 154.91 98.23 122.7 85.35 122.7 85.35 154.91" style="fill:#3e25a7"/><path id="Fill-57" d="M124,64.73a12.88,12.88,0,1,1-12.88-12.88A12.88,12.88,0,0,1,124,64.73h0" style="fill:#ecf5fc"/><path id="Fill-58" d="M117.55,64.73a6.44,6.44,0,1,1-6.44-6.44,6.44,6.44,0,0,1,6.44,6.44h0" style="fill:#3e25a7"/><polygon id="Fill-59" points="72.46 200 78.9 200 78.9 84.06 72.46 84.06 72.46 200" style="fill:#3e25a7"/><polygon id="Fill-60" points="78.91 116.26 143.32 116.26 143.32 114.33 78.91 114.33 78.91 116.26" style="fill:#b9d0f9"/><polygon id="Fill-61" points="78.91 154.91 143.32 154.91 143.32 152.98 78.91 152.98 78.91 154.91" style="fill:#b9d0f9"/><polygon id="Fill-62" points="78.91 180.68 143.32 180.68 143.32 178.74 78.91 178.74 78.91 180.68" style="fill:#b9d0f9"/><polygon id="Fill-63" points="143.32 200 149.76 200 149.76 84.06 143.32 84.06 143.32 200" style="fill:#ecf5fc"/><path id="Fill-64" d="M117.55,200H66a6.44,6.44,0,0,1,6.44-6.44h38.65a6.44,6.44,0,0,1,6.44,6.44h0" style="fill:#3e25a7"/><path id="Fill-65" d="M156.2,200H78.9a6.44,6.44,0,0,1,6.44-6.44h64.42A6.44,6.44,0,0,1,156.2,200h0" style="fill:#ecf5fc"/></g></g></g></svg>