<svg id="Réteg_1" data-name="Réteg 1" xmlns="http://www.w3.org/2000/svg" viewBox="0 0 64 44.8"><title>email</title><g id="Icon-_-Email" data-name="Icon-/-Email"><g id="icon"><path id="Fill-1" d="M85.6,38H34.4A6.41,6.41,0,0,0,28,44.4v32a6.41,6.41,0,0,0,6.4,6.4H85.6A6.41,6.41,0,0,0,92,76.4v-32A6.41,6.41,0,0,0,85.6,38" transform="translate(-28 -38)" style="fill:#4097ff"/><path id="Fill-3" d="M28,44.4v2.74l28.28,20.2a6.4,6.4,0,0,0,7.44,0L92,47.14V44.4A6.41,6.41,0,0,0,85.6,38H34.4A6.41,6.41,0,0,0,28,44.4" transform="translate(-28 -38)" style="fill:#3e25a7"/></g></g></svg>