<svg id="Réteg_1" data-name="Réteg 1" xmlns="http://www.w3.org/2000/svg" viewBox="0 0 64 57.36"><title>employees</title><g id="Icon-_-Employees" data-name="Icon- -Employees"><g id="Group-6"><path id="Fill-1" d="M0,57.36a32,32,0,0,1,64,0" transform="translate(0 0)" style="fill:#4097ff"/><path id="Fill-3" d="M32,0A19,19,0,1,0,51.2,19,19,19,0,0,0,32,0h0" transform="translate(0 0)" style="fill:#4097ff"/><path id="Fill-4" d="M47.76,29.82a32.27,32.27,0,0,0-31.52,0,19.3,19.3,0,0,0,31.52,0" transform="translate(0 0)" style="fill:#101a28"/><path id="Fill-5" d="M32,6.73A12.66,12.66,0,1,0,44.8,19.38,12.66,12.66,0,0,0,32,6.73h0" transform="translate(0 0)" style="fill:#4097ff"/></g></g></svg>