<svg id="Réteg_1" data-name="Réteg 1" xmlns="http://www.w3.org/2000/svg" viewBox="0 0 57.56 63.92"><title>execution</title><g id="Icon-_-Execution" data-name="Icon- -Execution"><g id="Group-11"><g id="Group-3"><path id="Fill-1" d="M45.24,62.82,3,37.27A6.17,6.17,0,0,1,3,26.73L45.24,1.18a8.16,8.16,0,0,1,12.36,7V55.77a8.17,8.17,0,0,1-12.36,7" transform="translate(-0.04 -0.01)" style="fill:#4097ff"/></g><g id="Group-6"><path id="Fill-4" d="M45.24,62.82,3,37.27A6.17,6.17,0,0,1,3,26.73L45.24,1.18a8.16,8.16,0,0,1,12.36,7V55.77a8.17,8.17,0,0,1-12.36,7" transform="translate(-0.04 -0.01)" style="fill:#4097ff"/></g><path id="Fill-7" d="M45.58,18.42,32,32,45.58,45.58a19.22,19.22,0,0,0,0-27.16" transform="translate(-0.04 -0.01)" style="fill:#101a28"/><path id="Fill-9" d="M41.05,41.05a12.8,12.8,0,1,0-18.1,0h0a12.8,12.8,0,0,0,18.1,0" transform="translate(-0.04 -0.01)" style="fill:#4097ff"/></g></g></svg>