<svg id="Réteg_1" data-name="Réteg 1" xmlns="http://www.w3.org/2000/svg" viewBox="0 0 730 730"><title>footer-icf</title><g id="Symbols"><g id="Form_Large" data-name="Form Large"><g id="Form"><g id="Footer-ICF"><path id="Fill-1" d="M106.91,623,365,365,106.91,107c-142.55,142.49-142.55,373.51,0,516" transform="translate(0)" style="fill:#0a111c"/><path id="Fill-5" d="M365,730c201.58,0,365-163.42,365-365H365Z" transform="translate(0)" style="fill:#0a111c"/><path id="Fill-7" d="M365,0V365H730C730,163.42,566.58,0,365,0" transform="translate(0)" style="fill:#0a111c"/><path id="Fill-9" d="M365,73C203.73,73,73,203.73,73,365S203.73,657,365,657,657,526.27,657,365,526.27,73,365,73" transform="translate(0)" style="fill:#101a28"/><path id="Fill-11" d="M146,365H365V146c-120.95,0-219,98.05-219,219" transform="translate(0)" style="fill:#0a111c"/><path id="Fill-15" d="M365,584V365H146c0,121,98.05,219,219,219" transform="translate(0)" style="fill:#0a111c"/><path id="Fill-19" d="M519.85,201,365,356,519.85,511c85.53-85.6,85.53-224.4,0-310" transform="translate(0)" style="fill:#0a111c"/><path id="Fill-21" d="M468.24,261.76a146,146,0,1,0,0,206.48,146,146,0,0,0,0-206.48h0" transform="translate(0)" style="fill:#101a28"/><g id="Group-33"><polygon id="Fill-1-2" points="314.99 327 302 389 309.01 389 322 327 314.99 327" style="fill:#0a111c"/><g id="Group-32"><g id="Group-4"><path id="Fill-2" d="M349.73,326H357c14.53,0,20.65,4.25,20.65,17.59v2.72h-7v-1.7c0-9.94-3.65-12.15-14.1-12.15h-4.76c-5.61,0-9.52.25-12.41,3s-3.06,7.05-3.06,13.43v17.58c0,6.38.09,10.62,3.06,13.43s7,3,12.41,3h4.76c10.79,0,14.19-2.29,14.19-13,0-.93,0-1.95-.09-3h7V371c0,14.19-5.52,18.35-20.65,18.35h-7.22c-15.38,0-20.56-5.44-20.56-21.16v-21c0-15.72,5.18-21.16,20.56-21.16" transform="translate(0)" style="fill:#0a111c"/></g><polygon id="Fill-5-2" points="389.16 326.76 427.73 326.76 427.73 333.31 395.96 333.31 395.96 353.53 426.8 353.53 426.8 359.82 395.96 359.82 395.96 388.54 389.16 388.54 389.16 326.76" style="fill:#0a111c"/><g id="Group-9"><polygon id="Fill-7-2" points="302 395.75 307.37 395.75 307.37 396.51 305.08 396.51 305.08 402.92 304.28 402.92 304.28 396.51 302 396.51 302 395.75" style="fill:#0a111c"/></g><polygon id="Fill-10" points="314.64 395.75 319.67 395.75 319.67 396.51 315.43 396.51 315.43 398.86 319.55 398.86 319.55 399.59 315.43 399.59 315.43 402.17 319.67 402.17 319.67 402.92 314.64 402.92 314.64 395.75" style="fill:#0a111c"/><g id="Group-14"><path id="Fill-12" d="M329.61,395.66h.84c1.69,0,2.4.49,2.4,2V398H332v-.2c0-1.15-.43-1.41-1.64-1.41h-.55a1.94,1.94,0,0,0-1.44.35c-.35.32-.36.81-.36,1.55v2c0,.74,0,1.23.36,1.55a1.89,1.89,0,0,0,1.44.35h.55c1.25,0,1.65-.27,1.65-1.51v-.34h.82v.47c0,1.65-.64,2.13-2.4,2.13h-.84c-1.78,0-2.39-.63-2.39-2.46V398.1c0-1.83.61-2.46,2.39-2.46" transform="translate(0)" style="fill:#0a111c"/></g><polygon id="Fill-15-2" points="340.7 395.75 341.49 395.75 341.49 398.85 345.62 398.85 345.62 395.75 346.41 395.75 346.41 402.92 345.62 402.92 345.62 399.6 341.49 399.6 341.49 402.92 340.7 402.92 340.7 395.75" style="fill:#0a111c"/><polygon id="Fill-17" points="354.66 395.75 355.88 395.75 359.77 402.15 359.77 395.75 360.56 395.75 360.56 402.92 359.33 402.92 355.45 396.51 355.45 402.92 354.66 402.92 354.66 395.75" style="fill:#0a111c"/><g id="Group-21"><path id="Fill-19-2" d="M371.4,396.41a2.35,2.35,0,0,0-1.61.35c-.35.31-.39.79-.39,1.56v2c0,.76,0,1.24.39,1.54a2.29,2.29,0,0,0,1.61.36h.44a2.32,2.32,0,0,0,1.62-.36c.36-.3.37-.78.37-1.54v-2.05c0-.76,0-1.25-.38-1.55a2.29,2.29,0,0,0-1.61-.35Zm-.23-.75h.91c1.93,0,2.58.59,2.58,2.46v2.43c0,1.85-.67,2.46-2.58,2.46h-.91c-1.91,0-2.58-.61-2.58-2.46v-2.43C368.59,396.27,369.26,395.66,371.17,395.66Z" transform="translate(0)" style="fill:#0a111c"/></g><polygon id="Fill-22" points="382.67 395.75 383.45 395.75 383.45 402.17 387.52 402.17 387.52 402.92 382.67 402.92 382.67 395.75" style="fill:#0a111c"/><g id="Group-26"><path id="Fill-24" d="M398.34,395.66c1.93,0,2.58.59,2.58,2.46v2.43c0,1.85-.67,2.46-2.58,2.46h-.91c-1.91,0-2.58-.61-2.58-2.46v-2.43c0-1.85.67-2.46,2.58-2.46Zm-.24.75h-.44a2.35,2.35,0,0,0-1.61.35c-.33.29-.38.71-.38,1.38v2.22c0,.76,0,1.24.39,1.54a2.29,2.29,0,0,0,1.61.36h.44a2.37,2.37,0,0,0,1.62-.36c.32-.28.37-.71.37-1.36v-2.23c0-.76,0-1.25-.38-1.55A2.32,2.32,0,0,0,398.1,396.41Z" transform="translate(0)" style="fill:#0a111c"/></g><g id="Group-29"><path id="Fill-27" d="M411.24,395.66h.91c1.74,0,2.58.56,2.58,1.85v.31h-.82v-.09c0-1.08-.53-1.32-1.81-1.32h-.63a2.35,2.35,0,0,0-1.61.35c-.35.31-.37.78-.37,1.55v2.05c0,.76,0,1.24.37,1.54a2.29,2.29,0,0,0,1.61.36h.63a2.09,2.09,0,0,0,1.46-.32c.33-.27.35-.72.35-1.42v-.44h-2v-.73h2.81v1.2c0,1.85-.67,2.46-2.58,2.46h-.91c-1.91,0-2.58-.61-2.58-2.46v-2.43c0-1.85.67-2.46,2.58-2.46" transform="translate(0)" style="fill:#0a111c"/></g><polygon id="Fill-30" points="424 402.92 424 399.74 421.02 395.75 421.96 395.75 424.38 399.09 426.8 395.75 427.73 395.75 424.77 399.73 424.77 402.92 424 402.92" style="fill:#0a111c"/></g></g></g></g></g></g></svg>