<svg id="Réteg_1" data-name="Réteg 1" xmlns="http://www.w3.org/2000/svg" viewBox="0 0 24.02 24.01"><title>freelance</title><g id="Icon-_-Freelance" data-name="Icon- -Freelance"><g id="Group-16"><g id="Group-3"><path id="Fill-1" d="M3.51,20.49a12,12,0,1,0,0-17,12,12,0,0,0,0,17l0,0" transform="translate(0.02 0.01)" style="fill:#4097ff"/></g><path id="Fill-4" d="M12,0A12,12,0,1,0,24,12,12,12,0,0,0,12,0" transform="translate(0.02 0.01)" style="fill:#4097ff"/><path id="Fill-6" d="M12,6a6,6,0,1,0,6,6,6,6,0,0,0-6-6" transform="translate(0.02 0.01)" style="fill:#4097ff"/><path id="Fill-8" d="M12,21V12H3a9,9,0,0,0,9,9" transform="translate(0.02 0.01)" style="fill:#3e25a7"/><path id="Fill-10" d="M6,12a6,6,0,1,0,6-6,6,6,0,0,0-6,6" transform="translate(0.02 0.01)" style="fill:#4097ff"/><path id="Fill-12" d="M18.36,5.27,12,11.64,18.36,18a9,9,0,0,0,0-12.73h0" transform="translate(0.02 0.01)" style="fill:#3e25a7"/><path id="Fill-14" d="M16.24,7.39a6,6,0,1,0,0,8.49,6,6,0,0,0,0-8.49h0" transform="translate(0.02 0.01)" style="fill:#4097ff"/></g></g></svg>