<svg id="Réteg_1" data-name="Réteg 1" xmlns="http://www.w3.org/2000/svg" viewBox="0 0 303.7 200"><title>hungary</title><g id="Timeline-icon-_-Hungary" data-name="Timeline-icon- -Hungary"><g id="Group-107"><polygon id="Fill-1" points="14.81 200 81.48 200 81.48 148.15 14.81 148.15 14.81 200" style="fill:#ecf5fc"/><polygon id="Fill-2" points="7.41 200 22.22 200 22.22 148.15 7.41 148.15 7.41 200" style="fill:#3e25a7"/><g id="Group-106"><path id="Fill-3" d="M44.44,200H0a7.41,7.41,0,0,1,7.41-7.41H37a7.4,7.4,0,0,1,7.4,7.4h0" style="fill:#3e25a7"/><path id="Fill-5" d="M88.89,200H22.22a7.41,7.41,0,0,1,7.41-7.41H81.48A7.41,7.41,0,0,1,88.89,200h0" style="fill:#ecf5fc"/><path id="Fill-7" d="M51.85,192.59H37V170.37a7.41,7.41,0,1,1,14.81-.54,4.86,4.86,0,0,1,0,.54Z" style="fill:#3e25a7"/><path id="Fill-9" d="M74.07,192.59H59.26V170.37a7.41,7.41,0,1,1,14.81-.54,4.86,4.86,0,0,1,0,.54Z" style="fill:#3e25a7"/><path id="Fill-11" d="M29.63,192.59H14.81V170.37a7.41,7.41,0,0,1,14.82,0Z" style="fill:#3e25a7"/><polygon id="Fill-13" points="7.41 148.15 29.63 125.93 81.48 125.93 81.48 148.15 7.41 148.15" style="fill:#3e25a7"/><polygon id="Fill-15" points="170.37 200 296.3 200 296.3 148.15 170.37 148.15 170.37 200" style="fill:#ecf5fc"/><polygon id="Fill-17" points="222.22 200 237.04 200 237.04 148.15 222.22 148.15 222.22 200" style="fill:#3e25a7"/><path id="Fill-18" d="M259.26,200H214.81a7.41,7.41,0,0,1,7.41-7.41h29.63a7.41,7.41,0,0,1,7.41,7.41h0" style="fill:#3e25a7"/><path id="Fill-19" d="M303.7,200H237a7.4,7.4,0,0,1,7.39-7.41H296.3a7.4,7.4,0,0,1,7.4,7.4h0" style="fill:#ecf5fc"/><path id="Fill-20" d="M266.67,192.59H251.85V170.37a7.41,7.41,0,0,1,14.82,0Z" style="fill:#3e25a7"/><path id="Fill-21" d="M288.89,192.59H274.07V170.37a7.41,7.41,0,1,1,14.82,0Z" style="fill:#3e25a7"/><path id="Fill-22" d="M177.78,192.59H163V170.37a7.41,7.41,0,0,1,14.82,0Z" style="fill:#3e25a7"/><path id="Fill-23" d="M244.44,192.59H229.63V170.37a7.41,7.41,0,1,1,14.81-.54,4.86,4.86,0,0,1,0,.54Z" style="fill:#3e25a7"/><path id="Fill-24" d="M222.22,192.59H207.41V170.37a7.41,7.41,0,1,1,14.81-.54,4.86,4.86,0,0,1,0,.54Z" style="fill:#3e25a7"/><path id="Fill-25" d="M200,192.59H185.19V170.37a7.41,7.41,0,1,1,14.81-.54,4.86,4.86,0,0,1,0,.54Z" style="fill:#3e25a7"/><path id="Fill-26" d="M192.59,200H170.37a7.41,7.41,0,0,1,7.41-7.41h7.41a7.4,7.4,0,0,1,7.4,7.4h0" style="fill:#b9d0f9"/><path id="Fill-27" d="M185.19,200H163a7.41,7.41,0,0,1,7.41-7.41h7.41a7.41,7.41,0,0,1,7.41,7.41h0" style="fill:#ecf5fc"/><path id="Fill-28" d="M118.52,96.3V75.13a37.79,37.79,0,0,1,14.81-30.69c5.3-4,18.52-7.4,18.52-7.4s13.22,3.35,18.52,7.4a37.76,37.76,0,0,1,14.82,30.69V96.3Z" style="fill:#b9d0f9"/><polygon id="Fill-29" points="200 111.11 222.22 111.11 222.22 81.48 200 81.48 200 111.11" style="fill:#ecf5fc"/><polygon id="Fill-30" points="96.3 200 222.22 200 222.22 111.11 96.3 111.11 96.3 200" style="fill:#ecf5fc"/><polygon id="Fill-31" points="118.52 118.52 185.19 118.52 185.19 81.48 118.52 81.48 118.52 118.52" style="fill:#ecf5fc"/><polygon id="Fill-32" points="81.48 200 96.3 200 96.3 133.33 81.48 133.33 81.48 200" style="fill:#3e25a7"/><path id="Fill-33" d="M118.52,200H74.07a7.41,7.41,0,0,1,7.41-7.41h29.63a7.41,7.41,0,0,1,7.41,7.41h0" style="fill:#3e25a7"/><path id="Fill-34" d="M229.63,200H96.3a7.4,7.4,0,0,1,7.39-7.41H222.22a7.41,7.41,0,0,1,7.41,7.41h0" style="fill:#ecf5fc"/><polygon id="Fill-35" points="96.3 170.37 185.19 170.37 185.19 155.56 96.3 155.56 96.3 170.37" style="fill:#b9d0f9"/><polygon id="Fill-36" points="200 200 222.22 200 222.22 111.11 200 111.11 200 200" style="fill:#ecf5fc"/><polygon id="Fill-37" points="103.7 155.56 111.11 155.56 111.11 111.11 103.7 111.11 103.7 155.56" style="fill:#b9d0f9"/><polygon id="Fill-38" points="185.19 200 192.59 200 192.59 148.15 185.19 148.15 185.19 200" style="fill:#b9d0f9"/><polygon id="Fill-39" points="192.59 148.15 200 148.15 200 111.11 192.59 111.11 192.59 148.15" style="fill:#b9d0f9"/><path id="Fill-40" d="M192.59,192.59H177.78V170.37a7.41,7.41,0,1,1,14.81-.54,4.86,4.86,0,0,1,0,.54Z" style="fill:#3e25a7"/><path id="Fill-41" d="M214.81,192.59H200V170.37a7.41,7.41,0,1,1,14.81-.54,4.86,4.86,0,0,1,0,.54Z" style="fill:#3e25a7"/><path id="Fill-42" d="M103.7,192.59H88.89V170.37a7.41,7.41,0,1,1,14.81-.54,4.86,4.86,0,0,1,0,.54Z" style="fill:#3e25a7"/><path id="Fill-43" d="M170.37,192.59H155.56V170.37a7.41,7.41,0,1,1,14.81-.54,4.86,4.86,0,0,1,0,.54Z" style="fill:#3e25a7"/><path id="Fill-44" d="M148.15,192.59H133.33V170.37a7.41,7.41,0,0,1,14.82,0Z" style="fill:#3e25a7"/><path id="Fill-45" d="M125.93,192.59H111.11V170.37a7.41,7.41,0,0,1,14.82,0Z" style="fill:#3e25a7"/><path id="Fill-46" d="M155.56,148.15h-7.41V122.22a3.71,3.71,0,0,1,7.41,0Z" style="fill:#3e25a7"/><path id="Fill-47" d="M170.37,148.15H163V122.22a3.71,3.71,0,0,1,7.41,0Z" style="fill:#3e25a7"/><path id="Fill-48" d="M185.19,148.15h-7.41V122.22a3.71,3.71,0,0,1,7.41,0Z" style="fill:#3e25a7"/><path id="Fill-49" d="M125.93,148.15h-7.41V122.22a3.71,3.71,0,0,1,7.41,0Z" style="fill:#3e25a7"/><path id="Fill-50" d="M214.81,103.7h-7.4V92.59a3.7,3.7,0,0,1,7.4,0h0Z" style="fill:#3e25a7"/><path id="Fill-51" d="M214.81,148.15h-7.4V129.63a3.7,3.7,0,0,1,7.4,0Z" style="fill:#3e25a7"/><polygon id="Fill-52" points="81.48 111.11 103.7 111.11 103.7 81.48 81.48 81.48 81.48 111.11" style="fill:#ecf5fc"/><polygon id="Fill-53" points="81.48 155.56 103.7 155.56 103.7 111.11 81.48 111.11 81.48 155.56" style="fill:#ecf5fc"/><path id="Fill-54" d="M96.3,103.7H88.89V92.59a3.71,3.71,0,0,1,7.41,0Z" style="fill:#3e25a7"/><path id="Fill-55" d="M96.3,148.15H88.89V129.63a3.71,3.71,0,0,1,7.41,0Z" style="fill:#3e25a7"/><path id="Fill-56" d="M140.74,148.15h-7.41V122.22a3.71,3.71,0,0,1,7.41,0Z" style="fill:#3e25a7"/><polygon id="Fill-57" points="111.11 148.15 118.52 148.15 118.52 111.11 111.11 111.11 111.11 148.15" style="fill:#3e25a7"/><polygon id="Fill-58" points="81.48 148.15 88.89 148.15 88.89 118.52 81.48 118.52 81.48 148.15" style="fill:#3e25a7"/><polygon id="Fill-59" points="200 148.15 207.41 148.15 207.41 118.52 200 118.52 200 148.15" style="fill:#3e25a7"/><polygon id="Fill-60" points="81.48 111.11 88.89 111.11 88.89 81.48 81.48 81.48 81.48 111.11" style="fill:#3e25a7"/><polygon id="Fill-61" points="200 111.11 207.41 111.11 207.41 81.48 200 81.48 200 111.11" style="fill:#3e25a7"/><polygon id="Fill-62" points="118.52 103.7 125.93 103.7 125.93 81.48 118.52 81.48 118.52 103.7" style="fill:#3e25a7"/><polygon id="Fill-63" points="177.78 155.56 81.48 155.56 74.07 148.15 177.78 148.15 177.78 155.56" style="fill:#3e25a7"/><polygon id="Fill-64" points="103.7 118.52 81.48 118.52 74.07 111.11 111.11 111.11 103.7 118.52" style="fill:#3e25a7"/><polygon id="Fill-65" points="222.22 155.56 96.3 155.56 88.89 148.15 229.63 148.15 222.22 155.56" style="fill:#ecf5fc"/><polygon id="Fill-66" points="192.59 162.96 222.22 162.96 222.22 155.56 192.59 155.56 192.59 162.96" style="fill:#b9d0f9"/><path id="Fill-67" d="M118.52,200H96.3a7.4,7.4,0,0,1,7.39-7.41h7.42a7.41,7.41,0,0,1,7.41,7.41h0" style="fill:#b9d0f9"/><path id="Fill-68" d="M111.11,200H88.89a7.41,7.41,0,0,1,7.41-7.41h7.4a7.41,7.41,0,0,1,7.41,7.41h0" style="fill:#ecf5fc"/><polygon id="Fill-69" points="81.48 81.48 92.59 37.04 103.7 81.48 81.48 81.48" style="fill:#ecf5fc"/><polygon id="Fill-70" points="200 81.48 211.11 37.04 222.22 81.48 200 81.48" style="fill:#ecf5fc"/><polygon id="Fill-71" points="125.93 81.48 118.52 81.48 118.52 66.67 125.93 74.07 125.93 81.48" style="fill:#3e25a7"/><polygon id="Fill-72" points="140.74 81.48 133.33 81.48 133.33 66.67 140.74 74.07 140.74 81.48" style="fill:#ecf5fc"/><polygon id="Fill-73" points="177.78 81.48 185.19 81.48 185.19 66.67 177.78 74.07 177.78 81.48" style="fill:#ecf5fc"/><polygon id="Fill-74" points="162.96 81.48 170.37 81.48 170.37 66.67 162.96 74.07 162.96 81.48" style="fill:#ecf5fc"/><polygon id="Fill-75" points="151.85 66.67 148.15 74.07 148.15 81.48 151.85 81.48 155.56 81.48 155.56 74.07 151.85 66.67" style="fill:#ecf5fc"/><polygon id="Fill-76" points="118.52 140.74 118.52 148.15 125.93 148.15 118.52 140.74" style="fill:#b9d0f9"/><polygon id="Fill-77" points="81.48 140.74 81.48 148.15 88.89 148.15 81.48 140.74" style="fill:#3e25a7"/><polygon id="Fill-78" points="200 140.74 200 148.15 207.41 148.15 200 140.74" style="fill:#3e25a7"/><polygon id="Fill-79" points="81.48 74.07 81.48 81.48 88.89 81.48 81.48 74.07" style="fill:#3e25a7"/><polygon id="Fill-80" points="200 74.07 200 81.48 207.41 81.48 200 74.07" style="fill:#3e25a7"/><polygon id="Fill-81" points="118.52 140.74 118.52 148.15 111.11 148.15 118.52 140.74" style="fill:#b9d0f9"/><polygon id="Fill-82" points="140.74 140.74 133.33 148.15 140.74 148.15 148.15 148.15 140.74 140.74" style="fill:#b9d0f9"/><polygon id="Fill-83" points="162.96 140.74 155.56 148.15 162.96 148.15 170.37 148.15 162.96 140.74" style="fill:#b9d0f9"/><polygon id="Fill-84" points="185.19 140.74 177.78 148.15 185.19 148.15 192.59 148.15 185.19 140.74" style="fill:#b9d0f9"/><polygon id="Fill-85" points="103.7 74.07 103.7 81.48 96.3 81.48 103.7 74.07" style="fill:#b9d0f9"/><polygon id="Fill-86" points="92.59 74.07 88.89 81.48 92.59 81.48 96.3 81.48 92.59 74.07" style="fill:#b9d0f9"/><polygon id="Fill-87" points="200 74.07 200 81.48 207.41 81.48 200 74.07" style="fill:#b9d0f9"/><polygon id="Fill-88" points="222.22 74.07 222.22 81.48 214.81 81.48 222.22 74.07" style="fill:#b9d0f9"/><polygon id="Fill-89" points="211.11 74.07 207.41 81.48 211.11 81.48 214.81 81.48 211.11 74.07" style="fill:#b9d0f9"/><polygon id="Fill-90" points="103.7 118.52 88.89 118.52 81.48 111.11 111.11 111.11 103.7 118.52" style="fill:#b9d0f9"/><polygon id="Fill-91" points="140.74 111.11 118.52 111.11 111.11 103.7 148.15 103.7 140.74 111.11" style="fill:#3e25a7"/><polygon id="Fill-92" points="185.19 111.11 125.93 111.11 118.52 103.7 192.59 103.7 185.19 111.11" style="fill:#b9d0f9"/><polygon id="Fill-93" points="222.22 118.52 200 118.52 192.59 111.11 229.63 111.11 222.22 118.52" style="fill:#3e25a7"/><polygon id="Fill-94" points="222.22 118.52 207.41 118.52 200 111.11 229.63 111.11 222.22 118.52" style="fill:#b9d0f9"/><path id="Fill-95" d="M140.74,100A3.71,3.71,0,1,1,137,96.3h0a3.7,3.7,0,0,1,3.7,3.7" style="fill:#3e25a7"/><path id="Fill-96" d="M155.56,100a3.71,3.71,0,1,1-3.72-3.7h0a3.7,3.7,0,0,1,3.71,3.69h0" style="fill:#3e25a7"/><path id="Fill-97" d="M170.37,100a3.71,3.71,0,1,1-3.72-3.7h0a3.7,3.7,0,0,1,3.7,3.7" style="fill:#3e25a7"/><polygon id="Fill-98" points="125.93 92.59 185.19 92.59 185.19 88.89 125.93 88.89 125.93 92.59" style="fill:#3e25a7"/><polygon id="Fill-99" points="133.33 44.44 170.37 44.44 155.56 37.04 151.85 22.22 148.15 37.04 133.33 44.44" style="fill:#3e25a7"/><polygon id="Fill-100" points="148.15 29.63 155.56 29.63 155.56 22.22 148.15 22.22 148.15 29.63" style="fill:#3e25a7"/><polygon id="Fill-101" points="148.15 22.22 151.85 0 155.56 22.22 148.15 22.22" style="fill:#3e25a7"/><polygon id="Fill-102" points="296.3 148.15 274.07 125.93 222.22 125.93 222.22 148.15 296.3 148.15" style="fill:#3e25a7"/><polygon id="Fill-103" points="125.93 192.59 133.33 192.59 133.33 188.89 125.93 188.89 125.93 192.59" style="fill:#b9d0f9"/><polygon id="Fill-104" points="148.15 192.59 155.56 192.59 155.56 188.89 148.15 188.89 148.15 192.59" style="fill:#b9d0f9"/><polygon id="Fill-105" points="170.37 192.59 177.78 192.59 177.78 188.89 170.37 188.89 170.37 192.59" style="fill:#b9d0f9"/></g></g></g></svg>