<svg id="Réteg_1" data-name="Réteg 1" xmlns="http://www.w3.org/2000/svg" viewBox="0 0 62.87 38.5"><defs><style>.cls-1{fill:#4097ff;}</style></defs><title>icf-logo</title><g id="Symbols"><g id="Header-_-Mobile-_-Black" data-name="Header- -Mobile- -Black"><g id="Group-33"><polygon id="Fill-1" class="cls-1" points="6.41 0.38 0.03 31.27 3.47 31.27 9.85 0.38 6.41 0.38"/><g id="Group-32"><g id="Group-4"><path id="Fill-2" class="cls-1" d="M23.87,0h3.61C34.74,0,37.8,2.13,37.8,8.8v1.36H34.27V9.31c0-5-1.82-6.08-7.05-6.08H24.84c-2.8,0-4.75.13-6.2,1.49s-1.53,3.53-1.53,6.71v8.8c0,3.18,0,5.31,1.53,6.71s3.48,1.49,6.2,1.49h2.38c5.4,0,7.1-1.15,7.1-6.5V20.44H37.8v2c0,7.09-2.76,9.17-10.32,9.17H23.87c-7.69,0-10.28-2.71-10.28-10.57V10.58C13.59,2.72,16.18,0,23.87,0"/></g><polygon id="Fill-5" class="cls-1" points="43.58 0.38 62.87 0.38 62.87 3.65 46.98 3.65 46.98 13.77 62.4 13.77 62.4 16.91 46.98 16.91 46.98 31.27 43.58 31.27 43.58 0.38"/><g id="Group-9"><polygon id="Fill-7" class="cls-1" points="0 34.87 2.68 34.87 2.68 35.25 1.54 35.25 1.54 38.46 1.14 38.46 1.14 35.25 0 35.25 0 34.87"/></g><polygon id="Fill-10" class="cls-1" points="6.32 34.87 8.83 34.87 8.83 35.25 6.71 35.25 6.71 36.43 8.78 36.43 8.78 36.79 6.71 36.79 6.71 38.09 8.83 38.09 8.83 38.46 6.32 38.46 6.32 34.87"/><g id="Group-14"><path id="Fill-12" class="cls-1" d="M13.81,34.8h.41c.85,0,1.2.25,1.2,1V36H15v-.1c0-.57-.21-.7-.81-.7h-.28a1,1,0,0,0-.72.17c-.17.16-.18.41-.18.78v1c0,.37,0,.62.18.78a1,1,0,0,0,.72.17h.28c.62,0,.82-.13.82-.75v-.17h.41v.23c0,.83-.32,1.07-1.2,1.07h-.41c-.9,0-1.2-.32-1.2-1.23V36.06c0-.91.3-1.23,1.2-1.23"/></g><polygon id="Fill-15" class="cls-1" points="19.35 34.87 19.74 34.87 19.74 36.42 21.81 36.42 21.81 34.87 22.21 34.87 22.21 38.46 21.81 38.46 21.81 36.8 19.74 36.8 19.74 38.46 19.35 38.46 19.35 34.87"/><polygon id="Fill-17" class="cls-1" points="26.33 34.87 26.94 34.87 28.88 38.08 28.88 34.87 29.28 34.87 29.28 38.46 28.67 38.46 26.72 35.25 26.72 38.46 26.33 38.46 26.33 34.87"/><g id="Group-21"><path id="Fill-19" class="cls-1" d="M34.7,35.21a1.16,1.16,0,0,0-.81.18c-.17.15-.19.39-.19.78v1c0,.39,0,.62.19.78a1.21,1.21,0,0,0,.81.17h.22a1.21,1.21,0,0,0,.81-.17c.18-.16.19-.4.19-.78v-1c0-.38,0-.63-.2-.78a1.13,1.13,0,0,0-.8-.17Zm-.11-.41H35c1,0,1.29.3,1.29,1.23v1.22c0,.92-.33,1.23-1.29,1.23h-.45c-1,0-1.3-.31-1.3-1.23V36.06c0-.92.34-1.23,1.3-1.23Z"/></g><polygon id="Fill-22" class="cls-1" points="40.34 34.87 40.73 34.87 40.73 38.09 42.76 38.09 42.76 38.46 40.34 38.46 40.34 34.87"/><g id="Group-26"><path id="Fill-24" class="cls-1" d="M47.83,35.21a1.16,1.16,0,0,0-.81.18c-.17.15-.19.39-.19.78v1c0,.39,0,.62.19.78a1.21,1.21,0,0,0,.81.17h.22a1.21,1.21,0,0,0,.81-.17c.18-.16.19-.4.19-.78v-1c0-.38,0-.63-.2-.78a1.13,1.13,0,0,0-.8-.17Zm-.12-.41h.46c1,0,1.29.3,1.29,1.23v1.22c0,.92-.33,1.23-1.29,1.23h-.46c-1,0-1.29-.31-1.29-1.23V36.06c0-.92.34-1.23,1.29-1.23Z"/></g><g id="Group-29"><path id="Fill-27" class="cls-1" d="M54.62,34.8h.45c.87,0,1.3.29,1.3.93v.15H56c0-.54-.27-.66-.91-.66h-.32a1.14,1.14,0,0,0-.8.18c-.18.15-.19.39-.19.77v1c0,.39,0,.62.19.78a1.18,1.18,0,0,0,.8.17h.32a1,1,0,0,0,.73-.15c.16-.14.18-.36.18-.71V37H55v-.36h1.41v.6c0,.92-.34,1.23-1.3,1.23h-.45c-1,0-1.29-.31-1.29-1.23V36.06c0-.92.33-1.23,1.29-1.23"/></g><polygon id="Fill-30" class="cls-1" points="61 38.46 61 36.87 59.51 34.87 59.98 34.87 61.19 36.55 62.4 34.87 62.87 34.87 61.39 36.87 61.39 38.46 61 38.46"/></g></g></g></g></svg>