<svg id="Réteg_1" data-name="Réteg 1" xmlns="http://www.w3.org/2000/svg" viewBox="0 0 64 64"><title>impression</title><g id="Icon-_-Impression" data-name="Icon- -Impression"><g id="Group-11"><path id="Fill-1" d="M32,0A32,32,0,0,0,0,32H32V64A32,32,0,0,0,32,0" style="fill:#101a28"/><path id="Fill-3" d="M64,32A32,32,0,0,0,0,32" style="fill:#4097ff"/><path id="Fill-5" d="M32,6.4A25.6,25.6,0,1,0,57.6,32h0A25.6,25.6,0,0,0,32,6.4" style="fill:#4097ff"/><path id="Fill-7" d="M12.8,32H32V12.8A19.2,19.2,0,0,0,12.8,32h0" style="fill:#101a28"/><path id="Fill-9" d="M32,19.2A12.8,12.8,0,1,0,44.8,32,12.8,12.8,0,0,0,32,19.2h0" style="fill:#4097ff"/></g></g></svg>