<svg id="Réteg_1" data-name="Réteg 1" xmlns="http://www.w3.org/2000/svg" viewBox="0 0 540.76 373.82"><title>live-stream</title><g id="Main-page"><g id="ICF_Mainpage_Large" data-name="ICF Mainpage Large"><g id="Technology"><g id="Live-Stream"><g id="Group-3"><path id="Fill-1" d="M413.09,296.62H0V0H423V286.69a9.92,9.92,0,0,1-9.91,9.93h0" style="fill:#3e25a7"/></g><g id="Group-6"><path id="Fill-4" d="M410.39,288.62H7V18H417V282a6.59,6.59,0,0,1-6.6,6.6h0" style="fill:#dfedf8"/></g><g id="Group-31"><g id="Group-9"><path id="Fill-7" d="M82.66,27h46.41a6.63,6.63,0,0,1,6.63,6.63h0V80.05a6.63,6.63,0,0,1-6.63,6.63H82.66A6.63,6.63,0,0,1,76,80.08V33.63A6.62,6.62,0,0,1,82.62,27h0" style="fill:#ecf5fc"/></g><g id="Group-12"><path id="Fill-10" d="M122.35,63.91c-4-1.83-18.84.36-18.84.36s-2,.25-4.65.7c-4.67.78-11.47,2.18-13.61,4-3.36,2.79-3.63,12.18-2.65,13.66S106,83.82,106,83.82s23.86.4,24.4-1.27-4.06-16.79-8.05-18.64" style="fill:#b9d0f9"/></g><g id="Group-15"><path id="Fill-13" d="M111.71,59.94c1.92-2.5,3.4-12.75-5.09-13.41s-6.91,11.11-6.91,11.11l.29,7.12L105,67l4.84-1.65.1-4.2" style="fill:#4097ff"/></g><g id="Group-18"><polygon id="Fill-16" points="106.15 60.86 109.84 64.2 109.91 61.14 106.15 60.86" style="fill:#3e25a7"/></g><g id="Group-21"><path id="Fill-19" d="M99.71,57.64s-1.57-11.78,6.91-11.11,7,10.91,5.09,13.41-5.89.79-5.89.79Z" style="fill:#4097ff"/></g><g id="Group-24"><path id="Fill-22" d="M100.67,58.08C98.43,57,95.36,55.37,95.14,53c-.16-4.42.71-9,4.91-11.55a10.74,10.74,0,0,1,10-.57,11.86,11.86,0,0,1,3.83,2.54,6.91,6.91,0,0,1,1.6,7.6,12.54,12.54,0,0,1-.88,1.94c-.31.66-1.29,1.58-1.41,2.23.28-5-5.17-6.4-9.13-4.54s-3.43,6.44-3.36,7.46" style="fill:#3e25a7"/></g><g id="Group-27"><path id="Fill-25" d="M101.87,54.65a1,1,0,1,1,0-.07.15.15,0,0,1,0,.07" style="fill:#4097ff"/></g><g id="Group-30"><path id="Fill-28" d="M100,63.6,98.9,65s.22,3.08,6.35,2.73,5.27-4.22,5.27-4.22l-.62-.07s-.27,2.38-4.62,2.62S100,63.6,100,63.6" style="fill:#b9d0f9"/></g></g><g id="Group-53"><g id="Group-34"><path id="Fill-32" d="M147.66,27h46.41a6.63,6.63,0,0,1,6.63,6.63h0V80.05a6.63,6.63,0,0,1-6.63,6.63H147.66a6.63,6.63,0,0,1-6.66-6.6V33.63A6.62,6.62,0,0,1,147.62,27h0" style="fill:#ecf5fc"/></g><g id="Group-37"><path id="Fill-35" d="M193,72.05a72.48,72.48,0,0,0-17.18-7.29s-7-.57-9.7-.12c-4.67.79-14.31,7.07-16.45,8.88-3.36,2.83-3,7.65-2.07,9.13S171,83.82,171,83.82s23.86.4,24.4-1.27,1.37-8.3-2.43-10.5" style="fill:#b9d0f9"/></g><g id="Group-40"><path id="Fill-38" d="M169.2,46.53c8.48-.67,6.91,11.11,6.91,11.11l-.29,7.1s-1.81,5.08-5.64,4.41A4.68,4.68,0,0,1,166,65.34l-.1-4.2" style="fill:#4097ff"/></g><g id="Group-43"><polygon id="Fill-41" points="169.67 60.86 165.99 64.2 165.91 61.14 169.67 60.86" style="fill:#3e25a7"/></g><g id="Group-46"><path id="Fill-44" d="M176.89,58.64s1.57-11.79-6.91-11.12-7,10.91-5.09,13.42,5.89.78,5.89.78Z" style="fill:#4097ff"/></g><g id="Group-49"><path id="Fill-47" d="M174,54.65a1,1,0,1,0,0-.07.15.15,0,0,0,0,.07" style="fill:#4097ff"/></g><g id="Group-52"><path id="Fill-50" d="M174.77,44.84c-7-2.39-9.84,1.9-13.69,2.54s-7.29-3.12-8.5-3.36c-1.53-.3,2,10,7,11.12s6.77.93,9.39-1.23c0,0,0-1.5.54-2s2.28-.1,3.87.8c2.79,1.57,1.84,7.23,1.84,7.23H176s8.53-11.75-1.23-15.08" style="fill:#3e25a7"/></g></g><g id="Group-78"><g id="Group-56"><path id="Fill-54" d="M214.66,27h46.41a6.63,6.63,0,0,1,6.63,6.63h0V80.05a6.63,6.63,0,0,1-6.63,6.63H214.66a6.63,6.63,0,0,1-6.66-6.6V33.63A6.62,6.62,0,0,1,214.62,27h0" style="fill:#ecf5fc"/></g><g id="Group-59"><path id="Fill-57" d="M219.65,59.9c4-1.84,14,1.4,14,1.4s1.57,1.61,6.18,1c3.65-.5,11-1.54,16.94,2.67,3.58,2.55-6.72,12.67-7.69,14.15s-25.24,1.31-25.78-.37-7.62-17-3.63-18.82" style="fill:#b9d0f9"/></g><g id="Group-62"><path id="Fill-60" d="M237.86,57.54s3.52,8.66,6.4,6.54c4.14-3,1.74-24.27-7.24-24.53-11.2-.33-15.68,22.93-8.31,24.18,5,.85,8.66-9.46,8.66-9.46Z" style="fill:#3e25a7"/></g><g id="Group-65"><path id="Fill-63" d="M230.29,55.93c-1.91-2.5-3.4-12.75,5.09-13.42s6.91,11.12,6.91,11.12l-2,8.57s-4.53,7-5.86,10.4c-.72,1.83-.82-11.3-.82-11.3L233.52,57" style="fill:#4097ff"/></g><g id="Group-68"><polygon id="Fill-66" points="236 56.52 233.59 59.45 233.56 57.88 236 56.52" style="fill:#3e25a7"/></g><g id="Group-71"><path id="Fill-69" d="M242.29,53.63s1.58-11.78-6.91-11.12-6.68,10.7-5.09,13.42c2.28,3.89,5.89.79,5.89.79Z" style="fill:#4097ff"/></g><g id="Group-74"><path id="Fill-72" d="M229,48s8.34-4.67,10.78,1.05.93,8.77,2.28,9.39,2.49-7.93,2.49-7.93l-3.43-8.43-5.3-.89-4.36,1.32-1.76,1.84-1.17,2.56Z" style="fill:#3e25a7"/></g><g id="Group-77"><path id="Fill-75" d="M239.8,52a1,1,0,1,0,0-.07.15.15,0,0,0,0,.07" style="fill:#4097ff"/></g></g><g id="Group-103"><g id="Group-81"><path id="Fill-79" d="M280.66,27h46.41a6.63,6.63,0,0,1,6.63,6.63h0V80.05a6.63,6.63,0,0,1-6.63,6.63H280.66a6.63,6.63,0,0,1-6.66-6.6V33.63A6.62,6.62,0,0,1,280.62,27h0" style="fill:#ecf5fc"/></g><g id="Group-84"><path id="Fill-82" d="M320.35,63.91c-4-1.83-18.84.36-18.84.36s-2,.25-4.65.7c-4.67.78-11.47,2.18-13.61,4-3.36,2.83-3.63,12.19-2.65,13.67S304,83.82,304,83.82s23.86.4,24.4-1.27-4.06-16.81-8-18.64" style="fill:#b9d0f9"/></g><g id="Group-87"><path id="Fill-85" d="M309.71,59.94c1.92-2.5,3.4-12.75-5.09-13.41s-6.91,11.11-6.91,11.11l.29,7.12L303,67l4.84-1.65.1-4.2" style="fill:#4097ff"/></g><g id="Group-90"><polygon id="Fill-88" points="304.15 60.86 307.84 64.2 307.91 61.14 304.15 60.86" style="fill:#3e25a7"/></g><g id="Group-93"><path id="Fill-91" d="M297.71,57.64s-1.57-11.78,6.91-11.11,7,10.91,5.09,13.41-5.89.79-5.89.79Z" style="fill:#4097ff"/></g><g id="Group-96"><path id="Fill-94" d="M298.67,58.08c-2.24-1.11-5.31-2.71-5.53-5.11-.16-4.42.71-9,4.91-11.55a10.74,10.74,0,0,1,10-.57,11.86,11.86,0,0,1,3.83,2.54,6.91,6.91,0,0,1,1.6,7.6,12.54,12.54,0,0,1-.88,1.94c-.31.66-1.29,1.58-1.41,2.23.28-5-5.17-6.4-9.13-4.54s-3.43,6.44-3.36,7.46" style="fill:#3e25a7"/></g><g id="Group-99"><path id="Fill-97" d="M299.87,54.65a1,1,0,1,1,0-.07.15.15,0,0,1,0,.07" style="fill:#4097ff"/></g><g id="Group-102"><path id="Fill-100" d="M298,63.6,296.9,65s.22,3.08,6.35,2.73,5.27-4.22,5.27-4.22l-.62-.07s-.27,2.38-4.62,2.62S298,63.6,298,63.6" style="fill:#b9d0f9"/></g></g><g id="Group-128"><g id="Group-106"><path id="Fill-104" d="M346.66,27h46.41a6.63,6.63,0,0,1,6.63,6.63h0V80.05a6.63,6.63,0,0,1-6.63,6.63H346.66a6.63,6.63,0,0,1-6.66-6.6V33.63A6.62,6.62,0,0,1,346.62,27h0" style="fill:#ecf5fc"/></g><g id="Group-109"><path id="Fill-107" d="M386.35,63.91c-4-1.83-18.84.36-18.84.36s-2,.25-4.65.7c-4.67.78-11.47,2.18-13.61,4-3.36,2.83-3.63,12.19-2.65,13.67S370,83.82,370,83.82s23.86.4,24.4-1.27-4.06-16.81-8-18.64" style="fill:#b9d0f9"/></g><g id="Group-112"><path id="Fill-110" d="M375.71,59.94c1.92-2.5,3.4-12.75-5.09-13.41s-6.91,11.11-6.91,11.11l.29,7.12L369,67l4.84-1.65.1-4.2" style="fill:#4097ff"/></g><g id="Group-115"><polygon id="Fill-113" points="370.15 60.86 373.84 64.2 373.91 61.14 370.15 60.86" style="fill:#3e25a7"/></g><g id="Group-118"><path id="Fill-116" d="M363.71,57.64s-1.57-11.78,6.91-11.11,7,10.91,5.09,13.41-5.89.79-5.89.79Z" style="fill:#4097ff"/></g><g id="Group-121"><path id="Fill-119" d="M364.67,58.08c-2.24-1.11-5.31-2.71-5.53-5.11-.16-4.42.71-9,4.91-11.55a10.74,10.74,0,0,1,10-.57,11.86,11.86,0,0,1,3.83,2.54,6.91,6.91,0,0,1,1.6,7.6,12.54,12.54,0,0,1-.88,1.94c-.31.66-1.29,1.58-1.41,2.23.28-5-5.17-6.4-9.13-4.54s-3.43,6.44-3.36,7.46" style="fill:#3e25a7"/></g><g id="Group-124"><path id="Fill-122" d="M365.87,54.65a1,1,0,1,1,0-.07.15.15,0,0,1,0,.07" style="fill:#4097ff"/></g><g id="Group-127"><path id="Fill-125" d="M364,63.6,362.9,65s.22,3.08,6.35,2.73,5.27-4.22,5.27-4.22l-.62-.07s-.27,2.38-4.62,2.62S364,63.6,364,63.6" style="fill:#b9d0f9"/></g></g><g id="Group-153"><g id="Group-131"><path id="Fill-129" d="M82.66,93.76h46.41a6.63,6.63,0,0,1,6.63,6.63h0v23.23h0V146.8a6.63,6.63,0,0,1-6.63,6.63H82.66a6.63,6.63,0,0,1-6.66-6.6h0V123.64h0V100.42a6.63,6.63,0,0,1,6.6-6.66h.06" style="fill:#ecf5fc"/></g><g id="Group-134"><path id="Fill-132" d="M90.2,130.69c4-1.83,14,1.41,14,1.41s1.58,1.6,6.19,1c3.64-.5,11-1.54,16.94,2.68,3.58,2.54-6.72,12.67-7.69,14.14s-25.24,1.31-25.78-.37-7.62-17-3.63-18.82" style="fill:#b9d0f9"/></g><g id="Group-137"><path id="Fill-135" d="M111.19,128.08s3.21,3.34,6.09,1.23c4.13-3-.73-18.71-9.71-19-11.2-.33-16.29,17.72-8.92,19,5,.85,7-7.4,7-7.4Z" style="fill:#3e25a7"/></g><g id="Group-140"><path id="Fill-138" d="M100.84,126.76c-1.92-2.5-3.4-12.75,5.09-13.41s6.91,11.12,6.91,11.12l-2,8.56s-2.62,2.37-4.59,2.37-2.1-3.26-2.1-3.26l-.09-4.34" style="fill:#4097ff"/></g><g id="Group-143"><polygon id="Fill-141" points="106.55 127.31 104.14 130.24 104.1 128.67 106.55 127.31" style="fill:#3e25a7"/></g><g id="Group-146"><path id="Fill-144" d="M112.84,124.43s1.57-11.79-6.91-11.12-6.69,10.69-5.09,13.41c2.28,3.89,5.89.79,5.89.79Z" style="fill:#4097ff"/></g><g id="Group-149"><path id="Fill-147" d="M99.58,118.76s8.34-4.67,10.78,1,.93,8.77,2.28,9.39,3.52-8.28,3.52-8.28l-4.46-8.08-5.3-.89-4.4,1.38-1.77,1.84-1.16,2.56Z" style="fill:#3e25a7"/></g><g id="Group-152"><path id="Fill-150" d="M110.35,122.76a1,1,0,1,0,0-.07.15.15,0,0,0,0,.07" style="fill:#4097ff"/></g></g><g id="Group-178"><g id="Group-156"><path id="Fill-154" d="M147.66,93.76h46.41a6.63,6.63,0,0,1,6.63,6.63h0v23.23h0V146.8a6.63,6.63,0,0,1-6.63,6.63H147.66A6.63,6.63,0,0,1,141,146.8h0V123.64h0V100.42a6.63,6.63,0,0,1,6.6-6.66h0" style="fill:#ecf5fc"/></g><g id="Group-159"><path id="Fill-157" d="M155.2,130.69c4-1.83,18.84.37,18.84.37s2,.24,4.65.69c4.67.78,11.47,2.18,13.61,4,3.36,2.83,3.63,12.19,2.65,13.67s-23.4,1.19-23.4,1.19-23.86.41-24.4-1.27,4.06-16.81,8-18.64" style="fill:#b9d0f9"/></g><g id="Group-162"><path id="Fill-160" d="M165.84,126.76c-1.92-2.5-3.4-12.75,5.09-13.41s6.91,11.12,6.91,11.12l-.3,7.09-5,2.25-4.84-1.65-.1-4.2" style="fill:#4097ff"/></g><g id="Group-165"><polygon id="Fill-163" points="171.4 127.64 167.71 130.99 167.64 127.92 171.4 127.64" style="fill:#3e25a7"/></g><g id="Group-168"><path id="Fill-166" d="M177.84,124.43s1.57-11.79-6.91-11.12-7,10.91-5.09,13.41,5.89.79,5.89.79Z" style="fill:#4097ff"/></g><g id="Group-171"><path id="Fill-169" d="M177.73,128.45s6.15-1.29,4.66-4.93,1.6-4.34.23-7-2.57-2-4.2-3.69-.63-4.32-4.6-4.81-5.45,2.48-7,3.11-4.95.36-5.88,3,1,4.18.78,6.12,4.47,3.9,5.6.48,9.28-4.78,9.39,2.84,1,4.93,1,4.93" style="fill:#3e25a7"/></g><g id="Group-174"><path id="Fill-172" d="M175.68,121.43a1,1,0,1,0,0-.07.15.15,0,0,0,0,.07" style="fill:#4097ff"/></g><g id="Group-177"><path id="Fill-175" d="M177.59,130.38l1.1,1.37s-.22,3.08-6.35,2.73-5.27-4.22-5.27-4.22l.62-.07s.27,2.38,4.62,2.62,5.28-2.43,5.28-2.43" style="fill:#b9d0f9"/></g></g><g id="Group-203"><g id="Group-181"><path id="Fill-179" d="M214.66,93.76h46.41a6.63,6.63,0,0,1,6.63,6.63h0v23.23h0V146.8a6.63,6.63,0,0,1-6.63,6.63H214.66A6.63,6.63,0,0,1,208,146.8h0V123.64h0V100.42a6.63,6.63,0,0,1,6.6-6.66h0" style="fill:#ecf5fc"/></g><g id="Group-184"><path id="Fill-182" d="M254.35,130.69c-4-1.83-18.84.37-18.84.37s-2,.24-4.65.69c-4.67.78-11.47,2.18-13.61,4-3.36,2.83-3.63,12.19-2.65,13.67s23.4,1.19,23.4,1.19,23.86.41,24.4-1.27-4.06-16.81-8-18.64" style="fill:#b9d0f9"/></g><g id="Group-187"><path id="Fill-185" d="M243.71,126.76c1.92-2.5,3.4-12.75-5.09-13.41s-6.91,11.12-6.91,11.12l.3,7.09,5,2.25,4.84-1.65.1-4.2" style="fill:#4097ff"/></g><g id="Group-190"><polygon id="Fill-188" points="238.15 127.64 241.84 130.99 241.91 127.92 238.15 127.64" style="fill:#3e25a7"/></g><g id="Group-193"><path id="Fill-191" d="M231.71,124.43s-1.57-11.79,6.91-11.12,7,10.91,5.09,13.41-5.89.79-5.89.79Z" style="fill:#4097ff"/></g><g id="Group-196"><path id="Fill-194" d="M232.67,124.86c-2.24-1.11-5.31-2.71-5.53-5.11-.16-4.42.71-9,4.91-11.55a10.74,10.74,0,0,1,10-.57,11.6,11.6,0,0,1,2,1.06,12.93,12.93,0,0,1,1.82,1.48,6.91,6.91,0,0,1,1.6,7.6,12.54,12.54,0,0,1-.88,1.94c-.31.66-1.29,1.58-1.41,2.24.28-5-5.17-6.41-9.13-4.55s-3.43,6.44-3.36,7.46" style="fill:#3e25a7"/></g><g id="Group-199"><path id="Fill-197" d="M233.87,121.43a1,1,0,1,1,0-.07.15.15,0,0,1,0,.07" style="fill:#4097ff"/></g><g id="Group-202"><path id="Fill-200" d="M232,130.38l-1.1,1.37s.22,3.08,6.35,2.73,5.27-4.22,5.27-4.22l-.62-.07s-.27,2.38-4.62,2.62-5.28-2.43-5.28-2.43" style="fill:#b9d0f9"/></g></g><g id="Group-228"><g id="Group-206"><path id="Fill-204" d="M280.66,93.76h46.41a6.63,6.63,0,0,1,6.63,6.63h0v23.23h0V146.8a6.63,6.63,0,0,1-6.63,6.63H280.66A6.63,6.63,0,0,1,274,146.8h0V123.64h0V100.42a6.63,6.63,0,0,1,6.6-6.66h0" style="fill:#ecf5fc"/></g><g id="Group-209"><path id="Fill-207" d="M320.35,130.69c-4-1.83-18.84.37-18.84.37s-2,.24-4.65.69c-4.67.78-11.47,2.18-13.61,4-3.36,2.83-3.63,12.19-2.65,13.67s23.4,1.19,23.4,1.19,23.86.41,24.4-1.27-4.06-16.81-8-18.64" style="fill:#b9d0f9"/></g><g id="Group-212"><path id="Fill-210" d="M309.71,126.76c1.92-2.5,3.4-12.75-5.09-13.41s-6.91,11.12-6.91,11.12l.3,7.09,5,2.25,4.84-1.65.1-4.2" style="fill:#4097ff"/></g><g id="Group-215"><polygon id="Fill-213" points="304.15 127.64 307.84 130.99 307.91 127.92 304.15 127.64" style="fill:#3e25a7"/></g><g id="Group-218"><path id="Fill-216" d="M297.71,124.43s-1.57-11.79,6.91-11.12,7,10.91,5.09,13.41-5.89.79-5.89.79Z" style="fill:#4097ff"/></g><g id="Group-221"><path id="Fill-219" d="M298.67,124.86c-2.24-1.11-5.31-2.71-5.53-5.11-.16-4.42.71-9,4.91-11.55a10.74,10.74,0,0,1,10-.57,11.6,11.6,0,0,1,2,1.06,12.93,12.93,0,0,1,1.82,1.48,6.91,6.91,0,0,1,1.6,7.6,12.54,12.54,0,0,1-.88,1.94c-.31.66-1.29,1.58-1.41,2.24.28-5-5.17-6.41-9.13-4.55s-3.43,6.44-3.36,7.46" style="fill:#3e25a7"/></g><g id="Group-224"><path id="Fill-222" d="M299.87,121.43a1,1,0,1,1,0-.07.15.15,0,0,1,0,.07" style="fill:#4097ff"/></g><g id="Group-227"><path id="Fill-225" d="M298,130.38l-1.1,1.37s.22,3.08,6.35,2.73,5.27-4.22,5.27-4.22l-.62-.07s-.27,2.38-4.62,2.62-5.28-2.43-5.28-2.43" style="fill:#b9d0f9"/></g></g><g id="Group-253"><g id="Group-231"><path id="Fill-229" d="M346.66,93.76h46.41a6.63,6.63,0,0,1,6.63,6.63h0v23.23h0V146.8a6.63,6.63,0,0,1-6.63,6.63H346.66A6.63,6.63,0,0,1,340,146.8h0V123.64h0V100.42a6.63,6.63,0,0,1,6.6-6.66h0" style="fill:#ecf5fc"/></g><g id="Group-234"><path id="Fill-232" d="M386.35,130.69c-4-1.83-18.84.37-18.84.37s-2,.24-4.65.69c-4.67.78-11.47,2.18-13.61,4-3.36,2.83-3.63,12.19-2.65,13.67s23.4,1.19,23.4,1.19,23.86.41,24.4-1.27-4.06-16.81-8-18.64" style="fill:#b9d0f9"/></g><g id="Group-237"><path id="Fill-235" d="M375.71,126.76c1.92-2.5,3.4-12.75-5.09-13.41s-6.91,11.12-6.91,11.12l.3,7.09,5,2.25,4.84-1.65.1-4.2" style="fill:#4097ff"/></g><g id="Group-240"><polygon id="Fill-238" points="370.15 127.64 373.84 130.99 373.91 127.92 370.15 127.64" style="fill:#3e25a7"/></g><g id="Group-243"><path id="Fill-241" d="M363.71,124.43s-1.57-11.79,6.91-11.12,7,10.91,5.09,13.41-5.89.79-5.89.79Z" style="fill:#4097ff"/></g><g id="Group-246"><path id="Fill-244" d="M364.67,124.86c-2.24-1.11-5.31-2.71-5.53-5.11-.16-4.42.71-9,4.91-11.55a10.74,10.74,0,0,1,10-.57,11.6,11.6,0,0,1,2,1.06,12.93,12.93,0,0,1,1.82,1.48,6.91,6.91,0,0,1,1.6,7.6,12.54,12.54,0,0,1-.88,1.94c-.31.66-1.29,1.58-1.41,2.24.28-5-5.17-6.41-9.13-4.55s-3.43,6.44-3.36,7.46" style="fill:#3e25a7"/></g><g id="Group-249"><path id="Fill-247" d="M365.87,121.43a1,1,0,1,1,0-.07.15.15,0,0,1,0,.07" style="fill:#4097ff"/></g><g id="Group-252"><path id="Fill-250" d="M364,130.38l-1.1,1.37s.22,3.08,6.35,2.73,5.27-4.22,5.27-4.22l-.62-.07s-.27,2.38-4.62,2.62-5.28-2.43-5.28-2.43" style="fill:#b9d0f9"/></g></g><g id="Group-278"><g id="Group-256"><path id="Fill-254" d="M82.66,159.76h46.41a6.63,6.63,0,0,1,6.63,6.63h0V212.8a6.63,6.63,0,0,1-6.63,6.63H82.66a6.63,6.63,0,0,1-6.66-6.6h0V166.42a6.63,6.63,0,0,1,6.6-6.66h.06" style="fill:#ecf5fc"/></g><g id="Group-259"><path id="Fill-257" d="M124.76,195.58c-4-1.83-14,1.41-14,1.41s-1.58,1.6-6.19,1c-3.64-.51-11-1.55-16.94,2.67-3.58,2.55,6.72,12.67,7.69,14.14s25.24,1.31,25.78-.36,7.62-17,3.63-18.83" style="fill:#b9d0f9"/></g><g id="Group-262"><path id="Fill-260" d="M105.86,197.63s-7.46,2-10.34-.1c-1.46-1.07,3.91-3,3-6.75-2-8.29,3.07-16.7,8.88-16.87,11.2-.33,15.14,19.43,3.42,23-4.83,1.48-1.51-11.45-1.51-11.45Z" style="fill:#3e25a7"/></g><g id="Group-265"><path id="Fill-263" d="M114.12,190.29c1.92-2.5,3.4-12.75-5.09-13.42S102.12,188,102.12,188l1.77,10s4.43,9.51,6.41,9.51.27-10.41.27-10.41l.31-5.8" style="fill:#4097ff"/></g><g id="Group-268"><polygon id="Fill-266" points="108.42 190.88 110.83 193.81 110.86 192.24 108.42 190.88" style="fill:#3e25a7"/></g><g id="Group-271"><path id="Fill-269" d="M102.12,188s-1.57-11.78,6.91-11.12,6.69,10.7,5.09,13.42c-2.28,3.89-5.89.79-5.89.79Z" style="fill:#4097ff"/></g><g id="Group-274"><path id="Fill-272" d="M115.38,182.34s-8.34-4.67-10.77,1,.63,14-.72,14.64-5.09-13.53-5.09-13.53l4.46-8.08,5.3-.89,4.36,1.32,1.77,1.84,1.16,2.56Z" style="fill:#3e25a7"/></g><g id="Group-277"><path id="Fill-275" d="M104.61,186.33a1,1,0,1,1,0-.07.15.15,0,0,1,0,.07" style="fill:#4097ff"/></g></g><g id="Group-303"><g id="Group-281"><path id="Fill-279" d="M346.64,27h46.41a6.63,6.63,0,0,1,6.63,6.63h0V56.86h0V80.05a6.62,6.62,0,0,1-6.62,6.62H346.64A6.63,6.63,0,0,1,340,80.05h0V56.85h0V33.63A6.63,6.63,0,0,1,346.63,27h0" style="fill:#ecf5fc"/></g><g id="Group-284"><path id="Fill-282" d="M388.74,62.76c-4-1.83-14,1.41-14,1.41s-1.58,1.6-6.18,1c-3.65-.5-11-1.54-16.95,2.68-3.58,2.54,6.72,12.67,7.7,14.14s25.23,1.31,25.78-.37,7.62-17,3.62-18.82" style="fill:#b9d0f9"/></g><g id="Group-287"><path id="Fill-285" d="M369.84,64.85s-7.46,2-10.34-.1c-1.46-1.07,3.92-3,3-6.76-2.05-8.29,3.08-16.7,8.89-16.87,11.19-.32,15.13,19.44,3.41,23-4.83,1.48-1.51-11.46-1.51-11.46Z" style="fill:#3e25a7"/></g><g id="Group-290"><path id="Fill-288" d="M378.11,57.51C380,55,381.5,44.76,373,44.09s-6.92,11.12-6.92,11.12l1.78,10s4.43,9.51,6.4,9.51.28-10.4.28-10.4l.3-5.8" style="fill:#4097ff"/></g><g id="Group-293"><polygon id="Fill-291" points="372.4 58.09 374.81 61.02 374.84 59.45 372.4 58.09" style="fill:#3e25a7"/></g><g id="Group-296"><path id="Fill-294" d="M366.1,55.21s-1.57-11.79,6.9-11.12,6.68,10.7,5.09,13.42c-2.29,3.89-5.9.78-5.9.78Z" style="fill:#4097ff"/></g><g id="Group-299"><path id="Fill-297" d="M379.36,49.56s-8.33-4.67-10.77,1,.64,14-.71,14.64-5.1-13.44-5.1-13.44l4.47-8.09,5.29-.88,4.37,1.31L378.67,46l1.16,2.55Z" style="fill:#3e25a7"/></g><g id="Group-302"><path id="Fill-300" d="M368.6,53.54a1,1,0,0,1-1.14.84l-.08,0a1,1,0,0,1,.39-2,1,1,0,0,1,.84,1.13.19.19,0,0,1,0,.08" style="fill:#4097ff"/></g></g><g id="Group-328"><g id="Group-306"><path id="Fill-304" d="M147.66,159.76h46.41a6.63,6.63,0,0,1,6.63,6.63h0V212.8a6.63,6.63,0,0,1-6.63,6.63H147.66A6.63,6.63,0,0,1,141,212.8h0V166.42a6.63,6.63,0,0,1,6.63-6.63h0" style="fill:#ecf5fc"/></g><g id="Group-309"><path id="Fill-307" d="M187.35,196.69c-4-1.83-18.84.37-18.84.37s-2,.24-4.65.69c-4.67.78-11.47,2.18-13.61,4-3.36,2.83-3.63,12.19-2.65,13.67s23.4,1.19,23.4,1.19,23.86.41,24.4-1.27-4.06-16.81-8.05-18.64" style="fill:#b9d0f9"/></g><g id="Group-312"><path id="Fill-310" d="M176.71,192.76c1.92-2.5,3.4-12.75-5.09-13.41s-6.91,11.11-6.91,11.11l.3,7.1,5,2.25,4.84-1.65.1-4.2" style="fill:#4097ff"/></g><g id="Group-315"><polygon id="Fill-313" points="171.15 193.64 174.84 196.99 174.91 193.93 171.15 193.64" style="fill:#3e25a7"/></g><g id="Group-318"><path id="Fill-316" d="M164.71,190.43s-1.57-11.79,6.91-11.12,7,10.91,5.09,13.41-5.89.79-5.89.79Z" style="fill:#4097ff"/></g><g id="Group-321"><path id="Fill-319" d="M164.85,193.9s-1,3.77-3.56,2-3.28-17.6,2.83-19.42,15.86-1.31,16.8,4.73-2.32,8.73-2.77,6.84c-1.15-5-9.55-3.18-10.83-2.48s-2.47,8.38-2.47,8.38" style="fill:#3e25a7"/></g><g id="Group-324"><path id="Fill-322" d="M166.87,188.76a1,1,0,1,1,0-.07.15.15,0,0,1,0,.07" style="fill:#4097ff"/></g><g id="Group-327"><path id="Fill-325" d="M165,196.38l-1.1,1.37s.22,3.08,6.35,2.73,5.27-4.22,5.27-4.22l-.62-.07s-.27,2.38-4.62,2.62-5.28-2.43-5.28-2.43" style="fill:#b9d0f9"/></g></g><g id="Group-353"><g id="Group-331"><path id="Fill-329" d="M214.66,159.76h46.41a6.63,6.63,0,0,1,6.63,6.63h0V212.8a6.63,6.63,0,0,1-6.63,6.63H214.66A6.63,6.63,0,0,1,208,212.8h0V166.42a6.63,6.63,0,0,1,6.63-6.63h0" style="fill:#ecf5fc"/></g><g id="Group-334"><path id="Fill-332" d="M254.35,196.69c-4-1.83-18.84.37-18.84.37s-2,.24-4.65.69c-4.67.78-11.47,2.18-13.61,4-3.36,2.83-3.63,12.19-2.65,13.67s23.4,1.19,23.4,1.19,23.86.41,24.4-1.27-4.06-16.81-8-18.64" style="fill:#b9d0f9"/></g><g id="Group-337"><path id="Fill-335" d="M243.71,192.76c1.92-2.5,3.4-12.75-5.09-13.41s-6.91,11.11-6.91,11.11l.3,7.1,5,2.25,4.84-1.65.1-4.2" style="fill:#4097ff"/></g><g id="Group-340"><polygon id="Fill-338" points="238.15 193.64 241.84 196.99 241.91 193.93 238.15 193.64" style="fill:#3e25a7"/></g><g id="Group-343"><path id="Fill-341" d="M231.71,190.43s-1.57-11.79,6.91-11.12,7,10.91,5.09,13.41-5.89.79-5.89.79Z" style="fill:#4097ff"/></g><g id="Group-346"><path id="Fill-344" d="M232.67,190.86c-2.24-1.11-5.31-2.71-5.53-5.11-.16-4.42.71-9,4.91-11.55a10.74,10.74,0,0,1,10-.57,11.6,11.6,0,0,1,2,1.06,12.93,12.93,0,0,1,1.82,1.48,6.91,6.91,0,0,1,1.6,7.6,12.54,12.54,0,0,1-.88,1.94c-.31.66-1.29,1.58-1.41,2.24.28-5-5.17-6.41-9.13-4.55s-3.43,6.44-3.36,7.46" style="fill:#3e25a7"/></g><g id="Group-349"><path id="Fill-347" d="M233.87,187.43a1,1,0,1,1,0-.07.15.15,0,0,1,0,.07" style="fill:#4097ff"/></g><g id="Group-352"><path id="Fill-350" d="M232,196.38l-1.1,1.37s.22,3.08,6.35,2.73,5.27-4.22,5.27-4.22l-.62-.07s-.27,2.38-4.62,2.62-5.28-2.43-5.28-2.43" style="fill:#b9d0f9"/></g></g><g id="Group-378"><g id="Group-356"><path id="Fill-354" d="M280.66,159.76h46.41a6.63,6.63,0,0,1,6.63,6.63h0V212.8a6.63,6.63,0,0,1-6.63,6.63H280.66A6.63,6.63,0,0,1,274,212.8h0V166.42a6.63,6.63,0,0,1,6.63-6.63h0" style="fill:#ecf5fc"/></g><g id="Group-359"><path id="Fill-357" d="M320.35,196.69c-4-1.83-18.84.37-18.84.37s-2,.24-4.65.69c-4.67.78-11.47,2.18-13.61,4-3.36,2.83-3.63,12.19-2.65,13.67s23.4,1.19,23.4,1.19,23.86.41,24.4-1.27-4.06-16.81-8-18.64" style="fill:#b9d0f9"/></g><g id="Group-362"><path id="Fill-360" d="M309.71,192.76c1.92-2.5,3.4-12.75-5.09-13.41s-6.91,11.11-6.91,11.11l.3,7.1,5,2.25,4.84-1.65.1-4.2" style="fill:#4097ff"/></g><g id="Group-365"><polygon id="Fill-363" points="304.15 193.64 307.84 196.99 307.91 193.93 304.15 193.64" style="fill:#3e25a7"/></g><g id="Group-368"><path id="Fill-366" d="M297.71,190.43s-1.57-11.79,6.91-11.12,7,10.91,5.09,13.41-5.89.79-5.89.79Z" style="fill:#4097ff"/></g><g id="Group-371"><path id="Fill-369" d="M298.67,190.86c-2.24-1.11-5.31-2.71-5.53-5.11-.16-4.42.71-9,4.91-11.55a10.74,10.74,0,0,1,10-.57,11.6,11.6,0,0,1,2,1.06,12.93,12.93,0,0,1,1.82,1.48,6.91,6.91,0,0,1,1.6,7.6,12.54,12.54,0,0,1-.88,1.94c-.31.66-1.29,1.58-1.41,2.24.28-5-5.17-6.41-9.13-4.55s-3.43,6.44-3.36,7.46" style="fill:#3e25a7"/></g><g id="Group-374"><path id="Fill-372" d="M299.87,187.43a1,1,0,1,1,0-.07.15.15,0,0,1,0,.07" style="fill:#4097ff"/></g><g id="Group-377"><path id="Fill-375" d="M298,196.38l-1.1,1.37s.22,3.08,6.35,2.73,5.27-4.22,5.27-4.22l-.62-.07s-.27,2.38-4.62,2.62-5.28-2.43-5.28-2.43" style="fill:#b9d0f9"/></g></g><g id="Group-403"><g id="Group-381"><path id="Fill-379" d="M346.66,159.76h46.41a6.63,6.63,0,0,1,6.63,6.63h0V212.8a6.63,6.63,0,0,1-6.63,6.63H346.66A6.63,6.63,0,0,1,340,212.8h0V166.42a6.63,6.63,0,0,1,6.63-6.63h0" style="fill:#ecf5fc"/></g><g id="Group-384"><path id="Fill-382" d="M386.35,196.69c-4-1.83-18.84.37-18.84.37s-2,.24-4.65.69c-4.67.78-11.47,2.18-13.61,4-3.36,2.83-3.63,12.19-2.65,13.67s23.4,1.19,23.4,1.19,23.86.41,24.4-1.27-4.06-16.81-8-18.64" style="fill:#b9d0f9"/></g><g id="Group-387"><path id="Fill-385" d="M375.71,192.76c1.92-2.5,3.4-12.75-5.09-13.41s-6.91,11.11-6.91,11.11l.3,7.1,5,2.25,4.84-1.65.1-4.2" style="fill:#4097ff"/></g><g id="Group-390"><polygon id="Fill-388" points="370.15 193.64 373.84 196.99 373.91 193.93 370.15 193.64" style="fill:#3e25a7"/></g><g id="Group-393"><path id="Fill-391" d="M363.71,190.43s-1.57-11.79,6.91-11.12,7,10.91,5.09,13.41-5.89.79-5.89.79Z" style="fill:#4097ff"/></g><g id="Group-396"><path id="Fill-394" d="M364.67,190.86c-2.24-1.11-5.31-2.71-5.53-5.11-.16-4.42.71-9,4.91-11.55a10.74,10.74,0,0,1,10-.57,11.6,11.6,0,0,1,2,1.06,12.93,12.93,0,0,1,1.82,1.48,6.91,6.91,0,0,1,1.6,7.6,12.54,12.54,0,0,1-.88,1.94c-.31.66-1.29,1.58-1.41,2.24.28-5-5.17-6.41-9.13-4.55s-3.43,6.44-3.36,7.46" style="fill:#3e25a7"/></g><g id="Group-399"><path id="Fill-397" d="M365.87,187.43a1,1,0,1,1,0-.07.15.15,0,0,1,0,.07" style="fill:#4097ff"/></g><g id="Group-402"><path id="Fill-400" d="M364,196.38l-1.1,1.37s.22,3.08,6.35,2.73,5.27-4.22,5.27-4.22l-.62-.07s-.27,2.38-4.62,2.62-5.28-2.43-5.28-2.43" style="fill:#b9d0f9"/></g></g><g id="Group-428"><g id="Group-406"><path id="Fill-404" d="M82.66,224.76h46.41a6.63,6.63,0,0,1,6.63,6.63h0V277.8a6.63,6.63,0,0,1-6.63,6.63H82.66a6.63,6.63,0,0,1-6.66-6.6h0V231.42a6.63,6.63,0,0,1,6.6-6.66h.06" style="fill:#ecf5fc"/></g><g id="Group-409"><path id="Fill-407" d="M124.21,263.15c-2.42-3.67-8.79-1.19-13.21-1.06q-6.09,0-12.14.66c-4.67.78-12.52-1-14.65.82-3.36,2.83-2.59,15.36-1.61,16.84S106,281.6,106,281.6s23.86.41,24.4-1.27-.12-8-6.19-17.18" style="fill:#b9d0f9"/></g><g id="Group-412"><path id="Fill-410" d="M111.71,257.76c1.92-2.5,3.4-12.75-5.09-13.41s-6.91,11.11-6.91,11.11l.3,7.1,5,2.25,4.84-1.65.1-4.2" style="fill:#4097ff"/></g><g id="Group-415"><polygon id="Fill-413" points="106.15 258.64 109.84 261.99 109.91 258.93 106.15 258.64" style="fill:#3e25a7"/></g><g id="Group-418"><path id="Fill-416" d="M99.71,255.43s-1.57-11.79,6.91-11.12,7,10.91,5.09,13.41-5.89.79-5.89.79Z" style="fill:#4097ff"/></g><g id="Group-421"><path id="Fill-419" d="M109.91,250.26a16.7,16.7,0,0,0,6.38,1.42c2.6-.12,6.79-8.94,2.31-10.81s-20.95-2.68-20.23,8.74,1.81,9,1.81,9h.67s-.1-6.35,1.42-8.08,6.53-.7,7.64-.29" style="fill:#3e25a7"/></g><g id="Group-424"><path id="Fill-422" d="M102.2,253.1a1,1,0,0,1-1.2.74,1,1,0,1,1,1.22-.82s0,0,0,.08" style="fill:#4097ff"/></g><g id="Group-427"><path id="Fill-425" d="M100,261.38l-1.14,1.38s.22,3.08,6.35,2.73S111,262.1,111,262.1l-1.14-.9s-.27,2.38-4.62,2.62-5.28-2.43-5.28-2.43" style="fill:#b9d0f9"/></g></g><g id="Group-453"><g id="Group-431"><path id="Fill-429" d="M147.66,224.76h46.41a6.63,6.63,0,0,1,6.63,6.63h0V277.8a6.63,6.63,0,0,1-6.63,6.63H147.66A6.63,6.63,0,0,1,141,277.8h0V231.42a6.63,6.63,0,0,1,6.63-6.63h0" style="fill:#ecf5fc"/></g><g id="Group-434"><path id="Fill-432" d="M187.35,261.69c-4-1.83-18.84.37-18.84.37s-2,.24-4.65.69c-4.67.78-11.47,2.18-13.61,4-3.36,2.83-3.63,12.19-2.65,13.67s23.4,1.19,23.4,1.19,23.86.41,24.4-1.27-4.06-16.81-8.05-18.64" style="fill:#b9d0f9"/></g><g id="Group-437"><path id="Fill-435" d="M176.71,257.76c1.92-2.5,3.4-12.75-5.09-13.41s-6.91,11.11-6.91,11.11l.3,7.1,5,2.25,4.84-1.65.1-4.2" style="fill:#4097ff"/></g><g id="Group-440"><polygon id="Fill-438" points="171.15 258.64 174.84 261.99 174.91 258.93 171.15 258.64" style="fill:#3e25a7"/></g><g id="Group-443"><path id="Fill-441" d="M164.71,255.43s-1.57-11.79,6.91-11.12,7,10.91,5.09,13.41-5.89.79-5.89.79Z" style="fill:#4097ff"/></g><g id="Group-446"><path id="Fill-444" d="M164.85,258.68c-1.66,2-4.39,1.82-4.61-.59-.16-4.42-1-16.31,3.16-18.88a14.36,14.36,0,0,1,11.62-.58,11.6,11.6,0,0,1,2,1.06,12.93,12.93,0,0,1,1.82,1.48,6.91,6.91,0,0,1,1.6,7.6,12.54,12.54,0,0,1-.88,1.94c-.31.66-1.29,1.58-1.41,2.24.28-5-5.17-6.41-9.13-4.55s-4.25,9.26-4.18,10.28" style="fill:#3e25a7"/></g><g id="Group-449"><path id="Fill-447" d="M166.87,252.43a1,1,0,1,1,0-.07.15.15,0,0,1,0,.07" style="fill:#4097ff"/></g><g id="Group-452"><path id="Fill-450" d="M165,261.38l-1.1,1.37s.22,3.08,6.35,2.73,5.27-4.22,5.27-4.22l-.62-.07s-.27,2.38-4.62,2.62-5.28-2.43-5.28-2.43" style="fill:#b9d0f9"/></g></g><g id="Group-478"><g id="Group-456"><path id="Fill-454" d="M214.66,224.76h46.41a6.63,6.63,0,0,1,6.63,6.63h0V277.8a6.63,6.63,0,0,1-6.63,6.63H214.66A6.63,6.63,0,0,1,208,277.8h0V231.42a6.63,6.63,0,0,1,6.63-6.63h0" style="fill:#ecf5fc"/></g><g id="Group-459"><path id="Fill-457" d="M254.35,261.69c-4-1.83-18.84.37-18.84.37s-2,.24-4.65.69c-4.67.78-11.47,2.18-13.61,4-3.36,2.83-3.63,12.19-2.65,13.67s23.4,1.19,23.4,1.19,23.86.41,24.4-1.27-4.06-16.81-8-18.64" style="fill:#b9d0f9"/></g><g id="Group-462"><path id="Fill-460" d="M243.71,257.76c1.92-2.5,3.4-12.75-5.09-13.41s-6.91,11.11-6.91,11.11l.3,7.1,5,2.25,4.84-1.65.1-4.2" style="fill:#4097ff"/></g><g id="Group-465"><polygon id="Fill-463" points="238.15 258.64 241.84 261.99 241.91 258.93 238.15 258.64" style="fill:#3e25a7"/></g><g id="Group-468"><path id="Fill-466" d="M231.71,255.43s-1.57-11.79,6.91-11.12,7,10.91,5.09,13.41-5.89.79-5.89.79Z" style="fill:#4097ff"/></g><g id="Group-471"><path id="Fill-469" d="M232.67,255.86c-2.24-1.11-5.31-2.71-5.53-5.11-.16-4.42.71-9,4.91-11.55a10.74,10.74,0,0,1,10-.57,11.6,11.6,0,0,1,2,1.06,12.93,12.93,0,0,1,1.82,1.48,6.91,6.91,0,0,1,1.6,7.6,12.54,12.54,0,0,1-.88,1.94c-.31.66-1.29,1.58-1.41,2.24.28-5-5.17-6.41-9.13-4.55s-3.43,6.44-3.36,7.46" style="fill:#3e25a7"/></g><g id="Group-474"><path id="Fill-472" d="M233.87,252.43a1,1,0,1,1,0-.07.15.15,0,0,1,0,.07" style="fill:#4097ff"/></g><g id="Group-477"><path id="Fill-475" d="M232,261.38l-1.1,1.37s.22,3.08,6.35,2.73,5.27-4.22,5.27-4.22l-.62-.07s-.27,2.38-4.62,2.62-5.28-2.43-5.28-2.43" style="fill:#b9d0f9"/></g></g><g id="Group-503"><g id="Group-481"><path id="Fill-479" d="M280.66,224.76h46.41a6.63,6.63,0,0,1,6.63,6.63h0V277.8a6.63,6.63,0,0,1-6.63,6.63H280.66A6.63,6.63,0,0,1,274,277.8h0V231.42a6.63,6.63,0,0,1,6.63-6.63h0" style="fill:#ecf5fc"/></g><g id="Group-484"><path id="Fill-482" d="M320.35,261.69c-4-1.83-18.84.37-18.84.37s-2,.24-4.65.69c-4.67.78-11.47,2.18-13.61,4-3.36,2.83-3.63,12.19-2.65,13.67s23.4,1.19,23.4,1.19,23.86.41,24.4-1.27-4.06-16.81-8-18.64" style="fill:#b9d0f9"/></g><g id="Group-487"><path id="Fill-485" d="M309.71,257.76c1.92-2.5,3.4-12.75-5.09-13.41s-6.91,11.11-6.91,11.11l.3,7.1,5,2.25,4.84-1.65.1-4.2" style="fill:#4097ff"/></g><g id="Group-490"><polygon id="Fill-488" points="304.15 258.64 307.84 261.99 307.91 258.93 304.15 258.64" style="fill:#3e25a7"/></g><g id="Group-493"><path id="Fill-491" d="M297.71,255.43s-1.57-11.79,6.91-11.12,7,10.91,5.09,13.41-5.89.79-5.89.79Z" style="fill:#4097ff"/></g><g id="Group-496"><path id="Fill-494" d="M298.67,255.86c-2.24-1.11-5.31-2.71-5.53-5.11-.16-4.42.71-9,4.91-11.55a10.74,10.74,0,0,1,10-.57,11.6,11.6,0,0,1,2,1.06,12.93,12.93,0,0,1,1.82,1.48,6.91,6.91,0,0,1,1.6,7.6,12.54,12.54,0,0,1-.88,1.94c-.31.66-1.29,1.58-1.41,2.24.28-5-5.17-6.41-9.13-4.55s-3.43,6.44-3.36,7.46" style="fill:#3e25a7"/></g><g id="Group-499"><path id="Fill-497" d="M299.87,252.43a1,1,0,1,1,0-.07.15.15,0,0,1,0,.07" style="fill:#4097ff"/></g><g id="Group-502"><path id="Fill-500" d="M298,261.38l-1.1,1.37s.22,3.08,6.35,2.73,5.27-4.22,5.27-4.22l-.62-.07s-.27,2.38-4.62,2.62-5.28-2.43-5.28-2.43" style="fill:#b9d0f9"/></g></g><g id="Group-528"><g id="Group-506"><path id="Fill-504" d="M346.66,224.76h46.41a6.63,6.63,0,0,1,6.63,6.63h0V277.8a6.63,6.63,0,0,1-6.63,6.63H346.66A6.63,6.63,0,0,1,340,277.8h0V231.42a6.63,6.63,0,0,1,6.63-6.63h0" style="fill:#ecf5fc"/></g><g id="Group-509"><path id="Fill-507" d="M386.35,261.69c-4-1.83-18.84.37-18.84.37s-2,.24-4.65.69c-4.67.78-11.47,2.18-13.61,4-3.36,2.83-3.63,12.19-2.65,13.67s23.4,1.19,23.4,1.19,23.86.41,24.4-1.27-4.06-16.81-8-18.64" style="fill:#b9d0f9"/></g><g id="Group-512"><path id="Fill-510" d="M375.71,257.76c1.92-2.5,3.4-12.75-5.09-13.41s-6.91,11.11-6.91,11.11l.3,7.1,5,2.25,4.84-1.65.1-4.2" style="fill:#4097ff"/></g><g id="Group-515"><polygon id="Fill-513" points="370.15 258.64 373.84 261.99 373.91 258.93 370.15 258.64" style="fill:#3e25a7"/></g><g id="Group-518"><path id="Fill-516" d="M363.71,255.43s-1.57-11.79,6.91-11.12,7,10.91,5.09,13.41-5.89.79-5.89.79Z" style="fill:#4097ff"/></g><g id="Group-521"><path id="Fill-519" d="M364.67,255.86c-2.24-1.11-5.31-2.71-5.53-5.11-.16-4.42.71-9,4.91-11.55a10.74,10.74,0,0,1,10-.57,11.6,11.6,0,0,1,2,1.06,12.93,12.93,0,0,1,1.82,1.48,6.91,6.91,0,0,1,1.6,7.6,12.54,12.54,0,0,1-.88,1.94c-.31.66-1.29,1.58-1.41,2.24.28-5-5.17-6.41-9.13-4.55s-3.43,6.44-3.36,7.46" style="fill:#3e25a7"/></g><g id="Group-524"><path id="Fill-522" d="M365.87,252.43a1,1,0,1,1,0-.07.15.15,0,0,1,0,.07" style="fill:#4097ff"/></g><g id="Group-527"><path id="Fill-525" d="M364,261.38l-1.1,1.37s.22,3.08,6.35,2.73,5.27-4.22,5.27-4.22l-.62-.07s-.27,2.38-4.62,2.62-5.28-2.43-5.28-2.43" style="fill:#b9d0f9"/></g></g><g id="Group-543"><polygon id="Fill-529" points="7 288.62 50.95 288.62 50.95 17.95 7 17.95 7 288.62" style="fill:#ecf5fc"/><path id="Fill-531" d="M21.47,58.16l6.91-7-6.91-7a10,10,0,0,0,0,14" style="fill:#3e25a7"/><path id="Fill-532" d="M22.85,56.76a7.74,7.74,0,0,0,10.95.11l.11-.11a8,8,0,0,0,0-11.2A7.74,7.74,0,0,0,23,45.45l-.11.11a8,8,0,0,0,0,11.2" style="fill:#4097ff"/><path id="Fill-533" d="M28.38,61.06a9.85,9.85,0,0,0,9.78-9.9H28.38Z" style="fill:#3e25a7"/><path id="Fill-534" d="M28.38,41.26v9.9h9.78a9.85,9.85,0,0,0-9.78-9.9h0" style="fill:#3e25a7"/><path id="Fill-535" d="M28.38,43.24a7.92,7.92,0,1,0,7.83,8v-.09a7.87,7.87,0,0,0-7.82-7.92h0" style="fill:#4097ff"/><path id="Fill-536" d="M28.38,75.93a6.6,6.6,0,1,0,6.52,6.68v-.08a6.56,6.56,0,0,0-6.52-6.6h0" style="fill:#dfedf8"/><path id="Fill-537" d="M28.38,95.3A6.6,6.6,0,1,0,34.9,102v-.08a6.56,6.56,0,0,0-6.52-6.6h0" style="fill:#dfedf8"/><path id="Fill-538" d="M28.38,114.66a6.61,6.61,0,1,0,6.52,6.7v-.1a6.56,6.56,0,0,0-6.52-6.6h0" style="fill:#dfedf8"/><path id="Fill-539" d="M28.38,134a6.6,6.6,0,1,0,6.52,6.68v-.08a6.56,6.56,0,0,0-6.52-6.6h0" style="fill:#dfedf8"/><path id="Fill-540" d="M28.38,153.4a6.6,6.6,0,1,0,6.52,6.68V160a6.56,6.56,0,0,0-6.52-6.6h0" style="fill:#dfedf8"/><path id="Fill-541" d="M28.38,258.37a6.61,6.61,0,1,0,6.52,6.7V265a6.56,6.56,0,0,0-6.52-6.6h0" style="fill:#dfedf8"/><polygon id="Fill-542" points="26.08 47.59 31.7 51.03 26.08 54.47 26.08 47.59" style="fill:#3e25a7"/></g><g id="Group-583"><g id="Group-546"><path id="Fill-544" d="M530.85,344.62H181.91a9.92,9.92,0,0,1-9.91-9.86V106.86A9.91,9.91,0,0,1,181.91,97H530.85a9.91,9.91,0,0,1,9.91,9.91v227.9a9.91,9.91,0,0,1-9.91,9.91" style="fill:#ecf5fc"/></g><g id="Group-549"><path id="Fill-547" d="M442.48,213.68C414.42,200.76,310,216.24,310,216.24s-104.71,13-128.31,32.89-25.5,85.7-18.67,96,164.48,8.42,164.48,8.42,167.7,2.82,171.52-9-28.48-118-56.54-130.87" style="fill:#3e25a7"/></g><g id="Group-552"><polygon id="Fill-550" points="264.93 223.29 274.71 211.45 312.29 215.92 298.22 245.4 264.93 223.29" style="fill:#ecf5fc"/></g><g id="Group-555"><polygon id="Fill-553" points="360.71 210.53 347.3 201.58 312.29 215.92 333.72 240.58 360.71 210.53" style="fill:#ecf5fc"/></g><g id="Group-558"><polygon id="Fill-556" points="312.29 215.92 301.09 239.39 317.2 252 329.23 235.41 312.29 215.92" style="fill:#4097ff"/></g><g id="Group-561"><polygon id="Fill-559" points="323.49 243.32 316.98 251.44 308.76 245.32 307.32 356.24 333.72 373.82 356.38 356.24 323.49 243.32" style="fill:#4097ff"/></g><g id="Group-564"><polygon id="Fill-562" points="308.76 245.32 316.79 250.28 323.49 243.32 324.38 246.37 316.91 250.88 308.74 247.1 308.76 245.32" style="fill:#3e25a7"/></g><g id="Group-567"><path id="Fill-565" d="M435.81,328.11h79.28A9.91,9.91,0,0,0,525,318.2V123.37a9.91,9.91,0,0,0-9.91-9.91H435.81a9.91,9.91,0,0,0-9.91,9.91h0V318.2a9.91,9.91,0,0,0,9.91,9.91h0" style="fill:#dfedf8"/></g><g id="Group-570"><path id="Fill-568" d="M490.62,140H444.07a8.26,8.26,0,1,1,0-16.52h46.55a8.26,8.26,0,0,1,0,16.52" style="fill:#b9d0f9"/></g><g id="Group-573"><path id="Fill-571" d="M490.62,191.19H444.07a8.26,8.26,0,1,1-.57-16.51,5.42,5.42,0,0,1,.57,0h46.55a8.26,8.26,0,0,1,.57,16.51h-.57" style="fill:#b9d0f9"/></g><g id="Group-576"><path id="Fill-574" d="M507.55,319.82H444.07a8.26,8.26,0,1,1-.57-16.51h64.05a8.26,8.26,0,0,1,.57,16.51h-.57" style="fill:#ecf5fc"/></g><g id="Group-579"><path id="Fill-577" d="M506.83,215.92h-20.7a8.26,8.26,0,0,1,0-16.51h20.7a8.26,8.26,0,0,1,.57,16.51,5.42,5.42,0,0,1-.57,0" style="fill:#4097ff"/></g><g id="Group-582"><path id="Fill-580" d="M506.83,165.4H476.65a8.26,8.26,0,1,1-.57-16.51h30.75a8.26,8.26,0,0,1,.57,16.51h-.57" style="fill:#4097ff"/></g></g><g id="Group-604"><path id="Fill-584" d="M350.49,163.11c9.91-19.86,6.6-92.64-52.84-86s-33,86-33,86L276,211.76l36.36,4.34,32.09-13.17-4.83-29.17" style="fill:#4097ff"/><polygon id="Fill-586" points="313.32 176.77 342.25 189.52 339.62 173.8 313.32 176.77" style="fill:#3e25a7"/><path id="Fill-588" d="M264.62,163.11s-26.42-79.41,33-86,62.75,66.17,52.84,86-39.63,13.23-39.63,13.23Z" style="fill:#4097ff"/><path id="Fill-590" d="M260.09,159.91l8.91-1.66s-.57-49.06,7.64-60.46,46-4,46-4S333.1,113,354.8,110.64s24.6-42.9,13.3-51.33S274.56,28,248.81,66.42s11.3,93.44,11.3,93.44" style="fill:#3e25a7"/><path id="Fill-592" d="M282.56,125.61a11.18,11.18,0,1,1-11.18-11.2,11.19,11.19,0,0,1,11.18,11.2v0" style="fill:#4097ff"/><path id="Fill-594" d="M503,309.57l6.82-1.69a.88.88,0,0,1,1.06.65.85.85,0,0,1,0,.42l-1.65,6.81a1.16,1.16,0,0,1-2,.53l-4.78-4.79a1.16,1.16,0,0,1,0-1.64,1.13,1.13,0,0,1,.54-.31" style="fill:#4097ff"/><polygon id="Fill-596" points="507.78 311.66 507.14 311.02 504.56 313.6 505.21 314.24 507.78 311.66" style="fill:#3e25a7"/><path id="Fill-598" d="M12,7.76a2,2,0,1,1-2-2,2,2,0,0,1,2,2" style="fill:#ecf5fc"/><path id="Fill-600" d="M18.8,7.76a2,2,0,1,1-2-2,2,2,0,0,1,2,2" style="fill:#ecf5fc"/><path id="Fill-602" d="M25.35,7.76a2,2,0,1,1-2-2,2,2,0,0,1,2,2" style="fill:#ecf5fc"/></g></g></g></g></g></svg>