<svg id="Réteg_1" data-name="Réteg 1" xmlns="http://www.w3.org/2000/svg" viewBox="0 0 64.01 64"><title>marketing</title><g id="Icon-_-Marketing" data-name="Icon- -Marketing"><g id="Group-23"><path id="Fill-1" d="M32,0A32,32,0,0,0,0,32H32Z" style="fill:#101a28"/><path id="Fill-3" d="M32,64V32H0A32,32,0,0,0,32,64" style="fill:#101a28"/><path id="Fill-5" d="M54.63,9.37,32,32,54.63,54.63a32,32,0,0,0,0-45.25h0" style="fill:#101a28"/><path id="Fill-7" d="M13.9,50.1a25.6,25.6,0,1,0,0-36.2h0a25.59,25.59,0,0,0,0,36.19h0" style="fill:#4097ff"/><path id="Fill-9" d="M32,6.4A25.6,25.6,0,1,0,57.6,32h0A25.6,25.6,0,0,0,32,6.4" style="fill:#4097ff"/><path id="Fill-11" d="M12.8,32H32V12.8A19.2,19.2,0,0,0,12.8,32h0" style="fill:#101a28"/><path id="Fill-13" d="M32,19.2A12.8,12.8,0,1,0,44.8,32,12.8,12.8,0,0,0,32,19.2h0" style="fill:#4097ff"/><path id="Fill-15" d="M32,51.2V32H12.8A19.2,19.2,0,0,0,32,51.2" style="fill:#101a28"/><path id="Fill-17" d="M19.2,32A12.8,12.8,0,1,0,32,19.2h0A12.8,12.8,0,0,0,19.2,32" style="fill:#4097ff"/><path id="Fill-19" d="M45.58,17.65,32,31.22,45.58,44.8a19.21,19.21,0,0,0,0-27.15" style="fill:#101a28"/><path id="Fill-21" d="M41.05,22.17a12.8,12.8,0,1,0,0,18.1h0a12.8,12.8,0,0,0,0-18.1" style="fill:#4097ff"/></g></g></svg>