<svg id="Réteg_1" data-name="Réteg 1" xmlns="http://www.w3.org/2000/svg" viewBox="0 0 200 200"><title>romanian</title><g id="Timeline-icon-_-Romanian" data-name="Timeline-icon- -Romanian"><g id="Group-99"><polygon id="Fill-1" points="80 200 112 200 112 34.78 80 34.78 80 200" style="fill:#ecf5fc"/><polygon id="Fill-2" points="80 200 88 200 88 34.78 80 34.78 80 200" style="fill:#3e25a7"/><polygon id="Fill-3" points="120 200 168 200 168 0 120 0 120 200" style="fill:#ecf5fc"/><polygon id="Fill-4" points="120 200 128 200 128 0 120 0 120 200" style="fill:#3e25a7"/><g id="Group-98"><path id="Fill-5" d="M72,128H8v72H40V160a16,16,0,0,1,32,0v40h32V128Z" style="fill:#b9d0f9"/><polygon id="Fill-7" points="8 200 40 200 40 128 8 128 8 200" style="fill:#ecf5fc"/><polygon id="Fill-9" points="8 200 24 200 24 128 8 128 8 200" style="fill:#3e25a7"/><polygon id="Fill-10" points="72 200 104 200 104 128 72 128 72 200" style="fill:#ecf5fc"/><path id="Fill-11" d="M104,128H8a8,8,0,0,1-8-8H112a8,8,0,0,1-8,8" style="fill:#3e25a7"/><path id="Fill-12" d="M104,128H24a8,8,0,0,1-8-8h96a8,8,0,0,1-8,8" style="fill:#ecf5fc"/><path id="Fill-13" d="M96,112H16a8,8,0,0,1,8-8H88a8,8,0,0,1,8,8" style="fill:#3e25a7"/><path id="Fill-14" d="M96,112H32a8,8,0,0,1,8-8H88a8,8,0,0,1,8,8" style="fill:#ecf5fc"/><polygon id="Fill-15" points="32 104 80 104 80 96 32 96 32 104" style="fill:#b9d0f9"/><polygon id="Fill-16" points="32 104 40 104 40 96 32 96 32 104" style="fill:#3e25a7"/><path id="Fill-17" d="M48,200H0a8,8,0,0,1,8-8H40a8,8,0,0,1,8,8" style="fill:#3e25a7"/><path id="Fill-18" d="M48,200H16a8,8,0,0,1,8-8H40a8,8,0,0,1,8,8" style="fill:#b9d0f9"/><path id="Fill-19" d="M112,200H64a8,8,0,0,1,8-8h32a8,8,0,0,1,8,8" style="fill:#b9d0f9"/><path id="Fill-20" d="M112,200H72a8,8,0,0,1,8-8h24a8,8,0,0,1,8,8" style="fill:#ecf5fc"/><polygon id="Fill-21" points="24 136 104 136 104 128 24 128 24 136" style="fill:#b9d0f9"/><polygon id="Fill-22" points="16 120 96 120 96 112 16 112 16 120" style="fill:#b9d0f9"/><polygon id="Fill-23" points="16 120 32 120 32 112 16 112 16 120" style="fill:#3e25a7"/><polygon id="Fill-24" points="72 192 80 192 80 136 72 136 72 192" style="fill:#b9d0f9"/><polygon id="Fill-25" points="32 192 40 192 40 136 32 136 32 192" style="fill:#b9d0f9"/><polygon id="Fill-26" points="48 96 52 96 52 80 48 80 48 96" style="fill:#b9d0f9"/><polygon id="Fill-27" points="48 88 64 88 64 80 48 80 48 88" style="fill:#b9d0f9"/><path id="Fill-28" d="M40,200H16a8,8,0,0,1,8-8h8a8,8,0,0,1,8,8" style="fill:#ecf5fc"/><polygon id="Fill-29" points="96 200 160 200 160 128 96 128 96 200" style="fill:#ecf5fc"/><polygon id="Fill-30" points="96 200 115.77 200 115.77 128 96 128 96 200" style="fill:#3e25a7"/><polygon id="Fill-31" points="160 200 192 200 192 128 160 128 160 200" style="fill:#ecf5fc"/><path id="Fill-32" d="M192,128H96a8,8,0,0,1-8-8H200a8,8,0,0,1-8,8" style="fill:#3e25a7"/><path id="Fill-33" d="M192,128H115.77a8,8,0,0,1-8-8H200a8,8,0,0,1-8,8" style="fill:#ecf5fc"/><polygon id="Fill-34" points="192 120 96 120 104 112 128 104 160 104 184 112 192 120" style="fill:#3e25a7"/><polygon id="Fill-35" points="160 104 136 104 136 96 152 96 160 104" style="fill:#b9d0f9"/><polygon id="Fill-36" points="136 104 128 104 136 96 136 104" style="fill:#3e25a7"/><path id="Fill-37" d="M136,200H88a8,8,0,0,1,8-8h32a8,8,0,0,1,8,8" style="fill:#3e25a7"/><path id="Fill-38" d="M200,200H104a8,8,0,0,1,8-8h80a8,8,0,0,1,8,8" style="fill:#ecf5fc"/><polygon id="Fill-39" points="115.77 136 192 136 192 128 115.77 128 115.77 136" style="fill:#b9d0f9"/><polygon id="Fill-40" points="115.77 160 192 160 192 152 115.77 152 115.77 160" style="fill:#b9d0f9"/><polygon id="Fill-41" points="160 192 168 192 168 160 160 160 160 192" style="fill:#3e25a7"/><polygon id="Fill-42" points="144 192 152 192 152 160 144 160 144 192" style="fill:#3e25a7"/><polygon id="Fill-43" points="128 192 136 192 136 160 128 160 128 192" style="fill:#3e25a7"/><polygon id="Fill-44" points="112 192 120 192 120 160 112 160 112 192" style="fill:#3e25a7"/><polygon id="Fill-45" points="176 192 184 192 184 160 176 160 176 192" style="fill:#3e25a7"/><polygon id="Fill-46" points="142 96 146 96 146 80 142 80 142 96" style="fill:#b9d0f9"/><polygon id="Fill-47" points="138 88 150 88 150 84 138 84 138 88" style="fill:#b9d0f9"/><polygon id="Fill-48" points="112 120 120 112 136 104 160 104 184 112 192 120 112 120" style="fill:#b9d0f9"/><path id="Fill-49" d="M120,144a4,4,0,1,1-4-4,4,4,0,0,1,4,4" style="fill:#3e25a7"/><path id="Fill-50" d="M136,144a4,4,0,1,1-4-4,4,4,0,0,1,4,4" style="fill:#3e25a7"/><path id="Fill-51" d="M152,144a4,4,0,1,1-4-4,4,4,0,0,1,4,4" style="fill:#3e25a7"/><path id="Fill-52" d="M168,144a4,4,0,1,1-4-4,4,4,0,0,1,4,4" style="fill:#3e25a7"/><path id="Fill-53" d="M184,144a4,4,0,1,1-4-4,4,4,0,0,1,4,4" style="fill:#3e25a7"/><path id="Fill-54" d="M142,164h-4a4,4,0,0,1-4-4h12a4,4,0,0,1-4,4" style="fill:#b9d0f9"/><path id="Fill-55" d="M126,164h-4a4,4,0,0,1-4-4h12a4,4,0,0,1-4,4" style="fill:#b9d0f9"/><path id="Fill-56" d="M158,164h-4a4,4,0,0,1-4-4h12a4,4,0,0,1-4,4" style="fill:#b9d0f9"/><path id="Fill-57" d="M174,164h-4a4,4,0,0,1-4-4h12a4,4,0,0,1-4,4" style="fill:#b9d0f9"/><path id="Fill-58" d="M154,188h4a4,4,0,0,1,4,4H150a4,4,0,0,1,4-4" style="fill:#b9d0f9"/><path id="Fill-59" d="M170,188h4a4,4,0,0,1,4,4H166a4,4,0,0,1,4-4" style="fill:#b9d0f9"/><path id="Fill-60" d="M138,188h4a4,4,0,0,1,4,4H134a4,4,0,0,1,4-4" style="fill:#b9d0f9"/><path id="Fill-61" d="M122,188h4a4,4,0,0,1,4,4H118a4,4,0,0,1,4-4" style="fill:#b9d0f9"/><polygon id="Fill-62" points="120 192 122.4 192 122.4 160 120 160 120 192" style="fill:#b9d0f9"/><polygon id="Fill-63" points="136 192 138.4 192 138.4 160 136 160 136 192" style="fill:#b9d0f9"/><polygon id="Fill-64" points="152 192 154.4 192 154.4 160 152 160 152 192" style="fill:#b9d0f9"/><polygon id="Fill-65" points="168 192 170.4 192 170.4 160 168 160 168 192" style="fill:#b9d0f9"/><polygon id="Fill-66" points="136.8 16 139.2 16 139.2 8 136.8 8 136.8 16" style="fill:#3e25a7"/><polygon id="Fill-67" points="136.8 32 139.2 32 139.2 24 136.8 24 136.8 32" style="fill:#3e25a7"/><polygon id="Fill-68" points="136.8 48 139.2 48 139.2 40 136.8 40 136.8 48" style="fill:#3e25a7"/><polygon id="Fill-69" points="136.8 64 139.2 64 139.2 56 136.8 56 136.8 64" style="fill:#3e25a7"/><polygon id="Fill-70" points="142.4 16 144.8 16 144.8 8 142.4 8 142.4 16" style="fill:#3e25a7"/><polygon id="Fill-71" points="142.4 32 144.8 32 144.8 24 142.4 24 142.4 32" style="fill:#b9d0f9"/><polygon id="Fill-72" points="142.4 48 144.8 48 144.8 40 142.4 40 142.4 48" style="fill:#3e25a7"/><polygon id="Fill-73" points="142.4 64 144.8 64 144.8 56 142.4 56 142.4 64" style="fill:#3e25a7"/><polygon id="Fill-74" points="148 16 150.4 16 150.4 8 148 8 148 16" style="fill:#3e25a7"/><polygon id="Fill-75" points="148 32 150.4 32 150.4 24 148 24 148 32" style="fill:#3e25a7"/><polygon id="Fill-76" points="148 48 150.4 48 150.4 40 148 40 148 48" style="fill:#3e25a7"/><polygon id="Fill-77" points="148 64 150.4 64 150.4 56 148 56 148 64" style="fill:#3e25a7"/><polygon id="Fill-78" points="153.6 16 156 16 156 8 153.6 8 153.6 16" style="fill:#3e25a7"/><polygon id="Fill-79" points="153.6 32 156 32 156 24 153.6 24 153.6 32" style="fill:#3e25a7"/><polygon id="Fill-80" points="153.6 48 156 48 156 40 153.6 40 153.6 48" style="fill:#3e25a7"/><polygon id="Fill-81" points="153.6 64 156 64 156 56 153.6 56 153.6 64" style="fill:#b9d0f9"/><polygon id="Fill-82" points="159.2 16 161.6 16 161.6 8 159.2 8 159.2 16" style="fill:#3e25a7"/><polygon id="Fill-83" points="159.2 32 161.6 32 161.6 24 159.2 24 159.2 32" style="fill:#3e25a7"/><polygon id="Fill-84" points="159.2 48 161.6 48 161.6 40 159.2 40 159.2 48" style="fill:#3e25a7"/><polygon id="Fill-85" points="159.2 64 161.6 64 161.6 56 159.2 56 159.2 64" style="fill:#3e25a7"/><polygon id="Fill-86" points="95.2 48 97.6 48 97.6 40 95.2 40 95.2 48" style="fill:#3e25a7"/><polygon id="Fill-87" points="95.2 64 97.6 64 97.6 56 95.2 56 95.2 64" style="fill:#3e25a7"/><polygon id="Fill-88" points="95.2 80 97.6 80 97.6 72 95.2 72 95.2 80" style="fill:#3e25a7"/><polygon id="Fill-89" points="95.2 96 97.6 96 97.6 88 95.2 88 95.2 96" style="fill:#3e25a7"/><polygon id="Fill-90" points="100.8 48 103.2 48 103.2 40 100.8 40 100.8 48" style="fill:#3e25a7"/><polygon id="Fill-91" points="100.8 64 103.2 64 103.2 56 100.8 56 100.8 64" style="fill:#b9d0f9"/><polygon id="Fill-92" points="100.8 80 103.2 80 103.2 72 100.8 72 100.8 80" style="fill:#3e25a7"/><polygon id="Fill-93" points="100.8 96 103.2 96 103.2 88 100.8 88 100.8 96" style="fill:#3e25a7"/><polygon id="Fill-94" points="106.4 48 108.8 48 108.8 40 106.4 40 106.4 48" style="fill:#3e25a7"/><polygon id="Fill-95" points="106.4 64 108.8 64 108.8 56 106.4 56 106.4 64" style="fill:#3e25a7"/><polygon id="Fill-96" points="106.4 80 108.8 80 108.8 72 106.4 72 106.4 80" style="fill:#3e25a7"/><polygon id="Fill-97" points="106.4 96 108.8 96 108.8 88 106.4 88 106.4 96" style="fill:#3e25a7"/></g></g></g></svg>