<svg id="Réteg_1" data-name="Réteg 1" xmlns="http://www.w3.org/2000/svg" viewBox="0 0 193.75 200"><title>seattle</title><g id="Timeline-icon-_-Seattle" data-name="Timeline-icon- -Seattle"><g id="Group-208"><polygon id="Fill-1" points="168.75 131.25 187.5 131.25 187.5 106.25 168.75 106.25 168.75 131.25" style="fill:#ecf5fc"/><polygon id="Fill-2" points="168.75 200 187.5 200 187.5 131.25 168.75 131.25 168.75 200" style="fill:#ecf5fc"/><g id="Group-207"><path id="Fill-3" d="M181.25,162.5H175V146.88a3.13,3.13,0,0,1,6.25-.35,2,2,0,0,1,0,.35Z" style="fill:#3e25a7"/><path id="Fill-5" d="M181.25,193.75H175V178.12a3.13,3.13,0,0,1,6.25,0Z" style="fill:#3e25a7"/><polygon id="Fill-7" points="168.75 162.5 175 162.5 175 137.5 168.75 137.5 168.75 162.5" style="fill:#3e25a7"/><polygon id="Fill-9" points="168.75 193.75 175 193.75 175 162.5 168.75 162.5 168.75 193.75" style="fill:#3e25a7"/><polygon id="Fill-10" points="168.75 131.25 175 131.25 175 106.25 168.75 106.25 168.75 131.25" style="fill:#3e25a7"/><polygon id="Fill-11" points="168.75 106.25 178.13 68.75 187.5 106.25 168.75 106.25" style="fill:#ecf5fc"/><polygon id="Fill-12" points="168.75 156.25 168.75 162.5 175 162.5 168.75 156.25" style="fill:#3e25a7"/><polygon id="Fill-13" points="168.75 100 168.75 106.25 175 106.25 168.75 100" style="fill:#3e25a7"/><polygon id="Fill-14" points="168.75 100 168.75 106.25 175 106.25 168.75 100" style="fill:#b9d0f9"/><polygon id="Fill-15" points="187.5 100 187.5 106.25 181.25 106.25 187.5 100" style="fill:#b9d0f9"/><path id="Fill-16" d="M168.75,193.75H187.5l6.25,6.25H162.5a6.25,6.25,0,0,1,6.25-6.25" style="fill:#3e25a7"/><path id="Fill-17" d="M175,193.75h12.5a6.25,6.25,0,0,1,6.25,6.25h-25a6.25,6.25,0,0,1,6.25-6.25" style="fill:#b9d0f9"/><path id="Fill-18" d="M168.75,156.25H187.5l6.25,6.25H162.5a6.25,6.25,0,0,1,6.25-6.25" style="fill:#3e25a7"/><path id="Fill-19" d="M175,156.25h12.5a6.25,6.25,0,0,1,6.25,6.25h-25a6.25,6.25,0,0,1,6.25-6.25" style="fill:#b9d0f9"/><path id="Fill-20" d="M168.75,131.25H187.5l6.25,6.25H162.5a6.25,6.25,0,0,1,6.25-6.25" style="fill:#3e25a7"/><path id="Fill-21" d="M175,131.25h12.5a6.25,6.25,0,0,1,6.25,6.25h-25a6.25,6.25,0,0,1,6.25-6.25" style="fill:#b9d0f9"/><path id="Fill-22" d="M175,115.62a3.13,3.13,0,1,0,3.14-3.12h0a3.14,3.14,0,0,0-3.12,3.12" style="fill:#3e25a7"/><polygon id="Fill-23" points="168.75 106.25 187.5 106.25 187.5 100 168.75 100 168.75 106.25" style="fill:#b9d0f9"/><polygon id="Fill-24" points="100 200 168.75 200 168.75 162.5 100 162.5 100 200" style="fill:#ecf5fc"/><path id="Fill-25" d="M175,162.5h0l-43.75-18.75L93.75,162.5v6.25h75A6.25,6.25,0,0,0,175,162.5" style="fill:#3e25a7"/><polygon id="Fill-26" points="139.38 173.13 143.75 173.13 143.75 168.75 139.38 168.75 139.38 173.13" style="fill:#3e25a7"/><polygon id="Fill-27" points="133.13 173.13 137.5 173.13 137.5 168.75 133.13 168.75 133.13 173.13" style="fill:#3e25a7"/><polygon id="Fill-28" points="139.38 179.38 143.75 179.38 143.75 175 139.38 175 139.38 179.38" style="fill:#3e25a7"/><polygon id="Fill-29" points="133.13 179.38 137.5 179.38 137.5 175 133.13 175 133.13 179.38" style="fill:#3e25a7"/><polygon id="Fill-30" points="156.25 173.13 160.63 173.13 160.63 168.75 156.25 168.75 156.25 173.13" style="fill:#3e25a7"/><polygon id="Fill-31" points="150 173.13 154.38 173.13 154.38 168.75 150 168.75 150 173.13" style="fill:#3e25a7"/><polygon id="Fill-32" points="156.25 179.38 160.63 179.38 160.63 175 156.25 175 156.25 179.38" style="fill:#3e25a7"/><polygon id="Fill-33" points="150 179.38 154.38 179.38 154.38 175 150 175 150 179.38" style="fill:#3e25a7"/><polygon id="Fill-34" points="120.63 173.13 125 173.13 125 168.75 120.63 168.75 120.63 173.13" style="fill:#3e25a7"/><polygon id="Fill-35" points="114.38 173.13 118.75 173.13 118.75 168.75 114.38 168.75 114.38 173.13" style="fill:#3e25a7"/><polygon id="Fill-36" points="120.63 179.38 125 179.38 125 175 120.63 175 120.63 179.38" style="fill:#3e25a7"/><polygon id="Fill-37" points="114.38 179.38 118.75 179.38 118.75 175 114.38 175 114.38 179.38" style="fill:#3e25a7"/><polygon id="Fill-38" points="139.38 187.5 143.75 187.5 143.75 183.13 139.38 183.13 139.38 187.5" style="fill:#3e25a7"/><polygon id="Fill-39" points="133.13 187.5 137.5 187.5 137.5 183.13 133.13 183.13 133.13 187.5" style="fill:#3e25a7"/><polygon id="Fill-40" points="139.38 193.75 143.75 193.75 143.75 189.38 139.38 189.38 139.38 193.75" style="fill:#3e25a7"/><polygon id="Fill-41" points="133.13 193.75 137.5 193.75 137.5 189.38 133.13 189.38 133.13 193.75" style="fill:#3e25a7"/><polygon id="Fill-42" points="156.25 187.5 160.63 187.5 160.63 183.13 156.25 183.13 156.25 187.5" style="fill:#3e25a7"/><polygon id="Fill-43" points="150 187.5 154.38 187.5 154.38 183.13 150 183.13 150 187.5" style="fill:#3e25a7"/><polygon id="Fill-44" points="156.25 193.75 160.63 193.75 160.63 189.38 156.25 189.38 156.25 193.75" style="fill:#3e25a7"/><polygon id="Fill-45" points="150 193.75 154.38 193.75 154.38 189.38 150 189.38 150 193.75" style="fill:#3e25a7"/><polygon id="Fill-46" points="120.63 187.5 125 187.5 125 183.13 120.63 183.13 120.63 187.5" style="fill:#3e25a7"/><polygon id="Fill-47" points="114.38 187.5 118.75 187.5 118.75 183.13 114.38 183.13 114.38 187.5" style="fill:#3e25a7"/><polygon id="Fill-48" points="120.63 193.75 125 193.75 125 189.38 120.63 189.38 120.63 193.75" style="fill:#3e25a7"/><polygon id="Fill-49" points="114.38 193.75 118.75 193.75 118.75 189.38 114.38 189.38 114.38 193.75" style="fill:#3e25a7"/><path id="Fill-50" d="M93.75,162.5H175a6.25,6.25,0,0,1-6.25,6.25h-75Z" style="fill:#b9d0f9"/><polygon id="Fill-51" points="0 200 37.5 200 37.5 93.75 0 112.5 0 200" style="fill:#ecf5fc"/><polygon id="Fill-52" points="100 43.75 43.75 43.75 43.75 6.25 100 31.25 100 43.75" style="fill:#ecf5fc"/><polygon id="Fill-53" points="43.75 200 43.75 43.75 81.25 43.75 100 43.75 100 50 100 200 43.75 200" style="fill:#ecf5fc"/><polygon id="Fill-54" points="56.25 50 58.13 50 58.13 43.75 56.25 43.75 56.25 50" style="fill:#3e25a7"/><polygon id="Fill-55" points="56.25 62.5 58.13 62.5 58.13 56.25 56.25 56.25 56.25 62.5" style="fill:#3e25a7"/><polygon id="Fill-56" points="56.25 75 58.13 75 58.13 68.75 56.25 68.75 56.25 75" style="fill:#3e25a7"/><polygon id="Fill-57" points="56.25 87.5 58.13 87.5 58.13 81.25 56.25 81.25 56.25 87.5" style="fill:#3e25a7"/><polygon id="Fill-58" points="56.25 100 58.13 100 58.13 93.75 56.25 93.75 56.25 100" style="fill:#3e25a7"/><polygon id="Fill-59" points="56.25 112.5 58.13 112.5 58.13 106.25 56.25 106.25 56.25 112.5" style="fill:#3e25a7"/><polygon id="Fill-60" points="56.25 125 58.13 125 58.13 118.75 56.25 118.75 56.25 125" style="fill:#3e25a7"/><polygon id="Fill-61" points="56.25 137.5 58.13 137.5 58.13 131.25 56.25 131.25 56.25 137.5" style="fill:#3e25a7"/><polygon id="Fill-62" points="56.25 150 58.13 150 58.13 143.75 56.25 143.75 56.25 150" style="fill:#3e25a7"/><polygon id="Fill-63" points="56.25 162.5 58.13 162.5 58.13 156.25 56.25 156.25 56.25 162.5" style="fill:#b9d0f9"/><polygon id="Fill-64" points="56.25 175 58.13 175 58.13 168.75 56.25 168.75 56.25 175" style="fill:#3e25a7"/><polygon id="Fill-65" points="56.25 187.5 58.13 187.5 58.13 181.25 56.25 181.25 56.25 187.5" style="fill:#3e25a7"/><polygon id="Fill-66" points="56.25 200 58.13 200 58.13 193.75 56.25 193.75 56.25 200" style="fill:#b9d0f9"/><polygon id="Fill-67" points="60.63 50 62.5 50 62.5 43.75 60.63 43.75 60.63 50" style="fill:#3e25a7"/><polygon id="Fill-68" points="60.63 62.5 62.5 62.5 62.5 56.25 60.63 56.25 60.63 62.5" style="fill:#b9d0f9"/><polygon id="Fill-69" points="60.63 75 62.5 75 62.5 68.75 60.63 68.75 60.63 75" style="fill:#3e25a7"/><polygon id="Fill-70" points="60.63 87.5 62.5 87.5 62.5 81.25 60.63 81.25 60.63 87.5" style="fill:#3e25a7"/><polygon id="Fill-71" points="60.63 100 62.5 100 62.5 93.75 60.63 93.75 60.63 100" style="fill:#3e25a7"/><polygon id="Fill-72" points="60.63 112.5 62.5 112.5 62.5 106.25 60.63 106.25 60.63 112.5" style="fill:#3e25a7"/><polygon id="Fill-73" points="60.63 125 62.5 125 62.5 118.75 60.63 118.75 60.63 125" style="fill:#3e25a7"/><polygon id="Fill-74" points="60.63 137.5 62.5 137.5 62.5 131.25 60.63 131.25 60.63 137.5" style="fill:#3e25a7"/><polygon id="Fill-75" points="60.63 150 62.5 150 62.5 143.75 60.63 143.75 60.63 150" style="fill:#3e25a7"/><polygon id="Fill-76" points="60.63 162.5 62.5 162.5 62.5 156.25 60.63 156.25 60.63 162.5" style="fill:#3e25a7"/><polygon id="Fill-77" points="60.63 175 62.5 175 62.5 168.75 60.63 168.75 60.63 175" style="fill:#3e25a7"/><polygon id="Fill-78" points="60.63 187.5 62.5 187.5 62.5 181.25 60.63 181.25 60.63 187.5" style="fill:#b9d0f9"/><polygon id="Fill-79" points="60.63 200 62.5 200 62.5 193.75 60.63 193.75 60.63 200" style="fill:#3e25a7"/><polygon id="Fill-80" points="65 50 66.88 50 66.88 43.75 65 43.75 65 50" style="fill:#3e25a7"/><polygon id="Fill-81" points="65 62.5 66.88 62.5 66.88 56.25 65 56.25 65 62.5" style="fill:#3e25a7"/><polygon id="Fill-82" points="65 75 66.88 75 66.88 68.75 65 68.75 65 75" style="fill:#3e25a7"/><polygon id="Fill-83" points="65 87.5 66.88 87.5 66.88 81.25 65 81.25 65 87.5" style="fill:#3e25a7"/><polygon id="Fill-84" points="65 100 66.88 100 66.88 93.75 65 93.75 65 100" style="fill:#3e25a7"/><polygon id="Fill-85" points="65 112.5 66.88 112.5 66.88 106.25 65 106.25 65 112.5" style="fill:#3e25a7"/><polygon id="Fill-86" points="65 125 66.88 125 66.88 118.75 65 118.75 65 125" style="fill:#3e25a7"/><polygon id="Fill-87" points="65 137.5 66.88 137.5 66.88 131.25 65 131.25 65 137.5" style="fill:#3e25a7"/><polygon id="Fill-88" points="65 150 66.88 150 66.88 143.75 65 143.75 65 150" style="fill:#b9d0f9"/><polygon id="Fill-89" points="65 162.5 66.88 162.5 66.88 156.25 65 156.25 65 162.5" style="fill:#3e25a7"/><polygon id="Fill-90" points="65 175 66.88 175 66.88 168.75 65 168.75 65 175" style="fill:#3e25a7"/><polygon id="Fill-91" points="65 187.5 66.88 187.5 66.88 181.25 65 181.25 65 187.5" style="fill:#3e25a7"/><polygon id="Fill-92" points="65 200 66.88 200 66.88 193.75 65 193.75 65 200" style="fill:#3e25a7"/><polygon id="Fill-93" points="69.38 50 71.25 50 71.25 43.75 69.38 43.75 69.38 50" style="fill:#3e25a7"/><polygon id="Fill-94" points="69.38 62.5 71.25 62.5 71.25 56.25 69.38 56.25 69.38 62.5" style="fill:#3e25a7"/><polygon id="Fill-95" points="69.38 75 71.25 75 71.25 68.75 69.38 68.75 69.38 75" style="fill:#3e25a7"/><polygon id="Fill-96" points="69.38 87.5 71.25 87.5 71.25 81.25 69.38 81.25 69.38 87.5" style="fill:#b9d0f9"/><polygon id="Fill-97" points="69.38 100 71.25 100 71.25 93.75 69.38 93.75 69.38 100" style="fill:#3e25a7"/><polygon id="Fill-98" points="69.38 112.5 71.25 112.5 71.25 106.25 69.38 106.25 69.38 112.5" style="fill:#b9d0f9"/><polygon id="Fill-99" points="69.38 125 71.25 125 71.25 118.75 69.38 118.75 69.38 125" style="fill:#3e25a7"/><polygon id="Fill-100" points="69.38 137.5 71.25 137.5 71.25 131.25 69.38 131.25 69.38 137.5" style="fill:#3e25a7"/><polygon id="Fill-101" points="69.38 150 71.25 150 71.25 143.75 69.38 143.75 69.38 150" style="fill:#3e25a7"/><polygon id="Fill-102" points="69.38 162.5 71.25 162.5 71.25 156.25 69.38 156.25 69.38 162.5" style="fill:#3e25a7"/><polygon id="Fill-103" points="69.38 175 71.25 175 71.25 168.75 69.38 168.75 69.38 175" style="fill:#3e25a7"/><polygon id="Fill-104" points="69.38 187.5 71.25 187.5 71.25 181.25 69.38 181.25 69.38 187.5" style="fill:#3e25a7"/><polygon id="Fill-105" points="69.38 200 71.25 200 71.25 193.75 69.38 193.75 69.38 200" style="fill:#3e25a7"/><polygon id="Fill-106" points="73.75 50 75.63 50 75.63 43.75 73.75 43.75 73.75 50" style="fill:#3e25a7"/><polygon id="Fill-107" points="73.75 62.5 75.63 62.5 75.63 56.25 73.75 56.25 73.75 62.5" style="fill:#3e25a7"/><polygon id="Fill-108" points="73.75 75 75.63 75 75.63 68.75 73.75 68.75 73.75 75" style="fill:#3e25a7"/><polygon id="Fill-109" points="73.75 87.5 75.63 87.5 75.63 81.25 73.75 81.25 73.75 87.5" style="fill:#3e25a7"/><polygon id="Fill-110" points="73.75 100 75.63 100 75.63 93.75 73.75 93.75 73.75 100" style="fill:#3e25a7"/><polygon id="Fill-111" points="73.75 112.5 75.63 112.5 75.63 106.25 73.75 106.25 73.75 112.5" style="fill:#3e25a7"/><polygon id="Fill-112" points="73.75 125 75.63 125 75.63 118.75 73.75 118.75 73.75 125" style="fill:#b9d0f9"/><polygon id="Fill-113" points="73.75 137.5 75.63 137.5 75.63 131.25 73.75 131.25 73.75 137.5" style="fill:#3e25a7"/><polygon id="Fill-114" points="73.75 150 75.63 150 75.63 143.75 73.75 143.75 73.75 150" style="fill:#3e25a7"/><polygon id="Fill-115" points="73.75 162.5 75.63 162.5 75.63 156.25 73.75 156.25 73.75 162.5" style="fill:#3e25a7"/><polygon id="Fill-116" points="73.75 175 75.63 175 75.63 168.75 73.75 168.75 73.75 175" style="fill:#3e25a7"/><polygon id="Fill-117" points="73.75 187.5 75.63 187.5 75.63 181.25 73.75 181.25 73.75 187.5" style="fill:#3e25a7"/><polygon id="Fill-118" points="73.75 200 75.63 200 75.63 193.75 73.75 193.75 73.75 200" style="fill:#3e25a7"/><polygon id="Fill-119" points="78.13 50 80 50 80 43.75 78.13 43.75 78.13 50" style="fill:#3e25a7"/><polygon id="Fill-120" points="78.13 62.5 80 62.5 80 56.25 78.13 56.25 78.13 62.5" style="fill:#3e25a7"/><polygon id="Fill-121" points="78.13 75 80 75 80 68.75 78.13 68.75 78.13 75" style="fill:#3e25a7"/><polygon id="Fill-122" points="78.13 87.5 80 87.5 80 81.25 78.13 81.25 78.13 87.5" style="fill:#3e25a7"/><polygon id="Fill-123" points="78.13 100 80 100 80 93.75 78.13 93.75 78.13 100" style="fill:#3e25a7"/><polygon id="Fill-124" points="78.13 112.5 80 112.5 80 106.25 78.13 106.25 78.13 112.5" style="fill:#3e25a7"/><polygon id="Fill-125" points="78.13 125 80 125 80 118.75 78.13 118.75 78.13 125" style="fill:#b9d0f9"/><polygon id="Fill-126" points="78.13 137.5 80 137.5 80 131.25 78.13 131.25 78.13 137.5" style="fill:#3e25a7"/><polygon id="Fill-127" points="78.13 150 80 150 80 143.75 78.13 143.75 78.13 150" style="fill:#3e25a7"/><polygon id="Fill-128" points="78.13 162.5 80 162.5 80 156.25 78.13 156.25 78.13 162.5" style="fill:#3e25a7"/><polygon id="Fill-129" points="78.13 175 80 175 80 168.75 78.13 168.75 78.13 175" style="fill:#b9d0f9"/><polygon id="Fill-130" points="78.13 187.5 80 187.5 80 181.25 78.13 181.25 78.13 187.5" style="fill:#3e25a7"/><polygon id="Fill-131" points="78.13 200 80 200 80 193.75 78.13 193.75 78.13 200" style="fill:#3e25a7"/><polygon id="Fill-132" points="82.5 50 84.38 50 84.38 43.75 82.5 43.75 82.5 50" style="fill:#3e25a7"/><polygon id="Fill-133" points="82.5 62.5 84.38 62.5 84.38 56.25 82.5 56.25 82.5 62.5" style="fill:#3e25a7"/><polygon id="Fill-134" points="82.5 75 84.38 75 84.38 68.75 82.5 68.75 82.5 75" style="fill:#3e25a7"/><polygon id="Fill-135" points="82.5 87.5 84.38 87.5 84.38 81.25 82.5 81.25 82.5 87.5" style="fill:#3e25a7"/><polygon id="Fill-136" points="82.5 100 84.38 100 84.38 93.75 82.5 93.75 82.5 100" style="fill:#3e25a7"/><polygon id="Fill-137" points="82.5 112.5 84.38 112.5 84.38 106.25 82.5 106.25 82.5 112.5" style="fill:#b9d0f9"/><polygon id="Fill-138" points="82.5 125 84.38 125 84.38 118.75 82.5 118.75 82.5 125" style="fill:#3e25a7"/><polygon id="Fill-139" points="82.5 137.5 84.38 137.5 84.38 131.25 82.5 131.25 82.5 137.5" style="fill:#3e25a7"/><polygon id="Fill-140" points="82.5 150 84.38 150 84.38 143.75 82.5 143.75 82.5 150" style="fill:#3e25a7"/><polygon id="Fill-141" points="82.5 162.5 84.38 162.5 84.38 156.25 82.5 156.25 82.5 162.5" style="fill:#3e25a7"/><polygon id="Fill-142" points="82.5 175 84.38 175 84.38 168.75 82.5 168.75 82.5 175" style="fill:#3e25a7"/><polygon id="Fill-143" points="82.5 187.5 84.38 187.5 84.38 181.25 82.5 181.25 82.5 187.5" style="fill:#3e25a7"/><polygon id="Fill-144" points="82.5 200 84.38 200 84.38 193.75 82.5 193.75 82.5 200" style="fill:#3e25a7"/><polygon id="Fill-145" points="86.88 50 88.75 50 88.75 43.75 86.88 43.75 86.88 50" style="fill:#3e25a7"/><polygon id="Fill-146" points="86.88 62.5 88.75 62.5 88.75 56.25 86.88 56.25 86.88 62.5" style="fill:#3e25a7"/><polygon id="Fill-147" points="86.88 75 88.75 75 88.75 68.75 86.88 68.75 86.88 75" style="fill:#3e25a7"/><polygon id="Fill-148" points="86.88 87.5 88.75 87.5 88.75 81.25 86.88 81.25 86.88 87.5" style="fill:#3e25a7"/><polygon id="Fill-149" points="86.88 100 88.75 100 88.75 93.75 86.88 93.75 86.88 100" style="fill:#3e25a7"/><polygon id="Fill-150" points="86.88 112.5 88.75 112.5 88.75 106.25 86.88 106.25 86.88 112.5" style="fill:#3e25a7"/><polygon id="Fill-151" points="86.88 125 88.75 125 88.75 118.75 86.88 118.75 86.88 125" style="fill:#3e25a7"/><polygon id="Fill-152" points="86.88 137.5 88.75 137.5 88.75 131.25 86.88 131.25 86.88 137.5" style="fill:#b9d0f9"/><polygon id="Fill-153" points="86.88 150 88.75 150 88.75 143.75 86.88 143.75 86.88 150" style="fill:#b9d0f9"/><polygon id="Fill-154" points="86.88 162.5 88.75 162.5 88.75 156.25 86.88 156.25 86.88 162.5" style="fill:#3e25a7"/><polygon id="Fill-155" points="86.88 175 88.75 175 88.75 168.75 86.88 168.75 86.88 175" style="fill:#3e25a7"/><polygon id="Fill-156" points="86.88 187.5 88.75 187.5 88.75 181.25 86.88 181.25 86.88 187.5" style="fill:#b9d0f9"/><polygon id="Fill-157" points="86.88 200 88.75 200 88.75 193.75 86.88 193.75 86.88 200" style="fill:#b9d0f9"/><polygon id="Fill-158" points="91.25 50 93.13 50 93.13 43.75 91.25 43.75 91.25 50" style="fill:#b9d0f9"/><polygon id="Fill-159" points="91.25 62.5 93.13 62.5 93.13 56.25 91.25 56.25 91.25 62.5" style="fill:#3e25a7"/><polygon id="Fill-160" points="91.25 75 93.13 75 93.13 68.75 91.25 68.75 91.25 75" style="fill:#3e25a7"/><polygon id="Fill-161" points="91.25 87.5 93.13 87.5 93.13 81.25 91.25 81.25 91.25 87.5" style="fill:#3e25a7"/><polygon id="Fill-162" points="91.25 100 93.13 100 93.13 93.75 91.25 93.75 91.25 100" style="fill:#3e25a7"/><polygon id="Fill-163" points="91.25 112.5 93.13 112.5 93.13 106.25 91.25 106.25 91.25 112.5" style="fill:#3e25a7"/><polygon id="Fill-164" points="91.25 125 93.13 125 93.13 118.75 91.25 118.75 91.25 125" style="fill:#3e25a7"/><polygon id="Fill-165" points="91.25 137.5 93.13 137.5 93.13 131.25 91.25 131.25 91.25 137.5" style="fill:#3e25a7"/><polygon id="Fill-166" points="91.25 150 93.13 150 93.13 143.75 91.25 143.75 91.25 150" style="fill:#b9d0f9"/><polygon id="Fill-167" points="91.25 162.5 93.13 162.5 93.13 156.25 91.25 156.25 91.25 162.5" style="fill:#3e25a7"/><polygon id="Fill-168" points="91.25 175 93.13 175 93.13 168.75 91.25 168.75 91.25 175" style="fill:#3e25a7"/><polygon id="Fill-169" points="91.25 187.5 93.13 187.5 93.13 181.25 91.25 181.25 91.25 187.5" style="fill:#3e25a7"/><polygon id="Fill-170" points="91.25 200 93.13 200 93.13 193.75 91.25 193.75 91.25 200" style="fill:#3e25a7"/><polygon id="Fill-171" points="95.63 50 97.5 50 97.5 43.75 95.63 43.75 95.63 50" style="fill:#3e25a7"/><polygon id="Fill-172" points="95.63 62.5 97.5 62.5 97.5 56.25 95.63 56.25 95.63 62.5" style="fill:#3e25a7"/><polygon id="Fill-173" points="95.63 75 97.5 75 97.5 68.75 95.63 68.75 95.63 75" style="fill:#3e25a7"/><polygon id="Fill-174" points="95.63 87.5 97.5 87.5 97.5 81.25 95.63 81.25 95.63 87.5" style="fill:#3e25a7"/><polygon id="Fill-175" points="95.63 100 97.5 100 97.5 93.75 95.63 93.75 95.63 100" style="fill:#3e25a7"/><polygon id="Fill-176" points="95.63 112.5 97.5 112.5 97.5 106.25 95.63 106.25 95.63 112.5" style="fill:#3e25a7"/><polygon id="Fill-177" points="95.63 125 97.5 125 97.5 118.75 95.63 118.75 95.63 125" style="fill:#3e25a7"/><polygon id="Fill-178" points="95.63 137.5 97.5 137.5 97.5 131.25 95.63 131.25 95.63 137.5" style="fill:#3e25a7"/><polygon id="Fill-179" points="95.63 150 97.5 150 97.5 143.75 95.63 143.75 95.63 150" style="fill:#3e25a7"/><polygon id="Fill-180" points="95.63 162.5 97.5 162.5 97.5 156.25 95.63 156.25 95.63 162.5" style="fill:#3e25a7"/><polygon id="Fill-181" points="95.63 175 97.5 175 97.5 168.75 95.63 168.75 95.63 175" style="fill:#3e25a7"/><polygon id="Fill-182" points="95.63 187.5 97.5 187.5 97.5 181.25 95.63 181.25 95.63 187.5" style="fill:#3e25a7"/><polygon id="Fill-183" points="95.63 200 97.5 200 97.5 193.75 95.63 193.75 95.63 200" style="fill:#3e25a7"/><polygon id="Fill-184" points="37.5 200 50 200 50 0 37.5 0 37.5 200" style="fill:#3e25a7"/><polygon id="Fill-185" points="35.63 193.75 37.5 193.75 37.5 131.25 35.63 131.25 35.63 193.75" style="fill:#b9d0f9"/><polygon id="Fill-186" points="31.25 193.75 33.13 193.75 33.13 131.25 31.25 131.25 31.25 193.75" style="fill:#b9d0f9"/><polygon id="Fill-187" points="26.88 193.75 28.75 193.75 28.75 131.25 26.88 131.25 26.88 193.75" style="fill:#b9d0f9"/><polygon id="Fill-188" points="22.5 193.75 24.38 193.75 24.38 131.25 22.5 131.25 22.5 193.75" style="fill:#b9d0f9"/><polygon id="Fill-189" points="18.13 193.75 20 193.75 20 131.25 18.13 131.25 18.13 193.75" style="fill:#b9d0f9"/><polygon id="Fill-190" points="13.75 193.75 15.63 193.75 15.63 131.25 13.75 131.25 13.75 193.75" style="fill:#b9d0f9"/><polygon id="Fill-191" points="18.75 125 37.5 125 37.5 118.75 18.75 118.75 18.75 125" style="fill:#3e25a7"/><polygon id="Fill-192" points="109.38 200 115.63 200 115.63 87.5 109.38 87.5 109.38 200" style="fill:#b9d0f9"/><polygon id="Fill-193" points="128.13 87.5 96.88 87.5 90.63 81.25 134.38 81.25 128.13 87.5" style="fill:#3e25a7"/><polygon id="Fill-194" points="84.38 75 140.63 75 134.38 68.75 90.63 68.75 84.38 75" style="fill:#3e25a7"/><polygon id="Fill-195" points="90.63 68.75 134.38 68.75 134.38 62.5 90.63 62.5 90.63 68.75" style="fill:#3e25a7"/><polygon id="Fill-196" points="134.38 62.5 112.5 50 90.63 62.5 134.38 62.5" style="fill:#3e25a7"/><polygon id="Fill-197" points="112.5 56.25 103.13 50 121.88 50 112.5 56.25" style="fill:#3e25a7"/><polygon id="Fill-198" points="110.63 50 112.5 50 112.5 25 110.63 25 110.63 50" style="fill:#3e25a7"/><polygon id="Fill-199" points="90.63 81.25 134.38 81.25 134.38 75 90.63 75 90.63 81.25" style="fill:#ecf5fc"/><polygon id="Fill-200" points="90.63 81.25 98.75 81.25 98.75 75 90.63 75 90.63 81.25" style="fill:#b9d0f9"/><polygon id="Fill-201" points="103.13 81.25 105 81.25 105 75 103.13 75 103.13 81.25" style="fill:#b9d0f9"/><polygon id="Fill-202" points="109.38 81.25 111.25 81.25 111.25 75 109.38 75 109.38 81.25" style="fill:#b9d0f9"/><polygon id="Fill-203" points="115.63 81.25 117.5 81.25 117.5 75 115.63 75 115.63 81.25" style="fill:#b9d0f9"/><polygon id="Fill-204" points="121.88 81.25 123.75 81.25 123.75 75 121.88 75 121.88 81.25" style="fill:#b9d0f9"/><polygon id="Fill-205" points="128.13 81.25 130 81.25 130 75 128.13 75 128.13 81.25" style="fill:#b9d0f9"/><path id="Fill-206" d="M101.56,87.5,107,143.75,90.62,200h10.94l8.75-40a2.24,2.24,0,0,1,4.38,0l8.75,40h10.94L118,143.75l5.47-56.25H118l-3.24,33.31a2.24,2.24,0,0,1-4.46,0L107,87.5Z" style="fill:#3e25a7"/></g></g></g></svg>