<svg id="Réteg_1" data-name="Réteg 1" xmlns="http://www.w3.org/2000/svg" viewBox="0 0 24 24"><title>senior</title><g id="Icon-_-Senior" data-name="Icon- -Senior"><g id="Group-7"><path id="Fill-1" d="M21,0H3A3,3,0,0,0,0,3V21a3,3,0,0,0,3,3H21a3,3,0,0,0,3-3V3a3,3,0,0,0-3-3" style="fill:#4097ff"/><polygon id="Fill-3" points="0 18.67 8 18.67 8 16 0 16 0 18.67" style="fill:#3e25a7"/><polygon id="Fill-5" points="0 13.33 8 13.33 8 10.67 0 10.67 0 13.33" style="fill:#3e25a7"/><polygon id="Fill-6" points="0 8 8 8 8 5.33 0 5.33 0 8" style="fill:#3e25a7"/></g></g></svg>