<svg id="Réteg_1" data-name="Réteg 1" xmlns="http://www.w3.org/2000/svg" viewBox="0 0 64 64"><title>support</title><g id="Icon-_-Support" data-name="Icon- -Support"><g id="Group-9"><path id="Fill-1" d="M38.4,12.8A25.6,25.6,0,0,0,12.8,38.4h0V64H38.4a25.6,25.6,0,0,0,0-51.2" transform="translate(0.01 0)" style="fill:#4097ff"/><path id="Fill-3" d="M12.8,0a12.8,12.8,0,1,0,0,25.6H25.6V12.8A12.8,12.8,0,0,0,12.8,0" transform="translate(0.01 0)" style="fill:#101a28"/><path id="Fill-5" d="M19.2,12.8a6.4,6.4,0,1,1-6.4-6.4,6.41,6.41,0,0,1,6.4,6.4" transform="translate(0.01 0)" style="fill:#4097ff"/><path id="Fill-7" d="M12.8,0A12.8,12.8,0,0,0,0,12.8H12.8Z" transform="translate(0.01 0)" style="fill:#4097ff"/></g></g></svg>