<svg id="Réteg_1" data-name="Réteg 1" xmlns="http://www.w3.org/2000/svg" viewBox="0 0 76.8 64"><title>upload</title><g id="Icon-_-Upload" data-name="Icon- -Upload"><g id="Group-9"><path id="Fill-1" d="M38.4,0A22.4,22.4,0,1,0,60.8,22.4,22.4,22.4,0,0,0,38.4,0h0" style="fill:#4097ff"/><path id="Fill-3" d="M57.6,25.6A19.2,19.2,0,0,0,38.4,44.8h0A19.2,19.2,0,1,0,19.2,64H57.6a19.2,19.2,0,0,0,0-38.4" style="fill:#4097ff"/><path id="Fill-5" d="M57.6,25.6A19.2,19.2,0,0,0,38.4,44.8h0a22.4,22.4,0,0,0,22.14-19,20.67,20.67,0,0,0-2.94-.22" style="fill:#101a28"/><path id="Fill-7" d="M38.4,6.4a16,16,0,1,0,16,16,16,16,0,0,0-16-16" style="fill:#4097ff"/></g></g></svg>