<svg id="Réteg_1" data-name="Réteg 1" xmlns="http://www.w3.org/2000/svg" viewBox="0 0 275.31 199.57"><title>users</title><g id="Timeline-icon-_-users" data-name="Timeline-icon- -users"><g id="Group-126"><path id="Fill-1" d="M0,185.19V15.5H275.31V185.74c0,7.64-9.36,13.83-20.91,13.83H14.4A14.37,14.37,0,0,1,0,185.23v0" transform="translate(0)" style="fill:#ecf5fc"/><path id="Fill-3" d="M81.51,108.53H66A7.77,7.77,0,0,1,66,93h0a7.75,7.75,0,0,0,7.75-7.75A7.75,7.75,0,0,1,81.5,77.5a7.75,7.75,0,0,0,0-15.5h-62a7.75,7.75,0,0,0,0,15.5,7.75,7.75,0,0,1,7.76,7.74h0v15.51A7.75,7.75,0,0,0,35,108.53h0a7.75,7.75,0,0,1,7.75,7.75A7.75,7.75,0,0,0,50.5,124a7.75,7.75,0,0,1,7.75,7.75h0A7.75,7.75,0,0,0,66,139.51h0a7.75,7.75,0,0,1,7.75,7.75v31a7.75,7.75,0,0,0,15.5,0V162.79A7.75,7.75,0,0,1,97,155h0a7.75,7.75,0,0,0,7.75-7.73V131.78a7.75,7.75,0,0,0-7.7-7.78h0a7.75,7.75,0,0,1-7.75-7.75h0a7.75,7.75,0,0,0-7.75-7.75h0" transform="translate(0)" style="fill:#b9d0f9"/><path id="Fill-5" d="M112.52,46.51H97A7.76,7.76,0,0,0,97,62h15.51a7.76,7.76,0,0,0,0-15.51" transform="translate(0)" style="fill:#b9d0f9"/><path id="Fill-7" d="M236.55,124a7.75,7.75,0,0,0,7.75-7.75h0v-31a7.75,7.75,0,0,1,7.75-7.75,7.75,7.75,0,0,0,0-15.5h-15.5a7.75,7.75,0,0,1-7.75-7.75h0A7.75,7.75,0,0,0,221,46.51H205.5a7.75,7.75,0,0,1-7.75-7.75,7.76,7.76,0,0,0-15.51,0,7.75,7.75,0,0,1-7.75,7.75H159a7.75,7.75,0,0,0-7.75,7.75A7.75,7.75,0,0,1,143.52,62a7.75,7.75,0,0,0,0,15.5H159a7.75,7.75,0,0,1,7.75,7.75A7.75,7.75,0,0,0,174.5,93H190a7.75,7.75,0,0,1,7.75,7.75h0a7.75,7.75,0,0,0,7.75,7.75,7.75,7.75,0,0,1,7.75,7.75A7.75,7.75,0,0,0,221,124Z" transform="translate(0)" style="fill:#b9d0f9"/><path id="Fill-9" d="M128,77.52h0a7.75,7.75,0,0,0-7.75,7.75v31A7.75,7.75,0,0,0,128,124a7.75,7.75,0,0,1,7.75,7.75h0a7.75,7.75,0,0,0,7.74,7.76h0a7.75,7.75,0,0,1,7.76,7.74h0a7.75,7.75,0,0,0,15.5,0V131.78a7.75,7.75,0,0,1,7.75-7.75,7.75,7.75,0,0,0,0-15.5,7.75,7.75,0,0,1-7.75-7.75A7.75,7.75,0,0,0,159,93H143.52a7.75,7.75,0,0,1-7.75-7.75A7.75,7.75,0,0,0,128,77.52h0" transform="translate(0)" style="fill:#b9d0f9"/><g id="Group-13"><path id="Fill-11" d="M259.8,147.29h0a7.75,7.75,0,0,0-15.5,0,7.75,7.75,0,0,1-7.75,7.75h0a7.75,7.75,0,0,0-7.75,7.75h0V178.3a7.75,7.75,0,0,0,15.5,0,7.75,7.75,0,0,1,7.74-7.76h15.52a7.75,7.75,0,0,0,0-15.5,7.75,7.75,0,0,1-7.76-7.74h0" transform="translate(0)" style="fill:#b9d0f9"/></g><path id="Fill-14" d="M248.72,173H262a13.29,13.29,0,0,1,13.29,13.29h0V173h0V13.82A13.83,13.83,0,0,0,261.49,0H248.72Z" transform="translate(0)" style="fill:#3e25a7"/><path id="Fill-16" d="M26.59,173H13.28A13.29,13.29,0,0,0,0,186.3H0V173H0V13.82A13.82,13.82,0,0,1,13.82,0H26.59Z" transform="translate(0)" style="fill:#3e25a7"/><path id="Fill-18" d="M154.38,38.76a7.75,7.75,0,1,0,0,15.5h7.76V46.51a7.75,7.75,0,0,0-7.75-7.75" transform="translate(0)" style="fill:#4097ff"/><path id="Fill-20" d="M154.38,41.86A4.65,4.65,0,1,0,159,46.54v0a4.65,4.65,0,0,0-4.65-4.65" transform="translate(0)" style="fill:#3e25a7"/><path id="Fill-22" d="M154.38,43.41a3.1,3.1,0,1,0,3.1,3.1,3.1,3.1,0,0,0-3.1-3.1h0" transform="translate(0)" style="fill:#4097ff"/><path id="Fill-24" d="M42.75,88.37a7.76,7.76,0,0,0,0,15.51H50.5V96.12a7.75,7.75,0,0,0-7.75-7.75" transform="translate(0)" style="fill:#4097ff"/><path id="Fill-26" d="M42.75,91.47a4.66,4.66,0,1,0,4.65,4.67v0a4.65,4.65,0,0,0-4.65-4.65h0" transform="translate(0)" style="fill:#3e25a7"/><path id="Fill-28" d="M42.75,93a3.11,3.11,0,1,0,3.1,3.12v0a3.1,3.1,0,0,0-3.1-3.1" transform="translate(0)" style="fill:#4097ff"/><path id="Fill-30" d="M221,155a7.75,7.75,0,0,0,0,15.5h7.76v-7.75A7.75,7.75,0,0,0,221,155h0" transform="translate(0)" style="fill:#4097ff"/><path id="Fill-32" d="M221,158.14a4.65,4.65,0,1,0,4.66,4.65,4.65,4.65,0,0,0-4.66-4.65h0" transform="translate(0)" style="fill:#3e25a7"/><path id="Fill-34" d="M221,159.69a3.1,3.1,0,1,0,3.1,3.1,3.1,3.1,0,0,0-3.1-3.1h0" transform="translate(0)" style="fill:#4097ff"/><path id="Fill-36" d="M228.8,72.87a7.75,7.75,0,0,0,0,15.5h7.75V80.62a7.75,7.75,0,0,0-7.75-7.75" transform="translate(0)" style="fill:#4097ff"/><path id="Fill-38" d="M228.8,76a4.65,4.65,0,1,0,4.65,4.65h0A4.66,4.66,0,0,0,228.8,76" transform="translate(0)" style="fill:#3e25a7"/><path id="Fill-40" d="M228.8,77.52a3.1,3.1,0,1,0,3.1,3.1,3.1,3.1,0,0,0-3.1-3.1h0" transform="translate(0)" style="fill:#4097ff"/><path id="Fill-42" d="M66,155a7.75,7.75,0,0,0,0,15.5h7.75v-7.75A7.75,7.75,0,0,0,66,155" transform="translate(0)" style="fill:#4097ff"/><path id="Fill-44" d="M66,158.14a4.65,4.65,0,1,0,4.65,4.65h0A4.66,4.66,0,0,0,66,158.14" transform="translate(0)" style="fill:#3e25a7"/><path id="Fill-46" d="M66,159.69a3.1,3.1,0,1,0,3.1,3.1,3.1,3.1,0,0,0-3.1-3.1h0" transform="translate(0)" style="fill:#4097ff"/><path id="Fill-48" d="M166.78,134.88a7.76,7.76,0,0,0,0,15.51h7.75v-7.75a7.75,7.75,0,0,0-7.74-7.76h0" transform="translate(0)" style="fill:#4097ff"/><path id="Fill-50" d="M166.78,138a4.65,4.65,0,1,0,4.65,4.65h0a4.65,4.65,0,0,0-4.65-4.65" transform="translate(0)" style="fill:#3e25a7"/><path id="Fill-52" d="M166.78,139.54a3.1,3.1,0,1,0,3.1,3.1,3.1,3.1,0,0,0-3.1-3.1h0" transform="translate(0)" style="fill:#4097ff"/><path id="Fill-54" d="M123.37,85.27a7.76,7.76,0,0,0,0,15.51h7.75V93a7.75,7.75,0,0,0-7.75-7.75" transform="translate(0)" style="fill:#4097ff"/><path id="Fill-56" d="M123.37,88.37A4.66,4.66,0,1,0,128,93.06V93a4.65,4.65,0,0,0-4.65-4.65" transform="translate(0)" style="fill:#3e25a7"/><path id="Fill-58" d="M123.37,89.92a3.1,3.1,0,1,0,3.1,3.1,3.1,3.1,0,0,0-3.1-3.1h0" transform="translate(0)" style="fill:#4097ff"/><path id="Fill-60" d="M66,65.89a3.88,3.88,0,0,0-.39,7.75,2.54,2.54,0,0,0,.39,0h3.87V69.77A3.88,3.88,0,0,0,66,65.89" transform="translate(0)" style="fill:#4097ff"/><path id="Fill-62" d="M66,67.44a2.33,2.33,0,1,0,2.32,2.34h0A2.34,2.34,0,0,0,66,67.44" transform="translate(0)" style="fill:#3e25a7"/><path id="Fill-64" d="M66,68.22a1.55,1.55,0,1,0,1.55,1.55A1.54,1.54,0,0,0,66,68.22h0" transform="translate(0)" style="fill:#4097ff"/><path id="Fill-66" d="M93.14,131.78a3.88,3.88,0,0,0,0,7.76H97v-3.88a3.88,3.88,0,0,0-3.87-3.88" transform="translate(0)" style="fill:#4097ff"/><path id="Fill-68" d="M93.14,133.33a2.33,2.33,0,1,0,2.32,2.34h0a2.34,2.34,0,0,0-2.32-2.33" transform="translate(0)" style="fill:#3e25a7"/><path id="Fill-70" d="M93.14,134.11a1.55,1.55,0,1,0,1.55,1.55,1.54,1.54,0,0,0-1.55-1.55h0" transform="translate(0)" style="fill:#4097ff"/><path id="Fill-72" d="M224.92,108.53a3.88,3.88,0,0,0-.39,7.75,2.54,2.54,0,0,0,.39,0h3.88V112.4a3.88,3.88,0,0,0-3.88-3.87" transform="translate(0)" style="fill:#4097ff"/><path id="Fill-74" d="M224.92,110.08a2.33,2.33,0,1,0,2.33,2.33h0a2.34,2.34,0,0,0-2.33-2.32" transform="translate(0)" style="fill:#3e25a7"/><path id="Fill-76" d="M224.92,110.85a1.55,1.55,0,1,0,1.55,1.55h0a1.54,1.54,0,0,0-1.55-1.55" transform="translate(0)" style="fill:#4097ff"/><path id="Fill-78" d="M139.65,100.78a3.88,3.88,0,0,0-.39,7.75,2.54,2.54,0,0,0,.39,0h3.87v-3.88a3.87,3.87,0,0,0-3.87-3.87" transform="translate(0)" style="fill:#4097ff"/><path id="Fill-80" d="M139.65,102.33a2.33,2.33,0,1,0,2.32,2.34v0a2.32,2.32,0,0,0-2.32-2.32h0" transform="translate(0)" style="fill:#3e25a7"/><path id="Fill-82" d="M139.65,103.1a1.55,1.55,0,1,0,1.55,1.55,1.54,1.54,0,0,0-1.55-1.55h0" transform="translate(0)" style="fill:#4097ff"/><path id="Fill-84" d="M62.13,116.28a3.88,3.88,0,0,0-.39,7.75,2.54,2.54,0,0,0,.39,0H66v-3.87a3.88,3.88,0,0,0-3.88-3.88" transform="translate(0)" style="fill:#4097ff"/><path id="Fill-86" d="M62.13,117.83a2.33,2.33,0,1,0,2.32,2.34h0a2.34,2.34,0,0,0-2.32-2.33" transform="translate(0)" style="fill:#3e25a7"/><path id="Fill-88" d="M62.13,118.61a1.55,1.55,0,1,0,1.55,1.55,1.54,1.54,0,0,0-1.55-1.55h0" transform="translate(0)" style="fill:#4097ff"/><path id="Fill-90" d="M186.16,62a3.88,3.88,0,1,0-.39,7.75,2.54,2.54,0,0,0,.39,0H190V65.89A3.88,3.88,0,0,0,186.16,62" transform="translate(0)" style="fill:#4097ff"/><path id="Fill-92" d="M186.16,63.57a2.33,2.33,0,1,0,2.33,2.33h0a2.34,2.34,0,0,0-2.33-2.32" transform="translate(0)" style="fill:#3e25a7"/><path id="Fill-94" d="M186.16,64.34a1.55,1.55,0,1,0,1.55,1.55,1.54,1.54,0,0,0-1.55-1.55h0" transform="translate(0)" style="fill:#4097ff"/><path id="Fill-96" d="M44.3,58.14a3.88,3.88,0,1,0-.39,7.75,2.54,2.54,0,0,0,.39,0h3.88V62a3.88,3.88,0,0,0-3.88-3.88" transform="translate(0)" style="fill:#4097ff"/><path id="Fill-98" d="M44.3,59.69A2.33,2.33,0,1,0,46.63,62v0a2.33,2.33,0,0,0-2.33-2.33h0" transform="translate(0)" style="fill:#3e25a7"/><path id="Fill-100" d="M44.3,60.47A1.55,1.55,0,1,0,45.85,62v0a1.54,1.54,0,0,0-1.53-1.55h0" transform="translate(0)" style="fill:#4097ff"/><path id="Fill-102" d="M108.64,46.51a3.88,3.88,0,0,0-.39,7.75,2.54,2.54,0,0,0,.39,0h3.88V50.39a3.88,3.88,0,0,0-3.88-3.88h0" transform="translate(0)" style="fill:#4097ff"/><path id="Fill-104" d="M108.64,48.06A2.33,2.33,0,1,0,111,50.39a2.33,2.33,0,0,0-2.36-2.33h0" transform="translate(0)" style="fill:#3e25a7"/><path id="Fill-106" d="M108.64,48.84a1.55,1.55,0,1,0,1.55,1.55,1.54,1.54,0,0,0-1.55-1.55h0" transform="translate(0)" style="fill:#4097ff"/><path id="Fill-108" d="M217.17,54.26a3.88,3.88,0,1,0,0,7.76H221V58.14a3.88,3.88,0,0,0-3.87-3.88" transform="translate(0)" style="fill:#4097ff"/><path id="Fill-110" d="M217.17,55.81a2.33,2.33,0,1,0,2.32,2.34h0a2.34,2.34,0,0,0-2.32-2.33" transform="translate(0)" style="fill:#3e25a7"/><path id="Fill-112" d="M217.17,56.59a1.55,1.55,0,1,0,1.55,1.55,1.54,1.54,0,0,0-1.55-1.55h0" transform="translate(0)" style="fill:#4097ff"/><path id="Fill-114" d="M100.89,147.29a3.88,3.88,0,1,0-.39,7.75,2.54,2.54,0,0,0,.39,0h3.87v-3.88a3.87,3.87,0,0,0-3.87-3.87" transform="translate(0)" style="fill:#4097ff"/><path id="Fill-116" d="M100.89,148.84a2.33,2.33,0,1,0,2.32,2.34v0a2.33,2.33,0,0,0-2.32-2.32" transform="translate(0)" style="fill:#3e25a7"/><path id="Fill-118" d="M100.89,149.61a1.55,1.55,0,1,0,1.55,1.55,1.54,1.54,0,0,0-1.55-1.55h0" transform="translate(0)" style="fill:#4097ff"/><path id="Fill-120" d="M209.42,69.77a3.88,3.88,0,0,0-.39,7.75,2.54,2.54,0,0,0,.39,0h3.87V73.64a3.87,3.87,0,0,0-3.87-3.87" transform="translate(0)" style="fill:#4097ff"/><path id="Fill-122" d="M209.42,71.32a2.33,2.33,0,1,0,2.32,2.34v0a2.32,2.32,0,0,0-2.32-2.32h0" transform="translate(0)" style="fill:#3e25a7"/><path id="Fill-124" d="M209.42,72.09A1.55,1.55,0,1,0,211,73.64a1.55,1.55,0,0,0-1.58-1.55h0" transform="translate(0)" style="fill:#4097ff"/></g></g></svg>